<svg width="34" height="34" viewBox="0 0 34 34" fill="none" xmlns="http://www.w3.org/2000/svg">
<path d="M29.2 2H4.80001C4.33334 2 3.91999 2.32 3.82666 2.78668L2 11.0002C2 12.6536 3.34667 14.0003 5 14.0003C6.65333 14.0003 8 12.6536 8 11.0002C8 12.6536 9.34667 14.0003 11 14.0003C12.6533 14.0003 14 12.6536 14 11.0002C14 12.6536 15.3467 14.0003 17 14.0003C18.6533 14.0003 20 12.6536 20 11.0002C20 12.6536 21.3467 14.0003 23 14.0003C24.6533 14.0003 26 12.6536 26 11.0002C26 12.6536 27.3467 14.0003 29 14.0003C30.6533 14.0003 32 12.6536 32 11.0002L30.1733 2.78668C30.0667 2.32 29.6667 2 29.2 2Z" stroke="white" stroke-width="2.5" stroke-linecap="round" stroke-linejoin="round"/>
<path d="M30 32.0003V18" stroke="white" stroke-width="2.5" stroke-linecap="round" stroke-linejoin="round"/>
<path d="M4 18V32.0003" stroke="white" stroke-width="2.5" stroke-linecap="round" stroke-linejoin="round"/>
</svg>
