<svg width="310" height="152" viewBox="0 0 310 152" fill="none" xmlns="http://www.w3.org/2000/svg">
<rect x="0.25" y="55.25" width="309.5" height="46.5" rx="7.75" fill="#F3F3F3" stroke="#DAD6E9" stroke-width="0.5"/>
<path d="M220.406 60.1885C220.533 59.956 220.745 59.7841 220.997 59.7104C221.249 59.6368 221.52 59.6675 221.75 59.7958L233.004 66.0852C233.233 66.2138 233.402 66.4291 233.475 66.684C233.547 66.9388 233.517 67.2123 233.39 67.4445L229.089 75.3323C228.962 75.5647 228.75 75.7367 228.498 75.8103C228.246 75.884 227.975 75.8533 227.746 75.7249L216.493 69.4366C216.263 69.3082 216.093 69.0928 216.021 68.8377C215.948 68.5826 215.978 68.3087 216.105 68.0763L220.406 60.1885Z" stroke="#DAD6E9" stroke-linecap="round" stroke-linejoin="round"/>
<path d="M219.451 61.9429L232.435 69.1989" stroke="#DAD6E9" stroke-linecap="round" stroke-linejoin="round"/>
<path d="M220.614 66.0217L225.376 68.6826" stroke="#DAD6E9" stroke-linecap="round" stroke-linejoin="round"/>
<path d="M219.658 67.7742L222.689 69.4676" stroke="#DAD6E9" stroke-linecap="round" stroke-linejoin="round"/>
<path d="M75.9269 68.4061C75.8805 68.2422 75.9003 68.0664 75.9819 67.9174C76.0635 67.7683 76.2003 67.6582 76.3621 67.6112L84.2941 65.3086C84.4558 65.262 84.6292 65.2822 84.7762 65.3649C84.9232 65.4476 85.0317 65.5859 85.0781 65.7495L86.6527 71.3088C86.6991 71.4726 86.6793 71.6484 86.5977 71.7975C86.5161 71.9466 86.3793 72.0567 86.2175 72.1037L78.2867 74.406C78.1248 74.4529 77.9512 74.4329 77.804 74.3503C77.6567 74.2677 77.5479 74.1292 77.5015 73.9654L75.9269 68.4061Z" stroke="#DAD6E9" stroke-linecap="round" stroke-linejoin="round"/>
<path d="M76.2773 69.6426L85.4285 66.986" stroke="#DAD6E9" stroke-linecap="round" stroke-linejoin="round"/>
<path d="M78.6348 70.9653L81.9906 69.9911" stroke="#DAD6E9" stroke-linecap="round" stroke-linejoin="round"/>
<path d="M78.9834 72.1973L81.1192 71.5773" stroke="#DAD6E9" stroke-linecap="round" stroke-linejoin="round"/>
<g opacity="0.7">
<path d="M61.874 91.1618L61.0842 91.4063C60.9595 91.443 60.8516 91.5229 60.7792 91.6321C60.7069 91.7413 60.6748 91.8727 60.6886 92.0035C60.7023 92.1342 60.761 92.2558 60.8544 92.3471C60.9479 92.4384 61.07 92.4936 61.1995 92.5029L62.1122 92.5788C62.2417 92.5881 62.3639 92.6433 62.4573 92.7346C62.5507 92.8259 62.6094 92.9476 62.6232 93.0783C62.6369 93.209 62.6048 93.3404 62.5325 93.4496C62.4601 93.5588 62.3522 93.6387 62.2275 93.6754L61.4372 93.92" stroke="#DAD6E9" stroke-linecap="round" stroke-linejoin="round"/>
<path d="M243.489 91.068L242.772 90.7741C242.66 90.7263 242.535 90.72 242.419 90.7562C242.302 90.7923 242.202 90.8688 242.136 90.972C242.07 91.0753 242.042 91.1988 242.057 91.321C242.071 91.4432 242.128 91.5562 242.217 91.6403L242.836 92.2405C242.925 92.3247 242.982 92.4377 242.996 92.5599C243.011 92.6821 242.983 92.8056 242.917 92.9088C242.85 93.0121 242.751 93.0885 242.634 93.1247C242.518 93.1609 242.393 93.1545 242.281 93.1068L241.564 92.8127" stroke="#DAD6E9" stroke-linecap="round" stroke-linejoin="round"/>
<path d="M61.2813 91.3438L61.1904 91.043" stroke="#DAD6E9" stroke-linecap="round" stroke-linejoin="round"/>
<path d="M242.951 90.8467L243.061 90.5737" stroke="#DAD6E9" stroke-linecap="round" stroke-linejoin="round"/>
<path d="M80.1543 99.7769L80.0635 99.4761" stroke="#DAD6E9" stroke-linecap="round" stroke-linejoin="round"/>
<path d="M58.665 90.1885L62.8119 88.9049" stroke="#DAD6E9" stroke-linecap="round" stroke-linejoin="round"/>
<path d="M241.722 88.4443L245.485 89.9875" stroke="#DAD6E9" stroke-linecap="round" stroke-linejoin="round"/>
<path d="M61.7527 87.8078L61.9781 86.4953C61.9874 86.4302 61.977 86.3638 61.9484 86.3048C61.9198 86.2458 61.8742 86.197 61.8177 86.1646C61.7601 86.1359 61.6953 86.1252 61.6316 86.134C61.5679 86.1427 61.5083 86.1706 61.4604 86.2139L60.8318 86.8468C60.7772 86.9049 60.7027 86.9395 60.6236 86.9437C60.5445 86.9478 60.4669 86.9212 60.4066 86.8691L60.1163 86.6224C60.0787 86.5876 60.0334 86.5623 59.9843 86.5486C59.9351 86.5349 59.8834 86.5332 59.8335 86.5437C59.7853 86.5591 59.7416 86.5859 59.7059 86.6221C59.6702 86.6582 59.6437 86.7026 59.6285 86.7513L59.5207 87.1215C59.4995 87.1987 59.4499 87.2648 59.382 87.3061C59.3141 87.3475 59.2332 87.3609 59.1559 87.3437L58.3017 87.1926C58.2377 87.1826 58.1721 87.1931 58.1143 87.2228C58.0565 87.2524 58.0093 87.2997 57.9795 87.3579C57.948 87.4155 57.9358 87.4818 57.9445 87.5469C57.9533 87.6121 57.9826 87.6727 58.0282 87.7196L58.9327 88.6807" stroke="#DAD6E9" stroke-linecap="round" stroke-linejoin="round"/>
<path d="M245.354 88.5573L246.283 87.7375C246.328 87.6957 246.359 87.6413 246.372 87.5813C246.386 87.5213 246.381 87.4586 246.359 87.4013C246.334 87.346 246.293 87.2995 246.242 87.2679C246.19 87.2362 246.131 87.2209 246.071 87.2238L245.245 87.3086C245.171 87.3182 245.097 87.2989 245.037 87.2547C244.977 87.2105 244.936 87.1447 244.923 87.0709L244.855 86.7181C244.848 86.6703 244.83 86.6249 244.802 86.5856C244.774 86.5463 244.738 86.5142 244.695 86.492C244.652 86.4744 244.604 86.4678 244.557 86.4728C244.51 86.4778 244.465 86.4941 244.425 86.5205L244.131 86.7253C244.071 86.7688 243.996 86.7872 243.923 86.7767C243.85 86.7663 243.783 86.7277 243.737 86.669L243.204 86.0491C243.163 86.0035 243.109 85.972 243.05 85.9591C242.99 85.9461 242.929 85.9523 242.873 85.9768C242.817 85.9999 242.769 86.0408 242.737 86.0934C242.706 86.146 242.692 86.2076 242.698 86.2689L242.795 87.5079" stroke="#DAD6E9" stroke-linecap="round" stroke-linejoin="round"/>
<path d="M59.1034 91.0298L58.4007 92.6463C58.2396 93.0797 58.2016 93.5502 58.2911 94.0044C58.3806 94.4586 58.5939 94.8783 58.9069 95.216C59.22 95.5537 59.6202 95.7959 60.0622 95.9152C60.5043 96.0344 60.9704 96.0259 61.408 95.8907L63.6916 95.1839C64.1294 95.0487 64.5209 94.792 64.8219 94.443C65.1229 94.0939 65.3213 93.6665 65.3945 93.2091C65.4677 92.7518 65.4129 92.2828 65.2362 91.8554C65.0595 91.428 64.7681 91.0592 64.3949 90.791L62.9195 89.8486" stroke="#DAD6E9" stroke-linecap="round" stroke-linejoin="round"/>
<path d="M241.55 89.3175L240.098 90.0732C239.728 90.2922 239.426 90.6116 239.226 90.9953C239.027 91.3789 238.937 91.8115 238.968 92.244C238.999 92.6765 239.149 93.0916 239.401 93.4423C239.653 93.793 239.997 94.0652 240.394 94.2282L242.466 95.078C242.863 95.2411 243.297 95.2883 243.72 95.2143C244.142 95.1402 244.535 94.9479 244.855 94.659C245.175 94.3702 245.408 93.9965 245.529 93.5802C245.649 93.1639 245.652 92.7217 245.537 92.3038L245.013 90.7375" stroke="#DAD6E9" stroke-linecap="round" stroke-linejoin="round"/>
</g>
<path d="M30.602 72.5221L32.9801 68.072" stroke="#DAD6E9" stroke-linecap="round" stroke-linejoin="round"/>
<path d="M41.2082 70.1988L37.2236 67.1448" stroke="#DAD6E9" stroke-linecap="round" stroke-linejoin="round"/>
<path d="M42.6487 78.8691L32.8359 81.0221C32.6052 81.0678 32.366 81.0332 32.1572 80.9239C31.9484 80.8146 31.7822 80.637 31.6857 80.42L28.7936 74.3106C28.7223 74.1648 28.6838 74.0048 28.681 73.8421C28.6782 73.6795 28.7111 73.5182 28.7773 73.37C28.8435 73.221 28.9421 73.089 29.0658 72.984C29.1895 72.879 29.335 72.8037 29.4915 72.7636L42.3158 69.9499C42.4746 69.9207 42.6379 69.9283 42.7934 69.972C42.9489 70.0158 43.0927 70.0946 43.2139 70.2025C43.3348 70.3096 43.4307 70.4426 43.4946 70.5919C43.5586 70.7411 43.589 70.9029 43.5837 71.0655L43.4499 77.8388C43.4507 78.0769 43.3721 78.3083 43.2266 78.4953C43.0811 78.6823 42.8775 78.8141 42.6487 78.8691V78.8691Z" stroke="#DAD6E9" stroke-linecap="round" stroke-linejoin="round"/>
<path d="M33.1836 74.1992L34.1029 78.4936" stroke="#DAD6E9" stroke-linecap="round" stroke-linejoin="round"/>
<path d="M36.3643 73.5054L37.2836 77.7998" stroke="#DAD6E9" stroke-linecap="round" stroke-linejoin="round"/>
<path d="M39.5469 72.8066L40.4662 77.101" stroke="#DAD6E9" stroke-linecap="round" stroke-linejoin="round"/>
<path d="M115.848 63.6769L118.524 61.8251" stroke="#DAD6E9" stroke-linecap="round" stroke-linejoin="round"/>
<path d="M122.643 65.523L121.24 62.5649" stroke="#DAD6E9" stroke-linecap="round" stroke-linejoin="round"/>
<path d="M120.933 70.9551L114.643 69.2489C114.497 69.206 114.369 69.1142 114.28 68.9884C114.192 68.8626 114.148 68.7103 114.156 68.5562L114.279 64.1643C114.281 64.0588 114.305 63.955 114.351 63.8604C114.397 63.7657 114.464 63.6826 114.545 63.617C114.627 63.551 114.723 63.5045 114.825 63.4811C114.927 63.4577 115.033 63.458 115.135 63.4819L123.355 65.7117C123.455 65.7426 123.547 65.796 123.624 65.868C123.701 65.9399 123.761 66.0285 123.799 66.1272C123.837 66.2253 123.853 66.3308 123.847 66.4361C123.84 66.5414 123.81 66.6438 123.759 66.7359L121.697 70.6017C121.627 70.7392 121.514 70.849 121.376 70.9132C121.237 70.9773 121.081 70.9921 120.933 70.9551V70.9551Z" stroke="#DAD6E9" stroke-linecap="round" stroke-linejoin="round"/>
<path d="M116.84 65.4202L116.111 68.1728" stroke="#DAD6E9" stroke-linecap="round" stroke-linejoin="round"/>
<path d="M118.881 65.9785L118.152 68.7311" stroke="#DAD6E9" stroke-linecap="round" stroke-linejoin="round"/>
<path d="M120.919 66.5273L120.19 69.2799" stroke="#DAD6E9" stroke-linecap="round" stroke-linejoin="round"/>
<path d="M268.628 69.5993L269.87 66.3702" stroke="#DAD6E9" stroke-linecap="round" stroke-linejoin="round"/>
<path d="M275.639 67.1053L272.675 65.373" stroke="#DAD6E9" stroke-linecap="round" stroke-linejoin="round"/>
<path d="M277.348 72.8758L270.861 75.1843C270.708 75.2352 270.542 75.2323 270.391 75.176C270.24 75.1197 270.112 75.0134 270.028 74.8742L267.549 70.9715C267.489 70.8786 267.449 70.7732 267.434 70.6629C267.418 70.5526 267.427 70.4401 267.459 70.3337C267.492 70.2267 267.548 70.1285 267.623 70.0465C267.698 69.9645 267.791 69.9008 267.894 69.8601L276.372 66.8432C276.478 66.8097 276.589 66.8008 276.699 66.8171C276.808 66.8334 276.912 66.8746 277.004 66.9375C277.095 66.9999 277.171 67.082 277.227 67.1779C277.283 67.2739 277.318 67.3812 277.328 67.4921L277.806 72.1067C277.827 72.2684 277.793 72.4324 277.71 72.572C277.626 72.7117 277.499 72.8187 277.348 72.8758V72.8758Z" stroke="#DAD6E9" stroke-linecap="round" stroke-linejoin="round"/>
<path d="M270.523 70.5193L271.509 73.3585" stroke="#DAD6E9" stroke-linecap="round" stroke-linejoin="round"/>
<path d="M272.627 69.7739L273.613 72.6131" stroke="#DAD6E9" stroke-linecap="round" stroke-linejoin="round"/>
<path d="M274.731 69.0242L275.717 71.8634" stroke="#DAD6E9" stroke-linecap="round" stroke-linejoin="round"/>
<path d="M197.919 89.6992L198.55 87.2619" stroke="#DAD6E9" stroke-linecap="round" stroke-linejoin="round"/>
<path d="M202.778 87.3048L200.494 86.3042" stroke="#DAD6E9" stroke-linecap="round" stroke-linejoin="round"/>
<path d="M204.487 91.3284L199.991 93.5442C199.885 93.5939 199.765 93.6058 199.652 93.5779C199.538 93.55 199.437 93.484 199.365 93.3905L197.252 90.7811C197.201 90.7192 197.164 90.6464 197.143 90.568C197.123 90.4897 197.12 90.4077 197.135 90.3281C197.149 90.2481 197.182 90.1724 197.229 90.1068C197.277 90.0412 197.338 89.9874 197.409 89.9493L203.285 87.0535C203.358 87.0204 203.438 87.0046 203.518 87.0071C203.599 87.0097 203.677 87.0306 203.749 87.0683C203.82 87.1057 203.881 87.1585 203.93 87.2231C203.978 87.2876 204.012 87.3622 204.028 87.4415L204.754 90.7342C204.783 90.8492 204.771 90.9706 204.723 91.0785C204.674 91.1863 204.591 91.2744 204.487 91.3284V91.3284Z" stroke="#DAD6E9" stroke-linecap="round" stroke-linejoin="round"/>
<path d="M199.365 90.2029L200.311 92.1703" stroke="#DAD6E9" stroke-linecap="round" stroke-linejoin="round"/>
<path d="M200.821 89.4868L201.767 91.4543" stroke="#DAD6E9" stroke-linecap="round" stroke-linejoin="round"/>
<path d="M202.279 88.7673L203.225 90.7348" stroke="#DAD6E9" stroke-linecap="round" stroke-linejoin="round"/>
<path d="M182.268 70.4094L181.514 68.6412C181.437 68.4869 181.393 68.3185 181.383 68.1462C181.373 67.9739 181.398 67.8014 181.457 67.6393C181.515 67.4772 181.605 67.3288 181.722 67.2033C181.839 67.0778 181.98 66.9778 182.137 66.9094C182.293 66.841 182.462 66.8057 182.633 66.8056C182.803 66.8055 182.972 66.8406 183.128 66.9088C183.285 66.977 183.426 67.0768 183.543 67.2022C183.66 67.3276 183.751 67.4758 183.809 67.6379L184.563 69.4061" stroke="#DAD6E9" stroke-linecap="round" stroke-linejoin="round"/>
<path d="M187.434 69.5331C187.464 69.5023 187.503 69.4816 187.544 69.4739C187.586 69.4662 187.63 69.4718 187.668 69.49C187.707 69.5081 187.739 69.538 187.76 69.5753C187.781 69.6127 187.791 69.6558 187.787 69.6987C187.745 70.0043 187.81 70.3149 187.97 70.5774C188.13 70.8398 188.376 71.0377 188.664 71.1372C188.755 70.9046 188.789 70.6528 188.762 70.404C188.759 70.372 188.764 70.3399 188.776 70.31C188.787 70.2802 188.806 70.2535 188.829 70.232C188.852 70.2107 188.88 70.1952 188.91 70.1867C188.94 70.1783 188.971 70.1771 189.002 70.1833C189.342 70.2477 189.662 70.3959 189.932 70.6148C190.203 70.8336 190.416 71.1164 190.553 71.4384C190.66 71.6871 190.716 71.9545 190.72 72.2254C190.724 72.4963 190.675 72.7653 190.577 73.0171C190.478 73.2689 190.331 73.4986 190.145 73.693C189.958 73.8873 189.736 74.0427 189.49 74.15C189.245 74.2574 188.98 74.3147 188.713 74.3188C188.445 74.3228 188.18 74.2734 187.931 74.1735C187.682 74.0735 187.455 73.925 187.263 73.7363C187.071 73.5476 186.918 73.3224 186.812 73.0737C186.573 72.4843 186.505 71.8383 186.615 71.2112C186.726 70.5841 187.01 70.0017 187.435 69.532L187.434 69.5331Z" stroke="#DAD6E9" stroke-linecap="round" stroke-linejoin="round"/>
<path d="M186.269 68.6169L185.895 67.8893C185.835 67.7897 185.74 67.7161 185.629 67.6824C185.519 67.6486 185.4 67.6571 185.295 67.7061L180.597 69.7596C180.488 69.8021 180.399 69.8838 180.347 69.989C180.295 70.0941 180.283 70.2151 180.314 70.3285L182.25 75.8963L182.434 76.3274C182.531 76.5304 182.703 76.6865 182.913 76.7615C183.123 76.8366 183.354 76.8246 183.555 76.7281L186.775 75.3208" stroke="#DAD6E9" stroke-linecap="round" stroke-linejoin="round"/>
<path d="M182.143 75.6389L185.547 74.1511" stroke="#DAD6E9" stroke-linecap="round" stroke-linejoin="round"/>
<g opacity="0.2">
<path d="M231.237 61.5471C231.364 61.3147 231.576 61.1427 231.828 61.0691C232.08 60.9954 232.351 61.0262 232.581 61.1545L243.835 67.4438C244.064 67.5724 244.233 67.7878 244.306 68.0426C244.378 68.2975 244.348 68.571 244.221 68.8031L239.92 76.6909C239.793 76.9234 239.581 77.0953 239.329 77.169C239.077 77.2426 238.806 77.2119 238.577 77.0836L227.324 70.7952C227.094 70.6669 226.925 70.4515 226.852 70.1964C226.779 69.9413 226.809 69.6674 226.936 69.4349L231.237 61.5471Z" stroke="#C9C3E0" stroke-width="0.5" stroke-linecap="round" stroke-linejoin="round"/>
<path d="M230.282 63.3022L243.266 70.5583" stroke="#C9C3E0" stroke-width="0.5" stroke-linecap="round" stroke-linejoin="round"/>
<path d="M231.445 67.3804L236.207 70.0412" stroke="#C9C3E0" stroke-width="0.5" stroke-linecap="round" stroke-linejoin="round"/>
<path d="M230.489 69.1328L233.52 70.8263" stroke="#C9C3E0" stroke-width="0.5" stroke-linecap="round" stroke-linejoin="round"/>
<path d="M82.0978 63.1546C82.0514 62.9908 82.0712 62.815 82.1528 62.6659C82.2344 62.5168 82.3712 62.4067 82.533 62.3597L90.465 60.0571C90.6267 60.0105 90.8001 60.0308 90.9471 60.1134C91.0941 60.1961 91.2026 60.3344 91.249 60.498L92.8236 66.0573C92.87 66.2212 92.8502 66.397 92.7686 66.546C92.687 66.6951 92.5502 66.8052 92.3884 66.8522L84.4576 69.1545C84.2957 69.2015 84.1221 69.1814 83.9749 69.0988C83.8276 69.0162 83.7188 68.8777 83.6724 68.7139L82.0978 63.1546Z" stroke="#C9C3E0" stroke-width="0.5" stroke-linecap="round" stroke-linejoin="round"/>
<path d="M82.4482 64.3911L91.5994 61.7346" stroke="#C9C3E0" stroke-width="0.5" stroke-linecap="round" stroke-linejoin="round"/>
<path d="M84.8047 65.7139L88.1605 64.7397" stroke="#C9C3E0" stroke-width="0.5" stroke-linecap="round" stroke-linejoin="round"/>
<path d="M85.1543 66.9458L87.2901 66.3258" stroke="#C9C3E0" stroke-width="0.5" stroke-linecap="round" stroke-linejoin="round"/>
<path d="M65.4346 86.8374L64.6448 87.0818C64.5201 87.1185 64.4121 87.1985 64.3398 87.3077C64.2675 87.4168 64.2354 87.5483 64.2491 87.679C64.2628 87.8097 64.3216 87.9314 64.415 88.0227C64.5084 88.114 64.6306 88.1691 64.7601 88.1784L65.6727 88.2544C65.8022 88.2637 65.9244 88.3188 66.0178 88.4101C66.1112 88.5014 66.17 88.6231 66.1837 88.7538C66.1974 88.8845 66.1653 89.016 66.093 89.1252C66.0207 89.2343 65.9127 89.3143 65.788 89.351L64.9978 89.5956" stroke="#C9C3E0" stroke-width="0.5" stroke-linecap="round" stroke-linejoin="round"/>
<path d="M64.8418 87.0193L64.751 86.7185" stroke="#C9C3E0" stroke-width="0.5" stroke-linecap="round" stroke-linejoin="round"/>
<path d="M65.6582 89.7169L65.5674 89.416" stroke="#C9C3E0" stroke-width="0.5" stroke-linecap="round" stroke-linejoin="round"/>
<path d="M62.2256 85.8616L66.3725 84.578" stroke="#C9C3E0" stroke-width="0.5" stroke-linecap="round" stroke-linejoin="round"/>
<path d="M65.3133 83.4834L65.5386 82.1708C65.5479 82.1058 65.5376 82.0394 65.5089 81.9804C65.4803 81.9214 65.4348 81.8725 65.3782 81.8402C65.3206 81.8114 65.2558 81.8007 65.1922 81.8095C65.1285 81.8183 65.0689 81.8461 65.021 81.8895L64.3924 82.5223C64.3378 82.5804 64.2633 82.6151 64.1842 82.6192C64.1051 82.6234 64.0274 82.5967 63.9672 82.5447L63.6768 82.298C63.6392 82.2631 63.594 82.2378 63.5448 82.2241C63.4956 82.2104 63.444 82.2088 63.394 82.2192C63.3459 82.2346 63.3021 82.2615 63.2664 82.2976C63.2308 82.3338 63.2042 82.3781 63.189 82.4268L63.0813 82.797C63.0601 82.8743 63.0104 82.9403 62.9426 82.9817C62.8747 83.023 62.7938 83.0364 62.7164 83.0192L61.8622 82.8681C61.7982 82.8581 61.7327 82.8686 61.6749 82.8983C61.617 82.9279 61.5699 82.9752 61.54 83.0334C61.5086 83.091 61.4963 83.1573 61.5051 83.2225C61.5139 83.2876 61.5432 83.3482 61.5887 83.3951L62.4932 84.3562" stroke="#C9C3E0" stroke-width="0.5" stroke-linecap="round" stroke-linejoin="round"/>
<path d="M62.664 86.7053L61.9613 88.3218C61.8001 88.7553 61.7622 89.2257 61.8516 89.6799C61.9411 90.1341 62.1545 90.5538 62.4675 90.8916C62.7805 91.2293 63.1807 91.4715 63.6228 91.5907C64.0648 91.71 64.531 91.7015 64.9685 91.5662L67.2522 90.8594C67.6899 90.7242 68.0815 90.4675 68.3825 90.1185C68.6834 89.7695 68.8818 89.342 68.955 88.8847C69.0282 88.4273 68.9734 87.9583 68.7967 87.5309C68.6201 87.1035 68.3286 86.7348 67.9555 86.4665L66.48 85.5242" stroke="#C9C3E0" stroke-width="0.5" stroke-linecap="round" stroke-linejoin="round"/>
<path d="M248.599 90.0499L247.882 89.756C247.77 89.7083 247.645 89.7019 247.529 89.7381C247.413 89.7743 247.313 89.8507 247.247 89.9539C247.18 90.0572 247.152 90.1807 247.167 90.3029C247.182 90.4251 247.238 90.5381 247.327 90.6222L247.946 91.2225C248.035 91.3066 248.092 91.4196 248.107 91.5418C248.121 91.664 248.093 91.7875 248.027 91.8908C247.961 91.994 247.861 92.0704 247.745 92.1066C247.628 92.1428 247.503 92.1365 247.391 92.0887L246.674 91.7946" stroke="#C9C3E0" stroke-width="0.5" stroke-linecap="round" stroke-linejoin="round"/>
<path d="M248.062 89.8282L248.171 89.5552" stroke="#C9C3E0" stroke-width="0.5" stroke-linecap="round" stroke-linejoin="round"/>
<path d="M247.083 92.2774L247.192 92.0044" stroke="#C9C3E0" stroke-width="0.5" stroke-linecap="round" stroke-linejoin="round"/>
<path d="M246.834 87.4243L250.597 88.9675" stroke="#C9C3E0" stroke-width="0.5" stroke-linecap="round" stroke-linejoin="round"/>
<path d="M250.465 87.539L251.393 86.7192C251.438 86.6774 251.469 86.623 251.483 86.563C251.496 86.503 251.492 86.4403 251.469 86.383C251.444 86.3276 251.403 86.2812 251.352 86.2495C251.301 86.2179 251.241 86.2026 251.181 86.2055L250.355 86.2902C250.282 86.2999 250.207 86.2806 250.147 86.2364C250.087 86.1922 250.046 86.1264 250.033 86.0526L249.966 85.6998C249.959 85.652 249.94 85.6066 249.913 85.5673C249.885 85.528 249.848 85.4959 249.806 85.4737C249.762 85.4561 249.714 85.4495 249.667 85.4545C249.62 85.4594 249.575 85.4758 249.536 85.5022L249.242 85.707C249.181 85.7505 249.107 85.7689 249.033 85.7584C248.96 85.748 248.893 85.7094 248.847 85.6507L248.314 85.0308C248.273 84.9852 248.219 84.9537 248.16 84.9408C248.101 84.9278 248.039 84.934 247.983 84.9585C247.927 84.9816 247.879 85.0225 247.848 85.0751C247.816 85.1277 247.802 85.1893 247.808 85.2506L247.906 86.4896" stroke="#C9C3E0" stroke-width="0.5" stroke-linecap="round" stroke-linejoin="round"/>
<path d="M246.662 88.2994L245.209 89.0551C244.839 89.2741 244.537 89.5935 244.338 89.9772C244.138 90.3609 244.049 90.7935 244.08 91.226C244.11 91.6585 244.26 92.0736 244.512 92.4243C244.764 92.7749 245.108 93.0472 245.505 93.2101L247.577 94.0599C247.974 94.223 248.409 94.2702 248.831 94.1962C249.253 94.1222 249.646 93.9298 249.966 93.641C250.286 93.3522 250.519 92.9784 250.64 92.5621C250.76 92.1458 250.763 91.7037 250.648 91.2858L250.125 89.7195" stroke="#C9C3E0" stroke-width="0.5" stroke-linecap="round" stroke-linejoin="round"/>
<path d="M39.4321 64.4024L41.8102 59.9524" stroke="#C9C3E0" stroke-width="0.5" stroke-linecap="round" stroke-linejoin="round"/>
<path d="M50.0373 62.0733L46.0527 59.0193" stroke="#C9C3E0" stroke-width="0.5" stroke-linecap="round" stroke-linejoin="round"/>
<path d="M51.4788 70.7487L41.666 72.9017C41.4353 72.9474 41.1961 72.9128 40.9873 72.8035C40.7785 72.6942 40.6123 72.5167 40.5158 72.2996L37.6237 66.1902C37.5524 66.0445 37.5139 65.8845 37.5111 65.7218C37.5083 65.5591 37.5412 65.3979 37.6074 65.2496C37.6736 65.1006 37.7722 64.9686 37.8959 64.8636C38.0196 64.7586 38.1651 64.6833 38.3216 64.6433L51.1459 61.8295C51.3047 61.8003 51.468 61.8079 51.6235 61.8517C51.779 61.8954 51.9227 61.9742 52.0439 62.0821C52.1649 62.1893 52.2608 62.3223 52.3247 62.4715C52.3887 62.6208 52.4191 62.7826 52.4138 62.9452L52.2799 69.7185C52.2808 69.9565 52.2021 70.1879 52.0567 70.3749C51.9112 70.562 51.7075 70.6937 51.4788 70.7487V70.7487Z" stroke="#C9C3E0" stroke-width="0.5" stroke-linecap="round" stroke-linejoin="round"/>
<path d="M42.0117 66.0789L42.931 70.3733" stroke="#C9C3E0" stroke-width="0.5" stroke-linecap="round" stroke-linejoin="round"/>
<path d="M45.1953 65.3801L46.1146 69.6745" stroke="#C9C3E0" stroke-width="0.5" stroke-linecap="round" stroke-linejoin="round"/>
<path d="M48.375 64.6841L49.2943 68.9785" stroke="#C9C3E0" stroke-width="0.5" stroke-linecap="round" stroke-linejoin="round"/>
<path d="M123.327 61.6425L126.003 59.7907" stroke="#C9C3E0" stroke-width="0.5" stroke-linecap="round" stroke-linejoin="round"/>
<path d="M130.122 63.4886L128.72 60.5305" stroke="#C9C3E0" stroke-width="0.5" stroke-linecap="round" stroke-linejoin="round"/>
<path d="M128.412 68.9207L122.123 67.2145C121.976 67.1715 121.848 67.0797 121.76 66.954C121.672 66.8282 121.628 66.6759 121.636 66.5218L121.759 62.1299C121.76 62.0244 121.785 61.9206 121.831 61.8259C121.877 61.7313 121.943 61.6482 122.025 61.5826C122.107 61.5165 122.202 61.4701 122.304 61.4467C122.406 61.4233 122.512 61.4235 122.614 61.4475L130.834 63.6773C130.935 63.7082 131.026 63.7616 131.103 63.8335C131.18 63.9055 131.24 63.9941 131.278 64.0927C131.317 64.1909 131.333 64.2964 131.326 64.4016C131.319 64.5069 131.289 64.6094 131.239 64.7015L129.176 68.5672C129.107 68.7048 128.994 68.8146 128.855 68.8787C128.716 68.9429 128.56 68.9577 128.412 68.9207V68.9207Z" stroke="#C9C3E0" stroke-width="0.5" stroke-linecap="round" stroke-linejoin="round"/>
<path d="M124.319 63.3857L123.591 66.1383" stroke="#C9C3E0" stroke-width="0.5" stroke-linecap="round" stroke-linejoin="round"/>
<path d="M126.36 63.9441L125.632 66.6967" stroke="#C9C3E0" stroke-width="0.5" stroke-linecap="round" stroke-linejoin="round"/>
<path d="M128.398 64.4927L127.67 67.2453" stroke="#C9C3E0" stroke-width="0.5" stroke-linecap="round" stroke-linejoin="round"/>
<path d="M273.95 63.33L275.192 60.101" stroke="#C9C3E0" stroke-width="0.5" stroke-linecap="round" stroke-linejoin="round"/>
<path d="M280.962 60.836L277.997 59.1038" stroke="#C9C3E0" stroke-width="0.5" stroke-linecap="round" stroke-linejoin="round"/>
<path d="M282.67 66.6065L276.183 68.915C276.03 68.9659 275.864 68.963 275.713 68.9067C275.562 68.8504 275.434 68.7441 275.351 68.6049L272.872 64.7022C272.811 64.6093 272.771 64.5039 272.756 64.3936C272.74 64.2833 272.749 64.1708 272.782 64.0644C272.814 63.9574 272.87 63.8593 272.945 63.7772C273.02 63.6952 273.113 63.6315 273.216 63.5908L281.695 60.5739C281.8 60.5404 281.912 60.5315 282.021 60.5478C282.13 60.5641 282.235 60.6053 282.326 60.6682C282.417 60.7306 282.494 60.8127 282.55 60.9087C282.606 61.0046 282.64 61.1119 282.65 61.2229L283.128 65.8374C283.149 65.9991 283.115 66.1631 283.032 66.3027C282.949 66.4424 282.821 66.5494 282.67 66.6065V66.6065Z" stroke="#C9C3E0" stroke-width="0.5" stroke-linecap="round" stroke-linejoin="round"/>
<path d="M275.846 64.25L276.831 67.0892" stroke="#C9C3E0" stroke-width="0.5" stroke-linecap="round" stroke-linejoin="round"/>
<path d="M277.949 63.5046L278.935 66.3438" stroke="#C9C3E0" stroke-width="0.5" stroke-linecap="round" stroke-linejoin="round"/>
<path d="M280.054 62.7549L281.039 65.5941" stroke="#C9C3E0" stroke-width="0.5" stroke-linecap="round" stroke-linejoin="round"/>
<path d="M201.247 84.7209L201.877 82.2836" stroke="#C9C3E0" stroke-width="0.5" stroke-linecap="round" stroke-linejoin="round"/>
<path d="M206.105 82.3265L203.821 81.3259" stroke="#C9C3E0" stroke-width="0.5" stroke-linecap="round" stroke-linejoin="round"/>
<path d="M207.814 86.3501L203.319 88.5659C203.212 88.6156 203.093 88.6275 202.979 88.5996C202.865 88.5717 202.764 88.5057 202.692 88.4123L200.579 85.8029C200.528 85.7409 200.491 85.6681 200.47 85.5897C200.45 85.5114 200.447 85.4294 200.462 85.3498C200.476 85.2698 200.509 85.1941 200.556 85.1286C200.604 85.063 200.665 85.0091 200.736 84.971L206.612 82.0753C206.685 82.0422 206.765 82.0263 206.845 82.0288C206.926 82.0314 207.004 82.0523 207.076 82.09C207.147 82.1274 207.209 82.1803 207.257 82.2448C207.305 82.3093 207.339 82.384 207.355 82.4633L208.081 85.7559C208.11 85.871 208.099 85.9923 208.05 86.1002C208.002 86.2081 207.918 86.2962 207.814 86.3501V86.3501Z" stroke="#C9C3E0" stroke-width="0.5" stroke-linecap="round" stroke-linejoin="round"/>
<path d="M202.692 85.2246L203.638 87.192" stroke="#C9C3E0" stroke-width="0.5" stroke-linecap="round" stroke-linejoin="round"/>
<path d="M204.148 84.5085L205.095 86.476" stroke="#C9C3E0" stroke-width="0.5" stroke-linecap="round" stroke-linejoin="round"/>
<path d="M205.606 83.7891L206.553 85.7565" stroke="#C9C3E0" stroke-width="0.5" stroke-linecap="round" stroke-linejoin="round"/>
<path d="M185.345 63.7448L184.591 61.9766C184.515 61.8223 184.47 61.6539 184.46 61.4816C184.45 61.3094 184.476 61.1369 184.534 60.9748C184.592 60.8126 184.683 60.6643 184.8 60.5388C184.917 60.4133 185.058 60.3132 185.214 60.2448C185.371 60.1765 185.539 60.1411 185.71 60.141C185.88 60.1409 186.049 60.176 186.205 60.2442C186.362 60.3124 186.503 60.4123 186.62 60.5376C186.737 60.663 186.828 60.8113 186.886 60.9733L187.64 62.7415" stroke="#C9C3E0" stroke-width="0.5" stroke-linecap="round" stroke-linejoin="round"/>
<path d="M190.511 62.8685C190.541 62.8377 190.58 62.8171 190.622 62.8094C190.664 62.8017 190.707 62.8073 190.745 62.8254C190.784 62.8436 190.816 62.8734 190.837 62.9108C190.858 62.9482 190.868 62.9913 190.864 63.0342C190.822 63.3398 190.887 63.6504 191.047 63.9128C191.207 64.1753 191.453 64.3732 191.741 64.4726C191.833 64.2401 191.866 63.9883 191.839 63.7395C191.836 63.7075 191.841 63.6753 191.853 63.6455C191.864 63.6156 191.883 63.5889 191.906 63.5674C191.929 63.5461 191.957 63.5306 191.987 63.5222C192.017 63.5137 192.049 63.5125 192.079 63.5188C192.42 63.5832 192.739 63.7314 193.01 63.9502C193.28 64.1691 193.493 64.4519 193.631 64.7738C193.737 65.0225 193.793 65.29 193.797 65.5609C193.801 65.8317 193.752 66.1008 193.654 66.3526C193.555 66.6044 193.408 66.834 193.222 67.0284C193.035 67.2228 192.813 67.3781 192.567 67.4855C192.322 67.5929 192.058 67.6502 191.79 67.6542C191.522 67.6582 191.257 67.6089 191.008 67.5089C190.759 67.409 190.532 67.2604 190.34 67.0717C190.148 66.883 189.995 66.6579 189.889 66.4091C189.65 65.8197 189.582 65.1738 189.693 64.5467C189.803 63.9195 190.087 63.3372 190.512 62.8675L190.511 62.8685Z" stroke="#C9C3E0" stroke-width="0.5" stroke-linecap="round" stroke-linejoin="round"/>
<path d="M189.346 61.9524L188.972 61.2247C188.912 61.1252 188.817 61.0516 188.707 61.0178C188.596 60.9841 188.477 60.9925 188.372 61.0416L183.674 63.095C183.565 63.1375 183.476 63.2193 183.424 63.3244C183.372 63.4296 183.36 63.5506 183.392 63.6639L185.327 69.2317L185.511 69.6628C185.608 69.8659 185.78 70.0219 185.99 70.097C186.2 70.1721 186.431 70.16 186.632 70.0636L189.852 68.6562" stroke="#C9C3E0" stroke-width="0.5" stroke-linecap="round" stroke-linejoin="round"/>
<path d="M185.22 68.9744L188.624 67.4865" stroke="#C9C3E0" stroke-width="0.5" stroke-linecap="round" stroke-linejoin="round"/>
<path d="M17.2193 82.5392L17.618 80.7908C17.6449 80.6323 17.7034 80.4811 17.79 80.3463C17.8766 80.2116 17.9895 80.0961 18.1217 80.0071C18.254 79.9181 18.4027 79.8573 18.559 79.8285C18.7152 79.7997 18.8756 79.8035 19.0304 79.8397C19.1851 79.8758 19.3309 79.9436 19.4589 80.0388C19.5868 80.134 19.6942 80.2547 19.7745 80.3934C19.8548 80.5321 19.9063 80.686 19.9258 80.8455C19.9453 81.0051 19.9324 81.167 19.8879 81.3213L19.4892 83.0697" stroke="#C9C3E0" stroke-width="0.5" stroke-linecap="round" stroke-linejoin="round"/>
<path d="M21.5729 84.7712C21.6121 84.7648 21.6522 84.7708 21.6879 84.7885C21.7235 84.8061 21.7529 84.8345 21.772 84.8697C21.791 84.9049 21.7989 84.9452 21.7944 84.9851C21.7899 85.025 21.7733 85.0625 21.7469 85.0925C21.5492 85.2987 21.4285 85.5681 21.4054 85.8545C21.3824 86.1409 21.4584 86.4266 21.6206 86.6624C21.8161 86.5391 21.9787 86.3689 22.0939 86.1669C22.1094 86.1415 22.1305 86.12 22.1556 86.1041C22.1807 86.0883 22.209 86.0785 22.2384 86.0756C22.2673 86.0724 22.2965 86.0762 22.3236 86.0867C22.3507 86.0971 22.3751 86.1139 22.3946 86.1356C22.6149 86.3743 22.7739 86.6641 22.8575 86.9796C22.9411 87.2951 22.9469 87.6266 22.8742 87.9448C22.8181 88.1908 22.7148 88.4231 22.57 88.6286C22.4252 88.8341 22.2418 89.0087 22.0304 89.1425C21.819 89.2763 21.5836 89.3665 21.3377 89.4082C21.0918 89.4499 20.8402 89.4421 20.5972 89.3853C20.3543 89.3285 20.1248 89.2239 19.9218 89.0773C19.7188 88.9307 19.5463 88.7451 19.4142 88.531C19.2821 88.317 19.1929 88.0787 19.1518 87.8297C19.1106 87.5808 19.1183 87.326 19.1744 87.0801C19.3168 86.5044 19.618 85.9815 20.043 85.5727C20.4679 85.1638 20.9989 84.8857 21.5741 84.7709L21.5729 84.7712Z" stroke="#C9C3E0" stroke-width="0.5" stroke-linecap="round" stroke-linejoin="round"/>
<path d="M21.1984 83.4317L21.3151 82.6769C21.3239 82.5683 21.2931 82.4602 21.2285 82.373C21.1639 82.2858 21.07 82.2256 20.9646 82.2038L16.3187 81.118C16.2142 81.0893 16.1029 81.1009 16.0064 81.1507C15.91 81.2004 15.8352 81.2847 15.7966 81.3871L14.2118 86.6473L14.1146 87.0736C14.0765 87.2801 14.1206 87.4935 14.2373 87.6672C14.3539 87.841 14.5337 87.961 14.7374 88.0012L17.9214 88.7454" stroke="#C9C3E0" stroke-width="0.5" stroke-linecap="round" stroke-linejoin="round"/>
<path d="M14.2754 86.3953L17.6416 87.182" stroke="#C9C3E0" stroke-width="0.5" stroke-linecap="round" stroke-linejoin="round"/>
<path d="M293.804 85.7925L294.228 83.934C294.256 83.7656 294.318 83.6048 294.41 83.4616C294.503 83.3184 294.623 83.1957 294.763 83.101C294.904 83.0064 295.062 82.9418 295.228 82.9112C295.394 82.8806 295.564 82.8846 295.729 82.9231C295.893 82.9615 296.048 83.0335 296.184 83.1347C296.32 83.2359 296.435 83.3642 296.52 83.5116C296.605 83.6591 296.66 83.8226 296.681 83.9922C296.701 84.1618 296.688 84.3339 296.64 84.498L296.217 86.3565" stroke="#C9C3E0" stroke-width="0.5" stroke-linecap="round" stroke-linejoin="round"/>
<path d="M298.431 88.1642C298.472 88.1574 298.515 88.1638 298.553 88.1826C298.591 88.2013 298.622 88.2314 298.642 88.2689C298.663 88.3063 298.671 88.3492 298.666 88.3916C298.661 88.434 298.644 88.4739 298.616 88.5057C298.405 88.7249 298.277 89.0112 298.253 89.3157C298.228 89.6202 298.309 89.9238 298.481 90.1745C298.689 90.0434 298.862 89.8625 298.985 89.6478C299.001 89.6208 299.023 89.5979 299.05 89.5811C299.077 89.5642 299.107 89.5538 299.138 89.5507C299.169 89.5473 299.2 89.5514 299.229 89.5625C299.257 89.5736 299.283 89.5914 299.304 89.6145C299.538 89.8682 299.707 90.1763 299.796 90.5117C299.885 90.847 299.891 91.1993 299.814 91.5377C299.754 91.7991 299.644 92.0461 299.491 92.2645C299.337 92.4829 299.142 92.6685 298.917 92.8107C298.692 92.9529 298.442 93.0489 298.181 93.0931C297.919 93.1374 297.652 93.1292 297.394 93.0688C297.135 93.0084 296.891 92.8972 296.676 92.7414C296.46 92.5856 296.277 92.3883 296.136 92.1607C295.996 91.9332 295.901 91.6799 295.857 91.4153C295.813 91.1506 295.822 90.8799 295.881 90.6185C296.033 90.0065 296.353 89.4507 296.804 89.0161C297.256 88.5815 297.821 88.2859 298.432 88.1639L298.431 88.1642Z" stroke="#C9C3E0" stroke-width="0.5" stroke-linecap="round" stroke-linejoin="round"/>
<path d="M298.032 86.7403L298.156 85.938C298.165 85.8226 298.132 85.7077 298.064 85.615C297.995 85.5223 297.895 85.4583 297.783 85.4351L292.845 84.2809C292.734 84.2504 292.615 84.2628 292.513 84.3157C292.41 84.3686 292.331 84.4581 292.29 84.567L290.605 90.1584L290.502 90.6115C290.462 90.831 290.508 91.0578 290.632 91.2425C290.756 91.4272 290.947 91.5548 291.164 91.5975L294.548 92.3885" stroke="#C9C3E0" stroke-width="0.5" stroke-linecap="round" stroke-linejoin="round"/>
<path d="M290.674 89.8909L294.252 90.7272" stroke="#C9C3E0" stroke-width="0.5" stroke-linecap="round" stroke-linejoin="round"/>
<path d="M101.008 85.1269L101.354 83.6084C101.378 83.4707 101.429 83.3394 101.504 83.2223C101.579 83.1053 101.677 83.005 101.792 82.9277C101.907 82.8504 102.036 82.7976 102.172 82.7726C102.307 82.7476 102.447 82.7509 102.581 82.7823C102.716 82.8137 102.842 82.8726 102.953 82.9553C103.064 83.038 103.158 83.1427 103.227 83.2632C103.297 83.3837 103.342 83.5173 103.359 83.6559C103.376 83.7945 103.365 83.9351 103.326 84.0692L102.98 85.5877" stroke="#C9C3E0" stroke-width="0.5" stroke-linecap="round" stroke-linejoin="round"/>
<path d="M104.789 87.0651C104.823 87.0595 104.858 87.0648 104.889 87.0801C104.92 87.0954 104.945 87.12 104.962 87.1506C104.978 87.1812 104.985 87.2162 104.981 87.2509C104.977 87.2855 104.963 87.3181 104.94 87.3441C104.768 87.5232 104.663 87.7572 104.643 88.006C104.623 88.2548 104.69 88.5028 104.83 88.7077C105 88.6006 105.141 88.4528 105.241 88.2774C105.255 88.2552 105.273 88.2366 105.295 88.2228C105.317 88.209 105.341 88.2006 105.367 88.198C105.392 88.1953 105.417 88.1986 105.441 88.2076C105.464 88.2167 105.486 88.2313 105.503 88.2502C105.694 88.4575 105.832 88.7092 105.905 88.9832C105.977 89.2572 105.982 89.5451 105.919 89.8215C105.87 90.0352 105.781 90.237 105.655 90.4155C105.529 90.5939 105.37 90.7456 105.186 90.8618C105.003 90.9779 104.798 91.0564 104.585 91.0925C104.371 91.1287 104.152 91.122 103.941 91.0727C103.73 91.0233 103.531 90.9324 103.355 90.8051C103.179 90.6778 103.029 90.5166 102.914 90.3307C102.799 90.1448 102.722 89.9378 102.686 89.7215C102.65 89.5053 102.657 89.2841 102.706 89.0705C102.829 88.5704 103.091 88.1163 103.46 87.7612C103.829 87.4061 104.29 87.1646 104.79 87.0649L104.789 87.0651Z" stroke="#C9C3E0" stroke-width="0.5" stroke-linecap="round" stroke-linejoin="round"/>
<path d="M104.463 85.9017L104.564 85.2461C104.572 85.1518 104.545 85.0579 104.489 84.9821C104.433 84.9064 104.352 84.8541 104.26 84.8352L100.225 83.8921C100.134 83.8672 100.037 83.8773 99.9536 83.9205C99.8698 83.9637 99.8049 84.0369 99.7714 84.1258L98.3949 88.6946L98.3105 89.0648C98.2774 89.2442 98.3157 89.4295 98.417 89.5804C98.5183 89.7313 98.6745 89.8356 98.8514 89.8705L101.617 90.5168" stroke="#C9C3E0" stroke-width="0.5" stroke-linecap="round" stroke-linejoin="round"/>
<path d="M98.4512 88.4758L101.375 89.1592" stroke="#C9C3E0" stroke-width="0.5" stroke-linecap="round" stroke-linejoin="round"/>
</g>
<path d="M11.2769 85.8275L11.6756 84.0791C11.7025 83.9206 11.761 83.7694 11.8476 83.6347C11.9342 83.4999 12.0471 83.3845 12.1794 83.2954C12.3116 83.2064 12.4604 83.1456 12.6166 83.1168C12.7728 83.088 12.9332 83.0918 13.088 83.128C13.2427 83.1642 13.3885 83.2319 13.5165 83.3272C13.6444 83.4224 13.7519 83.543 13.8321 83.6817C13.9124 83.8204 13.9639 83.9743 13.9834 84.1338C14.0029 84.2934 13.99 84.4553 13.9455 84.6096L13.5468 86.3581" stroke="#DAD6E9" stroke-linecap="round" stroke-linejoin="round"/>
<path d="M15.6305 88.0596C15.6697 88.0531 15.7099 88.0592 15.7455 88.0768C15.7811 88.0944 15.8105 88.1228 15.8296 88.158C15.8486 88.1932 15.8565 88.2335 15.852 88.2734C15.8475 88.3133 15.8309 88.3508 15.8045 88.3808C15.6068 88.587 15.4861 88.8564 15.463 89.1428C15.44 89.4293 15.5161 89.7149 15.6782 89.9508C15.8738 89.8274 16.0363 89.6572 16.1515 89.4553C16.1671 89.4298 16.1882 89.4083 16.2132 89.3925C16.2383 89.3766 16.2666 89.3668 16.296 89.3639C16.3249 89.3607 16.3541 89.3646 16.3812 89.375C16.4084 89.3854 16.4327 89.4022 16.4522 89.424C16.6725 89.6626 16.8315 89.9525 16.9151 90.268C16.9988 90.5834 17.0045 90.9149 16.9319 91.2332C16.8758 91.4791 16.7724 91.7115 16.6276 91.917C16.4828 92.1225 16.2995 92.2971 16.088 92.4308C15.8766 92.5646 15.6412 92.6549 15.3953 92.6965C15.1494 92.7382 14.8978 92.7304 14.6548 92.6736C14.4119 92.6169 14.1824 92.5122 13.9794 92.3656C13.7764 92.219 13.604 92.0334 13.4718 91.8194C13.3397 91.6053 13.2505 91.367 13.2094 91.118C13.1682 90.8691 13.1759 90.6144 13.232 90.3684C13.3744 89.7927 13.6757 89.2699 14.1006 88.861C14.5255 88.4521 15.0566 88.174 15.6317 88.0593L15.6305 88.0596Z" stroke="#DAD6E9" stroke-linecap="round" stroke-linejoin="round"/>
<path d="M15.256 86.72L15.3727 85.9652C15.3815 85.8566 15.3507 85.7485 15.2861 85.6613C15.2215 85.5742 15.1276 85.514 15.0222 85.4922L10.3763 84.4063C10.2718 84.3776 10.1605 84.3893 10.064 84.439C9.96757 84.4887 9.8928 84.573 9.85426 84.6754L8.26942 89.9357L8.17222 90.3619C8.13414 90.5684 8.17823 90.7818 8.29488 90.9556C8.41153 91.1293 8.59129 91.2494 8.79498 91.2895L11.9791 92.0337" stroke="#DAD6E9" stroke-linecap="round" stroke-linejoin="round"/>
<path d="M8.33301 89.6836L11.6992 90.4704" stroke="#DAD6E9" stroke-linecap="round" stroke-linejoin="round"/>
<path d="M287.488 89.2845L287.912 87.426C287.941 87.2575 288.003 87.0968 288.095 86.9535C288.187 86.8103 288.307 86.6876 288.448 86.593C288.588 86.4983 288.746 86.4337 288.912 86.4031C289.078 86.3725 289.249 86.3766 289.413 86.415C289.578 86.4534 289.733 86.5255 289.869 86.6267C290.005 86.7279 290.119 86.8561 290.204 87.0036C290.29 87.151 290.345 87.3146 290.365 87.4842C290.386 87.6538 290.372 87.8259 290.325 87.9899L289.901 89.8484" stroke="#DAD6E9" stroke-linecap="round" stroke-linejoin="round"/>
<path d="M292.115 91.6562C292.157 91.6494 292.2 91.6558 292.237 91.6745C292.275 91.6932 292.307 91.7234 292.327 91.7608C292.347 91.7982 292.355 91.8411 292.351 91.8835C292.346 91.9259 292.328 91.9658 292.3 91.9977C292.09 92.2168 291.962 92.5032 291.937 92.8077C291.913 93.1121 291.994 93.4157 292.166 93.6664C292.374 93.5353 292.547 93.3544 292.669 93.1398C292.686 93.1127 292.708 93.0899 292.735 93.073C292.761 93.0562 292.791 93.0458 292.823 93.0426C292.853 93.0393 292.884 93.0433 292.913 93.0544C292.942 93.0655 292.968 93.0834 292.989 93.1065C293.223 93.3602 293.392 93.6683 293.481 94.0036C293.57 94.339 293.576 94.6913 293.499 95.0296C293.439 95.291 293.329 95.538 293.175 95.7564C293.021 95.9749 292.826 96.1605 292.602 96.3026C292.377 96.4448 292.127 96.5408 291.865 96.5851C291.604 96.6294 291.336 96.6211 291.078 96.5607C290.82 96.5004 290.576 96.3891 290.36 96.2333C290.144 96.0775 289.961 95.8802 289.821 95.6527C289.68 95.4251 289.585 95.1718 289.542 94.9072C289.498 94.6426 289.506 94.3718 289.566 94.1104C289.717 93.4984 290.037 92.9427 290.489 92.5081C290.941 92.0734 291.505 91.7779 292.117 91.6559L292.115 91.6562Z" stroke="#DAD6E9" stroke-linecap="round" stroke-linejoin="round"/>
<path d="M291.716 90.2323L291.84 89.43C291.85 89.3145 291.817 89.1996 291.748 89.1069C291.68 89.0143 291.58 88.9503 291.468 88.9271L286.529 87.7729C286.418 87.7424 286.3 87.7548 286.197 87.8076C286.095 87.8605 286.015 87.9501 285.974 88.059L284.29 93.6503L284.187 94.1034C284.146 94.3229 284.193 94.5498 284.317 94.7345C284.441 94.9191 284.632 95.0467 284.849 95.0894L288.233 95.8805" stroke="#DAD6E9" stroke-linecap="round" stroke-linejoin="round"/>
<path d="M284.358 93.3828L287.937 94.2191" stroke="#DAD6E9" stroke-linecap="round" stroke-linejoin="round"/>
<path d="M95.847 87.9802L96.1933 86.4616C96.2166 86.324 96.2675 86.1926 96.3427 86.0756C96.4179 85.9586 96.516 85.8583 96.6308 85.781C96.7456 85.7036 96.8749 85.6509 97.0106 85.6258C97.1463 85.6008 97.2856 85.6041 97.42 85.6356C97.5544 85.667 97.681 85.7258 97.7922 85.8085C97.9033 85.8912 97.9966 85.996 98.0663 86.1165C98.1361 86.237 98.1808 86.3706 98.1977 86.5092C98.2146 86.6478 98.2034 86.7884 98.1648 86.9224L97.8185 88.441" stroke="#DAD6E9" stroke-linecap="round" stroke-linejoin="round"/>
<path d="M99.6278 89.9184C99.6618 89.9128 99.6967 89.9181 99.7276 89.9334C99.7586 89.9487 99.7841 89.9733 99.8007 90.0039C99.8172 90.0345 99.824 90.0695 99.8201 90.1042C99.8162 90.1388 99.8018 90.1714 99.7789 90.1974C99.6072 90.3765 99.5023 90.6105 99.4823 90.8593C99.4623 91.108 99.5284 91.3561 99.6692 91.561C99.839 91.4538 99.9802 91.306 100.08 91.1306C100.094 91.1085 100.112 91.0899 100.134 91.0761C100.156 91.0623 100.18 91.0538 100.206 91.0513C100.231 91.0485 100.256 91.0518 100.28 91.0609C100.303 91.07 100.324 91.0845 100.341 91.1034C100.533 91.3107 100.671 91.5625 100.744 91.8365C100.816 92.1105 100.821 92.3984 100.758 92.6748C100.709 92.8884 100.62 93.0902 100.494 93.2687C100.368 93.4472 100.209 93.5989 100.025 93.715C99.8415 93.8312 99.637 93.9096 99.4235 93.9458C99.2099 93.982 98.9914 93.9752 98.7803 93.9259C98.5693 93.8766 98.37 93.7857 98.1937 93.6584C98.0174 93.5311 97.8676 93.3699 97.7529 93.1839C97.6381 92.998 97.5606 92.791 97.5249 92.5748C97.4892 92.3586 97.4958 92.1374 97.5445 91.9237C97.6682 91.4237 97.9299 90.9696 98.299 90.6145C98.668 90.2593 99.1293 90.0178 99.6288 89.9181L99.6278 89.9184Z" stroke="#DAD6E9" stroke-linecap="round" stroke-linejoin="round"/>
<path d="M99.302 88.7549L99.4033 88.0994C99.411 88.005 99.3842 87.9111 99.3281 87.8354C99.272 87.7597 99.1905 87.7074 99.0989 87.6885L95.0637 86.7453C94.9729 86.7204 94.8763 86.7306 94.7925 86.7738C94.7087 86.817 94.6438 86.8901 94.6103 86.9791L93.2338 91.5478L93.1494 91.9181C93.1163 92.0974 93.1546 92.2828 93.2559 92.4337C93.3572 92.5846 93.5133 92.6888 93.6903 92.7237L96.4558 93.3701" stroke="#DAD6E9" stroke-linecap="round" stroke-linejoin="round"/>
<path d="M93.29 91.3291L96.2137 92.0124" stroke="#DAD6E9" stroke-linecap="round" stroke-linejoin="round"/>
</svg>
