<svg width="111" height="104" viewBox="0 0 111 104" fill="none" xmlns="http://www.w3.org/2000/svg">
<path opacity="0.2" d="M98.5305 12.2794C112.546 32.8429 117.577 84.4828 98.5305 98.6551C79.4844 112.827 36.3602 89.5329 22.3438 68.9694C8.32744 48.406 23.4219 30.5744 42.4691 16.4011C61.5162 2.22787 84.5152 -8.28405 98.5305 12.2794Z" fill="#EA002A"/>
<path d="M49.2618 102.098C75.3502 102.098 96.5235 80.9249 96.5235 54.8365C96.5235 28.748 75.3502 7.57471 49.2618 7.57471C23.1733 7.57471 2 28.748 2 54.8365C2 80.9249 23.1733 102.098 49.2618 102.098Z" stroke="#EA002A" stroke-width="3" stroke-linecap="round" stroke-linejoin="round"/>
<path d="M30.3555 73.741L68.1649 35.9316" stroke="#EA002A" stroke-width="3" stroke-linecap="round" stroke-linejoin="round"/>
<path d="M68.1649 73.741L30.3555 35.9316" stroke="#EA002A" stroke-width="3" stroke-linecap="round" stroke-linejoin="round"/>
</svg>
