<svg width="6" height="18" viewBox="0 0 6 18" fill="none" xmlns="http://www.w3.org/2000/svg">
<path d="M5 15.1306C5 14.1 4.10266 13.2613 3 13.2613C1.89734 13.2613 1 14.1 1 15.1306C1 16.1613 1.89734 17 3 17C4.11026 16.9929 5 16.1613 5 15.1306Z" stroke="#483493" stroke-width="1.5" stroke-linecap="round" stroke-linejoin="round"/>
<path d="M5 2.86892C5 1.83829 4.10266 0.999567 3 0.999567C1.89734 0.999567 1 1.83829 1 2.86892C1 3.89956 1.89734 4.73828 3 4.73828C4.11026 4.73117 5 3.89956 5 2.86892Z" stroke="#483493" stroke-width="1.5" stroke-linecap="round" stroke-linejoin="round"/>
<path d="M5 8.99588C5 7.96525 4.10266 7.12654 3 7.12654C1.89734 7.12654 1 7.96525 1 8.99588C1 10.0265 1.89734 10.8652 3 10.8652C4.11026 10.8652 5 10.0265 5 8.99588Z" stroke="#483493" stroke-width="1.5" stroke-linecap="round" stroke-linejoin="round"/>
</svg>
