<svg width="97" height="101" viewBox="0 0 97 101" fill="none" xmlns="http://www.w3.org/2000/svg">
<path opacity="0.16" d="M85.7414 10.362C98.3962 28.8667 102.939 75.3366 85.7414 88.0899C68.5441 100.843 29.606 79.8811 16.9503 61.3764C4.29452 42.8716 17.9237 26.8253 35.1219 14.071C52.3201 1.31673 73.0865 -8.14277 85.7414 10.362Z" fill="#FFC72A"/>
<path d="M58.2136 98.3989C62.2183 98.3989 66.1331 97.2113 69.4629 94.9864C72.7927 92.7615 75.388 89.5992 76.9205 85.8993C78.4531 82.1994 78.8541 78.1282 78.0728 74.2004C77.2915 70.2726 75.363 66.6647 72.5313 63.8329C69.6995 61.0012 66.0916 59.0727 62.1638 58.2914C58.2361 57.5101 54.1648 57.9111 50.4649 59.4437C46.765 60.9762 43.6027 63.5715 41.3778 66.9013C39.1529 70.2311 37.9653 74.1459 37.9653 78.1506C37.9653 83.5208 40.0986 88.671 43.8959 92.4683C47.6932 96.2656 52.8434 98.3989 58.2136 98.3989Z" stroke="#FFC72A" stroke-width="3" stroke-linecap="round" stroke-linejoin="round"/>
<path d="M68.3381 47.7781L68.3381 27.5298C68.3381 26.1873 67.8048 24.8997 66.8554 23.9504C65.9061 23.0011 64.6186 22.4678 63.276 22.4678L7.59332 22.4678C6.25077 22.4678 4.96322 23.0011 4.01389 23.9504C3.06457 24.8997 2.53125 26.1873 2.53125 27.5298L2.53125 68.0264C2.53125 69.3689 3.06457 70.6565 4.0139 71.6058C4.96322 72.5551 6.25077 73.0884 7.59332 73.0884L27.8416 73.0884" stroke="#FFC72A" stroke-width="3" stroke-linecap="round" stroke-linejoin="round"/>
<path d="M2.53125 37.6543L68.3381 37.6543" stroke="#FFC72A" stroke-width="3" stroke-linecap="round" stroke-linejoin="round"/>
<path d="M12.6553 50.3096L32.9035 50.3096" stroke="#FFC72A" stroke-width="3" stroke-linecap="round" stroke-linejoin="round"/>
<path d="M12.6553 60.4336L22.7794 60.4336" stroke="#FFC72A" stroke-width="3" stroke-linecap="round" stroke-linejoin="round"/>
<circle cx="49.2187" cy="77.8778" r="2.49209" fill="#FFC72A"/>
<circle cx="57.9408" cy="77.8778" r="2.49209" fill="#FFC72A"/>
<circle cx="66.6635" cy="77.8778" r="2.49209" fill="#FFC72A"/>
</svg>
