<svg width="101" height="113" viewBox="0 0 101 113" fill="none" xmlns="http://www.w3.org/2000/svg">
<path d="M71.1387 10.0301C83.3469 27.9421 87.7291 72.9235 71.1387 85.2684C54.5484 97.6133 16.9847 77.3225 4.77556 59.4104C-7.43353 41.4984 5.71466 25.9661 22.3059 13.6203C38.8971 1.27455 58.9305 -7.88196 71.1387 10.0301Z" fill="#C6FFE5"/>
<g clip-path="url(#clip0_1448_5533)">
<path d="M72.9121 109.367C77.8072 109.367 82.5924 107.916 86.6625 105.196C90.7326 102.477 93.9049 98.6111 95.7781 94.0886C97.6514 89.5661 98.1415 84.5897 97.1865 79.7887C96.2316 74.9877 93.8743 70.5777 90.413 67.1163C86.9517 63.655 82.5416 61.2977 77.7406 60.3428C72.9396 59.3878 67.9632 59.8779 63.4407 61.7512C58.9182 63.6244 55.0528 66.7967 52.3332 70.8668C49.6137 74.937 48.1621 79.7221 48.1621 84.6172C48.1621 91.1813 50.7697 97.4766 55.4112 102.118C60.0527 106.76 66.348 109.367 72.9121 109.367Z" stroke="#00D96F" stroke-width="3" stroke-linecap="round" stroke-linejoin="round"/>
<path d="M83.925 77.4395L71.88 93.4444C71.6061 93.7877 71.264 94.0704 70.8753 94.2747C70.4866 94.479 70.0598 94.6005 69.6217 94.6315C69.1837 94.6625 68.744 94.6024 68.3304 94.4548C67.9168 94.3073 67.5383 94.0757 67.2188 93.7744L61.1138 87.7107" stroke="#00D96F" stroke-width="3" stroke-linecap="round" stroke-linejoin="round"/>
<path d="M85.2871 47.4922L85.2871 22.7422C85.2871 21.1012 84.6352 19.5273 83.4748 18.367C82.3144 17.2066 80.7406 16.5547 79.0996 16.5547L11.0371 16.5547C9.39608 16.5547 7.82227 17.2066 6.66189 18.367C5.50151 19.5273 4.84961 21.1012 4.84961 22.7422L4.84961 72.2422C4.84961 73.8832 5.50151 75.457 6.66189 76.6174C7.82227 77.7778 9.39608 78.4297 11.0371 78.4297L35.7871 78.4297" stroke="#00D96F" stroke-width="3" stroke-linecap="round" stroke-linejoin="round"/>
<path d="M4.84961 35.1172L85.2871 35.1172" stroke="#00D96F" stroke-width="3" stroke-linecap="round" stroke-linejoin="round"/>
<path d="M17.2246 50.5859L41.9746 50.5859" stroke="#00D96F" stroke-width="3" stroke-linecap="round" stroke-linejoin="round"/>
<path d="M17.2246 62.9609L29.5996 62.9609" stroke="#00D96F" stroke-width="3" stroke-linecap="round" stroke-linejoin="round"/>
</g>
<defs>
<clipPath id="clip0_1448_5533">
<rect width="99" height="99" fill="white" transform="translate(1.75586 13.4609)"/>
</clipPath>
</defs>
</svg>
