<svg width="21" height="21" viewBox="0 0 21 21" fill="none" xmlns="http://www.w3.org/2000/svg">
<path d="M10.5 -0.000976562C16.024 -0.000976562 20.502 4.47702 20.502 10.001C20.502 15.524 16.024 20.002 10.5 20.002C4.97605 20.002 0.498047 15.524 0.498047 10.001C0.498047 4.47702 4.97605 -0.000976562 10.5 -0.000976562ZM10.496 8.24902C10.251 8.24936 10.0146 8.33967 9.8317 8.50282C9.64882 8.66596 9.53223 8.89058 9.50405 9.13402L9.49705 9.25002L9.50005 14.752L9.50705 14.869C9.53524 15.1129 9.65216 15.3379 9.83554 15.5011C10.0189 15.6644 10.2559 15.7544 10.5014 15.7542C10.7469 15.7539 10.9838 15.6634 11.1668 15.4998C11.3499 15.3362 11.4663 15.111 11.494 14.867L11.5 14.75L11.497 9.24902L11.49 9.13202C11.4611 8.88878 11.344 8.66461 11.1607 8.50203C10.9775 8.33946 10.741 8.24978 10.496 8.25002V8.24902ZM10.5 4.50002C10.1681 4.50002 9.8498 4.63188 9.6151 4.86658C9.3804 5.10128 9.24855 5.41961 9.24855 5.75152C9.24855 6.08344 9.3804 6.40177 9.6151 6.63647C9.8498 6.87117 10.1681 7.00302 10.5 7.00302C10.832 7.00302 11.1503 6.87117 11.385 6.63647C11.6197 6.40177 11.7515 6.08344 11.7515 5.75152C11.7515 5.41961 11.6197 5.10128 11.385 4.86658C11.1503 4.63188 10.832 4.50002 10.5 4.50002Z" fill="current"/>
</svg>
