<svg id="Layer_1" data-name="Layer 1" xmlns="http://www.w3.org/2000/svg" viewBox="0 0 1118 401"><defs><style>.cls-1{fill:#483493;}</style></defs><path class="cls-1" d="M218.67-.08H182.56A10.59,10.59,0,0,0,172,10.5V85.81H79.12a79.72,79.72,0,0,0-15.56,1.53A82.9,82.9,0,0,0,.21,167.88V232a82.88,82.88,0,0,0,82.87,82.86H138.7a10.54,10.54,0,0,0,6.24-2,9.65,9.65,0,0,0,1.25-1.05v0L172,285.84v18.43a10.61,10.61,0,0,0,10.58,10.57h35.24a11.88,11.88,0,0,0,11.25-8,8.08,8.08,0,0,0,.17-1.78V10.5A10.58,10.58,0,0,0,218.67-.08M172,257.57H82a24.52,24.52,0,0,1-24.52-24.51V167.58A24.53,24.53,0,0,1,82,143.05h90Z"/><path class="cls-1" d="M561.34,86H526.09a10.58,10.58,0,0,0-10.57,10.58v17.88l-.17-.21L490.19,89.07A12.18,12.18,0,0,0,482.72,86H426.61a82.84,82.84,0,0,0-82.85,82.85V233a82.9,82.9,0,0,0,63.34,80.54A80.68,80.68,0,0,0,422.67,315h92.85v1.38a27,27,0,0,1-3.09,13,27.45,27.45,0,0,1-24.12,14.3H417.8c-14.85,0-22.4,17.92-11.95,28.47,8.16,8.32,16.48,16.8,22.61,23.07a16.79,16.79,0,0,0,12,5H488.5a84.35,84.35,0,0,0,28.72-5c32.68-11.85,55.54-43.42,55.54-80.49v-219A8.61,8.61,0,0,0,572.6,94a11.9,11.9,0,0,0-11.26-8M515.52,257.6h-90A24.53,24.53,0,0,1,401,233.07V167.6a24.52,24.52,0,0,1,24.53-24.52h90Z"/><path class="cls-1" d="M304.55,85.81H268.44a10.58,10.58,0,0,0-10.57,10.58V304.27a10.57,10.57,0,0,0,10.57,10.57h36.11a10.58,10.58,0,0,0,10.58-10.57V96.39a10.59,10.59,0,0,0-10.58-10.58"/><path class="cls-1" d="M310.35,1.35H274.49A10.51,10.51,0,0,0,264,11.86V47.7a10.51,10.51,0,0,0,10.49,10.51h35.86A10.52,10.52,0,0,0,320.86,47.7V11.86A10.52,10.52,0,0,0,310.35,1.35"/><path class="cls-1" d="M648.08,85.81H612A10.58,10.58,0,0,0,601.4,96.39V304.27A10.57,10.57,0,0,0,612,314.84h36.11a10.57,10.57,0,0,0,10.58-10.57V96.39a10.58,10.58,0,0,0-10.58-10.58"/><path class="cls-1" d="M651.43,1.35H615.58a10.51,10.51,0,0,0-10.5,10.51V47.7a10.51,10.51,0,0,0,10.5,10.51h35.85A10.51,10.51,0,0,0,661.94,47.7V11.86A10.51,10.51,0,0,0,651.43,1.35"/><path class="cls-1" d="M849.85,85.6H773.08V56.85h76.78a10.57,10.57,0,0,0,10.57-10.57V10.17A10.58,10.58,0,0,0,849.86-.41H794.71a82.36,82.36,0,0,0-15.57,1.51,75.42,75.42,0,0,0-8.36,2.52,82.93,82.93,0,0,0-55,78v3.88h-18A10.58,10.58,0,0,0,687.19,96.1v36.09a10.58,10.58,0,0,0,10.58,10.58h18V304a10.62,10.62,0,0,0,10.61,10.59h36.06A10.61,10.61,0,0,0,773.08,304V153.43c0-.27,0-5.42,0-10.51H812.7v-.06h37.15a10.57,10.57,0,0,0,10.59-10.55V96.2a10.62,10.62,0,0,0-10.59-10.6"/><path class="cls-1" d="M1118.11,93.92a11.81,11.81,0,0,0-11.24-8H1071.6A10.65,10.65,0,0,0,1061,96.54V257.68H970.91a24.47,24.47,0,0,1-24.56-24.49V96.54a10.62,10.62,0,0,0-10.62-10.62H899.62A10.62,10.62,0,0,0,889,96.54V233a83.13,83.13,0,0,0,63.44,80.68,86.4,86.4,0,0,0,15.64,1.46H1061v1.39a26.72,26.72,0,0,1-3.07,13.09,27.6,27.6,0,0,1-24.18,14.24H963.19c-14.89,0-22.42,17.93-12,28.56,8.17,8.32,16.49,16.79,22.66,23.12a16.53,16.53,0,0,0,11.85,5H1034a84.5,84.5,0,0,0,28.73-5c32.71-11.86,55.65-43.5,55.65-80.6V95.69a6.31,6.31,0,0,0-.23-1.77"/></svg>