<svg width="90" height="83" viewBox="0 0 90 83" fill="none" xmlns="http://www.w3.org/2000/svg">
<path opacity="0.1" d="M79.9335 9.34829C91.2484 26.0428 95.3099 67.9667 79.9335 79.4724C64.5571 90.9782 29.7419 72.0666 18.4261 55.3721C7.11039 38.6777 19.2965 24.2011 34.6737 12.6945C50.051 1.18792 68.6185 -7.3462 79.9335 9.34829Z" fill="#EA002A"/>
<path d="M37.4623 55.6406C36.8004 55.6406 36.2646 56.1765 36.2646 56.8383C36.2646 57.5002 36.8004 58.036 37.4623 58.036C38.1242 58.036 38.66 57.5002 38.66 56.8383C38.6285 56.1449 38.1242 55.6406 37.4623 55.6406Z" stroke="#EA002A" stroke-width="3" stroke-linecap="round" stroke-linejoin="round"/>
<path d="M37.4619 46.1852V20.1826" stroke="#EA002A" stroke-width="3" stroke-linecap="round"/>
<path d="M37.458 76.916C57.0308 76.916 72.916 61.0308 72.916 41.458C72.916 21.8852 57.0308 6 37.458 6C17.8852 6 2 21.8852 2 41.458C2 61.0308 17.8852 76.916 37.458 76.916Z" stroke="#EA002A" stroke-width="3"/>
</svg>
