<svg width="70" height="15" viewBox="0 0 70 15" fill="none" xmlns="http://www.w3.org/2000/svg">
<path d="M69.9996 7.53442H66.1777V11.3156H69.9996V7.53442Z" fill="#C9C3E0"/>
<path d="M16.1073 3.02808V4.16063C15.7763 3.81121 15.3768 3.53217 14.9332 3.34054C14.4895 3.14891 14.0111 3.04871 13.5271 3.04605C11.4415 3.04605 9.74556 4.91366 9.74556 7.21472C9.74556 9.51578 11.4496 11.2635 13.5271 11.2635C14.0098 11.2598 14.4866 11.1591 14.9288 10.9675C15.3709 10.7759 15.7691 10.4974 16.0992 10.149V11.2635H18.522V3.02808H16.1073ZM13.9309 9.51777C12.8588 9.51777 11.9927 8.51905 11.9927 7.25866C11.9927 5.99828 12.8608 4.99356 13.9309 4.99356C15.0009 4.99356 15.8731 6.00627 15.8731 7.25467C15.8731 8.50307 15.005 9.51777 13.9309 9.51777Z" fill="#C9C3E0"/>
<path d="M5.7823 0H0V11.2676H2.42275V7.8939H5.7823C6.84037 7.8939 7.85511 7.47806 8.60328 6.73787C9.35145 5.99767 9.77176 4.99375 9.77176 3.94695C9.77176 2.90015 9.35145 1.89623 8.60328 1.15604C7.85511 0.415838 6.84037 0 5.7823 0V0ZM5.7823 5.64278C5.72735 5.64915 5.67207 5.65249 5.61675 5.65277H2.42275V2.24113H5.61675C5.67189 2.23809 5.72716 2.23809 5.7823 2.24113C6.21255 2.27693 6.61351 2.47131 6.90575 2.78576C7.19798 3.10021 7.36016 3.51179 7.36016 3.93896C7.36016 4.36613 7.19798 4.77771 6.90575 5.09216C6.61351 5.40661 6.21255 5.60099 5.7823 5.63679V5.64278Z" fill="#C9C3E0"/>
<path d="M28.5744 3.04417L25.334 14.3377H22.9072L23.7814 11.2976L23.7834 11.2936L21.9704 11.2976L19.6869 3.03418H22.1016L23.9247 9.36408H24.3366L26.1597 3.03418L28.5744 3.04417Z" fill="#C9C3E0"/>
<path d="M61.7906 3.03421V4.11483C61.4601 3.77147 61.0622 3.49851 60.6213 3.31269C60.1804 3.12687 59.7058 3.03211 59.2265 3.03421C57.1369 3.03421 55.4389 4.86787 55.4389 7.16892C55.4389 9.46998 57.1369 11.2697 59.2265 11.2697C59.7033 11.2776 60.1767 11.189 60.6176 11.0094C61.0586 10.8297 61.4577 10.5628 61.7906 10.225V12.3843H56.6544V14.3358H64.2093V3.03421H61.7906ZM59.6041 9.51792C58.536 9.51792 57.6659 8.5192 57.6659 7.25881C57.6659 5.99842 58.5401 4.99371 59.6041 4.99371C60.6681 4.99371 61.5463 6.00641 61.5463 7.25481C61.5463 8.50322 60.6761 9.51792 59.6041 9.51792Z" fill="#C9C3E0"/>
<path d="M36.139 0H30.3607V11.2676H32.7835V7.8939H36.139C37.1971 7.8939 38.2118 7.47806 38.96 6.73787C39.7081 5.99767 40.1285 4.99375 40.1285 3.94695C40.1285 2.90015 39.7081 1.89623 38.96 1.15604C38.2118 0.415838 37.1971 0 36.139 0V0ZM36.139 5.64278C36.0841 5.64922 36.0288 5.65255 35.9734 5.65277H32.7754V2.24113H35.9755C36.0306 2.23803 36.0859 2.23803 36.141 2.24113C36.5713 2.27693 36.9722 2.47131 37.2645 2.78576C37.5567 3.10021 37.7189 3.51179 37.7189 3.93896C37.7189 4.36613 37.5567 4.77771 37.2645 5.09216C36.9722 5.40661 36.5713 5.60099 36.141 5.63679L36.139 5.64278Z" fill="#C9C3E0"/>
<path d="M53.3006 6.79138V11.2677H50.8778V6.79138C50.8778 6.3146 50.6864 5.85735 50.3456 5.52021C50.0048 5.18308 49.5427 4.99368 49.0607 4.99368C48.5788 4.99368 48.1166 5.18308 47.7759 5.52021C47.4351 5.85735 47.2437 6.3146 47.2437 6.79138V11.2677H44.8209V3.03418H47.2437V4.2746C47.7706 3.42568 48.8387 3.03418 50.0218 3.03418C50.4427 3.03354 50.8597 3.11428 51.2493 3.27188C51.8512 3.51404 52.3662 3.92869 52.7281 4.46258C53.09 4.99647 53.2823 5.62521 53.2804 6.26805C53.2804 6.42984 53.3006 6.79138 53.3006 6.79138Z" fill="#C9C3E0"/>
<path d="M43.6766 3.02026H41.2619V11.2697H43.6766V3.02026Z" fill="#C9C3E0"/>
<path d="M43.6766 0H41.2619V2.39094H43.6766V0Z" fill="#C9C3E0"/>
</svg>
