<svg width="28" height="24" viewBox="0 0 28 24" fill="none" xmlns="http://www.w3.org/2000/svg">
<path d="M22.169 1.70401C21.8405 1.25814 21.3125 1 20.761 1L6.68102 1C6.12955 1 5.60157 1.25814 5.27304 1.70401L1.35408 6.92532C0.861276 7.58239 0.884764 8.48587 1.41276 9.10774L12.3717 22.3664C12.7002 22.7653 13.2048 23 13.721 23C14.2373 23 14.7418 22.7653 15.0703 22.3664L26.0293 9.10774C26.5573 8.48587 26.569 7.58239 26.088 6.92532L22.169 1.70401Z" stroke="#6D5DA9" stroke-width="1.5" stroke-linecap="round" stroke-linejoin="round"/>
<path d="M5.87036 1.19873L13.72 22.9993" stroke="#6D5DA9" stroke-width="1.5" stroke-linecap="round" stroke-linejoin="round"/>
<path d="M21.5703 1.19873L13.7207 22.9993" stroke="#6D5DA9" stroke-width="1.5" stroke-linecap="round" stroke-linejoin="round"/>
<path d="M1.00195 8.05078L26.4281 8.05078" stroke="#6D5DA9" stroke-width="1.5" stroke-linecap="round" stroke-linejoin="round"/>
<path d="M8.43921 8.05269L13.7192 1.0127L18.9992 8.05269" stroke="#6D5DA9" stroke-width="1.5" stroke-linecap="round" stroke-linejoin="round"/>
</svg>
