<svg width="16" height="16" viewBox="0 0 16 16" fill="none" xmlns="http://www.w3.org/2000/svg">
<path d="M8 16C9.58225 16 11.129 15.5308 12.4446 14.6518C13.7602 13.7727 14.7855 12.5233 15.391 11.0615C15.9965 9.59966 16.155 7.99113 15.8463 6.43928C15.5376 4.88743 14.7757 3.46197 13.6569 2.34315C12.538 1.22433 11.1126 0.462403 9.56072 0.153721C8.00887 -0.15496 6.40034 0.00346629 4.93853 0.608967C3.47672 1.21447 2.22729 2.23985 1.34824 3.55544C0.469192 4.87104 0 6.41775 0 8C0 10.1217 0.842854 12.1566 2.34315 13.6569C3.84344 15.1572 5.87827 16 8 16Z" fill="black"/>
<path d="M5.86719 5.86659C5.86739 5.47553 5.97508 5.09205 6.1785 4.75805C6.38191 4.42406 6.67321 4.1524 7.02057 3.97277C7.36793 3.79313 7.75799 3.71243 8.14811 3.73949C8.53823 3.76654 8.91342 3.90031 9.23266 4.12617C9.5519 4.35204 9.80291 4.6613 9.95827 5.02018C10.1136 5.37905 10.1674 5.77373 10.1136 6.16107C10.0598 6.54842 9.9006 6.91353 9.65335 7.21651C9.4061 7.51949 9.08033 7.74868 8.71163 7.87903C8.50415 7.95239 8.32443 8.08813 8.19712 8.26763C8.06981 8.44714 8.00114 8.66163 8.00052 8.8817V9.59281" stroke="white" stroke-linecap="round" stroke-linejoin="round"/>
<path d="M7.99842 11.3359C7.77744 11.336 7.56149 11.402 7.37819 11.5254C7.19489 11.6489 7.05256 11.8241 6.96939 12.0289C6.88622 12.2336 6.86599 12.4585 6.91129 12.6748C6.95658 12.8911 7.06535 13.089 7.22368 13.2431C7.38201 13.3973 7.58271 13.5007 7.80014 13.5403C8.01756 13.5798 8.24183 13.5536 8.44428 13.465C8.64673 13.3764 8.81815 13.2294 8.93666 13.0429C9.05516 12.8563 9.11535 12.6387 9.10953 12.4178C9.10191 12.1282 8.98149 11.8531 8.77394 11.651C8.56638 11.4489 8.28811 11.3358 7.99842 11.3359Z" fill="white"/>
</svg>
