<svg id="Layer_1" data-name="Layer 1" xmlns="http://www.w3.org/2000/svg" viewBox="0 0 258 338"><defs><style>.cls-1{fill:#fff;}</style></defs><path class="cls-1" d="M72.49,65.82c0,7.51-.09,24.59-.09,24.59a67.5,67.5,0,0,1-1.72,8.11,36,36,0,0,1-3.25,7.21A35.18,35.18,0,0,1,52.25,119s-7.09,3.11-22.74,3.13H28.06c-.22,0-.54,0-.92,0a5.37,5.37,0,0,0-1.23.21,2.92,2.92,0,0,0-1,.49,2.69,2.69,0,0,0-.59.68,3.93,3.93,0,0,0-.58,1.36s0,38.72,0,80q0,35.85,0,71.69v18.35a35.27,35.27,0,0,0,.53,3.87,16,16,0,0,0,1.21,3.51,20.4,20.4,0,0,0,6.34,7.81,16.56,16.56,0,0,0,5.11,2.7,36,36,0,0,0,5.89,1.11l10.8,0c29.44-.07,47.59,0,70.74.05,28.41.06,113.64,0,85.23.05,0,0,3,0,4.26,0a23.41,23.41,0,0,0,7-1.11,20.09,20.09,0,0,0,8-5.37,19.44,19.44,0,0,0,3.41-5.14A23.42,23.42,0,0,0,234,295V276.62c0-103.73,0-119.12,0-149.9V125a3.51,3.51,0,0,0-4.34-2.77c-6.8,0-11.32-.47-11.32-.47a44.92,44.92,0,0,1-8.75-1.41,34.25,34.25,0,0,1-13.69-7.7,37.38,37.38,0,0,1-7.19-9.81,35.38,35.38,0,0,1-1.4-3.41,39.44,39.44,0,0,1-1.19-4.48,31.38,31.38,0,0,1-.79-4.43,22.47,22.47,0,0,1,0-3.53l0-9.09s0-11.94,0-12c-5.58-33.75-9.61-58-10.28-60.65,0,0-.72-2.88.37-4.24a4.37,4.37,0,0,1,.8-.74,3.46,3.46,0,0,1,1.2-.55,7.34,7.34,0,0,1,1-.12h40.11A8.38,8.38,0,0,1,222,.41a9.82,9.82,0,0,1,3.35,2.85,14.34,14.34,0,0,1,1.78,2.68c2.58,5,19.45,38.12,20.91,41s2.28,4.44,2.41,4.68c1.06,2,4.45,8.13,5.39,10.46.09.21.43,1.06.78,2.12.17.48.28.85.39,1.23.15.53.24.94.27,1.08s.19.83.31,1.7a25.09,25.09,0,0,1,.21,2.58s0,25.93,0,52.37c0,6.44,0,22.53,0,25.45,0,0,0,49.71.31,119.74l0,27.26s-.39,4.57-.91,7.56a37.21,37.21,0,0,1-2.69,8.71,45.7,45.7,0,0,1-15.21,18.45,50.57,50.57,0,0,1-13.4,6.2c-1.81.5-2.71.65-2.71.65-1.3.22-4.84.69-4.85.69h0s-2.26.1-6.7.13c-11.74.07-101.1-.07-110.34-.07H63c-7.13,0-8.67.05-13.46,0-5.89,0-8.83-.05-10.08-.14A43.63,43.63,0,0,1,3,311a48.41,48.41,0,0,1-3-12.23c-.25-2.24-.26-5-.29-10.38,0-4.35,0-6.46.09-11,.05-6-.11-10,0-12.35h0s.36-58.73.18-188.19A43.73,43.73,0,0,1,.4,67.87,29.76,29.76,0,0,1,1.89,62a36.49,36.49,0,0,1,2.19-4.35C6.2,53.24,9.2,48,16.59,33.27h0C23.94,18.6,31,5.11,31,5.11A22.52,22.52,0,0,1,34.1,1.35c.25-.18.53-.36.53-.36A8.86,8.86,0,0,1,36.91-.13a9.83,9.83,0,0,1,2.4-.36H74.37s4.23,0,5.57,0h0a3.77,3.77,0,0,1,2.6,1.65c.89,1.54.2,4,.22,4s0-.09,0-.09c0,.15-4.66,27.47-4.68,27.62S72.52,65.6,72.49,65.82Z"/><path class="cls-1" d="M165.47,63.74c-.05,28.14-.05,29.77-.05,29.77h0s-.07.63-.07.65a25.07,25.07,0,0,1-1.16,3.68c-.08.21-.2.54-.35.92-.23.58-.57,1.37-1,2.26a45.1,45.1,0,0,1-9.05,12.28,37.54,37.54,0,0,1-24.12,9.8,40.54,40.54,0,0,1-34.35-21.92,23.1,23.1,0,0,1-2.42-7.43c0-.12,0-.22,0-.27v-.31c0-1.86,0-11.91-.08-29.33,3.53-20.35,6.23-35.91,8-46.38,0-.16,2.43-14,2.45-14.15h0A6.39,6.39,0,0,1,105.37.2a4.26,4.26,0,0,1,1.53-.6,3.9,3.9,0,0,1,.73,0h44s.69.12,1.11.25A3,3,0,0,1,154,.5a3.77,3.77,0,0,1,.87,2l2.64,15.28Q161.5,40.77,165.47,63.74Z"/><path class="cls-1" d="M203.79,239.77c-5.55,5.33-32.13,29.69-73.79,30s-68.48-23.46-74.14-28.71a12.35,12.35,0,0,1-3-7.32c0-.74-.22-5.91,3.7-9.24,4.65-3.95,11-1.83,12.15-1.43a14.66,14.66,0,0,1,4.8,2.72c5,4.37,25.18,21.14,55.76,21.16,33.39,0,54.77-20,59-24.11a9.82,9.82,0,0,1,1-.44,12.07,12.07,0,0,1,11,1.73c4.77,3.54,5.64,10,4.15,14.16A10.55,10.55,0,0,1,203.79,239.77Z"/><path class="cls-1" d="M185.47,65.82c0,7.51.09,24.59.09,24.59a66.53,66.53,0,0,0,1.71,8.11,35.75,35.75,0,0,0,3.26,7.21A35.2,35.2,0,0,0,205.7,119s7.1,3.11,22.75,3.13h1.44c.23,0,.55,0,.93,0a5.56,5.56,0,0,1,1.23.21,3,3,0,0,1,1,.49,2.69,2.69,0,0,1,.59.68,4.14,4.14,0,0,1,.58,1.36s0,38.72,0,80q0,35.85,0,71.69v18.35a34.09,34.09,0,0,1-.52,3.87,16.56,16.56,0,0,1-1.21,3.51,20.49,20.49,0,0,1-6.34,7.81,16.56,16.56,0,0,1-5.11,2.7,36,36,0,0,1-5.89,1.11l-10.81,0c-29.43-.07-47.59,0-70.74.05-28.41.06-113.63,0-85.22.05,0,0-3,0-4.26,0a23.37,23.37,0,0,1-7-1.11,20.16,20.16,0,0,1-8-5.37,19.28,19.28,0,0,1-3.4-5.14A23.42,23.42,0,0,1,24,295V276.62c0-103.73,0-119.12,0-149.9V125a4.81,4.81,0,0,1,1.17-2,4.81,4.81,0,0,1,3.16-.73c6.81,0,11.33-.47,11.33-.47a45,45,0,0,0,8.75-1.41,34.33,34.33,0,0,0,13.69-7.7,37.38,37.38,0,0,0,7.19-9.81,35.38,35.38,0,0,0,1.4-3.41,37.52,37.52,0,0,0,1.18-4.48,31.63,31.63,0,0,0,.8-4.43,22.47,22.47,0,0,0,0-3.53l0-9.09s0-11.94,0-12c5.57-33.75,9.6-58,10.28-60.65,0,0,.72-2.88-.37-4.24a4.26,4.26,0,0,0-.81-.74,3.29,3.29,0,0,0-1.2-.55,7.34,7.34,0,0,0-1-.12H39.57A8.44,8.44,0,0,0,36,.41a9.92,9.92,0,0,0-3.35,2.85,14.09,14.09,0,0,0-1.77,2.68c-2.59,5-19.45,38.12-20.92,41s-2.27,4.44-2.4,4.68c-1.07,2-4.46,8.13-5.4,10.46-.08.21-.42,1.06-.78,2.12-.16.48-.28.85-.38,1.23-.15.53-.25.94-.28,1.08s-.18.83-.3,1.7a20.47,20.47,0,0,0-.21,2.58s0,25.93,0,52.37c0,6.44,0,22.53,0,25.45,0,0,0,49.71-.3,119.74l0,27.26s.38,4.57.9,7.56a37.7,37.7,0,0,0,2.69,8.71,45.61,45.61,0,0,0,15.22,18.45,50.57,50.57,0,0,0,13.4,6.2c1.8.5,2.7.65,2.7.65,1.3.22,4.84.69,4.85.69h0s2.25.1,6.69.13c11.74.07,101.11-.07,110.34-.07h38.13c7.14,0,8.67.05,13.46,0,5.89,0,8.84-.05,10.09-.14A43.6,43.6,0,0,0,255,311a48.59,48.59,0,0,0,3-12.23c.25-2.24.26-5,.28-10.38,0-4.35,0-6.46-.08-11-.06-6,.11-10,0-12.35h0c0-104.59-.68-149.64-.25-167,.18-7-.27-14.12.06-21.17a44.41,44.41,0,0,0-.19-6.66,32.15,32.15,0,0,0-1.39-7,27.74,27.74,0,0,0-2.59-5.49c-2.5-4.36-4.62-8.93-6.92-13.39-1.53-3-3.36-6.54-5.58-11h0C234,18.6,227,5.11,227,5.11a22.52,22.52,0,0,0-3.11-3.76c-.25-.18-.53-.36-.53-.36A9,9,0,0,0,221-.13a9.77,9.77,0,0,0-2.4-.36H183.58s-4.22,0-5.57,0h0a3.83,3.83,0,0,0-2.6,1.65c-.88,1.54-.2,4-.22,4V5.08c0,.15,4.65,27.47,4.68,27.62S185.43,65.6,185.47,65.82Z"/></svg>