<svg width="20" height="20" viewBox="0 0 20 20" fill="none" xmlns="http://www.w3.org/2000/svg">
<path d="M15.0977 8.80454H4.90227C2.75123 8.79654 1.008 7.05331 1 4.90227C1.008 2.75122 2.75123 1.008 4.90227 1H15.0977C17.2488 1.008 18.992 2.75122 19 4.90227C18.992 7.05331 17.2488 8.79654 15.0977 8.80454Z" stroke="#483493" stroke-width="1.5" stroke-linecap="round" stroke-linejoin="round"/>
<path d="M15.0977 18.9998H4.90227C2.75123 18.9919 1.008 17.2486 1 15.0976C1.008 12.9465 2.75123 11.2033 4.90227 11.1953H15.0977C17.2488 11.2033 18.992 12.9465 19 15.0976C18.992 17.2486 17.2488 18.9919 15.0977 18.9998Z" stroke="#483493" stroke-width="1.5" stroke-linecap="round" stroke-linejoin="round"/>
<path d="M4.90275 6.4056C5.73438 6.4056 6.40607 5.73389 6.40607 4.90226C6.40607 4.07063 5.73438 3.39893 4.90275 3.39893C4.07112 3.39893 3.39941 4.07063 3.39941 4.90226C3.40741 5.73389 4.07912 6.4056 4.90275 6.4056Z" stroke="#483493" stroke-width="1.5" stroke-linecap="round" stroke-linejoin="round"/>
<path d="M15.0981 16.6009C15.9297 16.6009 16.6014 15.9292 16.6014 15.0976C16.6014 14.2659 15.9297 13.5942 15.0981 13.5942C14.2664 13.5942 13.5947 14.2659 13.5947 15.0976C13.6027 15.9292 14.2744 16.6009 15.0981 16.6009Z" stroke="#483493" stroke-width="1.5" stroke-linecap="round" stroke-linejoin="round"/>
</svg>
