<svg width="6" height="18" viewBox="0 0 6 18" fill="none" xmlns="http://www.w3.org/2000/svg">
<path d="M5 15.1306C5 14.1 4.10266 13.2613 3 13.2613C1.89734 13.2613 1 14.1 1 15.1306C1 16.1613 1.89734 17 3 17C4.11026 16.9929 5 16.1613 5 15.1306Z" stroke="#483493" stroke-width="1.5" stroke-linecap="round" stroke-linejoin="round"/>
<path d="M5 2.86941C5 1.83878 4.10266 1.00006 3 1.00006C1.89734 1.00006 1 1.83878 1 2.86941C1 3.90004 1.89734 4.73877 3 4.73877C4.11026 4.73166 5 3.90004 5 2.86941Z" stroke="#483493" stroke-width="1.5" stroke-linecap="round" stroke-linejoin="round"/>
<path d="M5 8.99637C5 7.96573 4.10266 7.12703 3 7.12703C1.89734 7.12703 1 7.96573 1 8.99637C1 10.027 1.89734 10.8657 3 10.8657C4.11026 10.8657 5 10.027 5 8.99637Z" stroke="#483493" stroke-width="1.5" stroke-linecap="round" stroke-linejoin="round"/>
</svg>
