
<svg width="21" height="21" viewBox="0 0 21 21" fill="none" xmlns="http://www.w3.org/2000/svg">
<path d="M10.5 0.499023C16.024 0.499023 20.502 4.97702 20.502 10.501C20.502 16.024 16.024 20.502 10.5 20.502C4.97605 20.502 0.498047 16.024 0.498047 10.501C0.498047 4.97702 4.97605 0.499023 10.5 0.499023ZM10.496 8.74902C10.251 8.74936 10.0146 8.83967 9.8317 9.00282C9.64882 9.16596 9.53223 9.39058 9.50405 9.63402L9.49705 9.75002L9.50005 15.252L9.50705 15.369C9.53524 15.6129 9.65216 15.8379 9.83554 16.0011C10.0189 16.1644 10.2559 16.2544 10.5014 16.2542C10.7469 16.2539 10.9838 16.1634 11.1668 15.9998C11.3499 15.8362 11.4663 15.611 11.494 15.367L11.5 15.25L11.497 9.74902L11.49 9.63202C11.4611 9.38878 11.344 9.16461 11.1607 9.00203C10.9775 8.83946 10.741 8.74978 10.496 8.75002V8.74902ZM10.5 5.00002C10.1681 5.00002 9.8498 5.13188 9.6151 5.36658C9.3804 5.60128 9.24855 5.91961 9.24855 6.25152C9.24855 6.58344 9.3804 6.90177 9.6151 7.13647C9.8498 7.37117 10.1681 7.50302 10.5 7.50302C10.832 7.50302 11.1503 7.37117 11.385 7.13647C11.6197 6.90177 11.7515 6.58344 11.7515 6.25152C11.7515 5.91961 11.6197 5.60128 11.385 5.36658C11.1503 5.13188 10.832 5.00002 10.5 5.00002Z" fill="#0F62FE"/>
</svg>
