<svg width="20" height="20" viewBox="0 0 20 20" fill="none" xmlns="http://www.w3.org/2000/svg">
<path d="M4.31146 5.79987C5.01445 5.79987 5.58191 5.26388 5.58191 4.59989C5.58191 3.9359 5.01445 3.3999 4.31146 3.3999C3.60848 3.3999 3.04102 3.9359 3.04102 4.59989C3.04102 5.26388 3.60848 5.79987 4.31146 5.79987Z" stroke="#9185BE" stroke-width="1.5" stroke-linecap="round" stroke-linejoin="round"/>
<path d="M4.31146 10.5997C5.01445 10.5997 5.58191 10.0637 5.58191 9.39969C5.58191 8.7357 5.01445 8.19971 4.31146 8.19971C3.60848 8.19971 3.04102 8.7357 3.04102 9.39969C3.04102 10.0637 3.60848 10.5997 4.31146 10.5997Z" stroke="#9185BE" stroke-width="1.5" stroke-linecap="round" stroke-linejoin="round"/>
<path d="M4.31146 15.3997C5.01445 15.3997 5.58191 14.8637 5.58191 14.1997C5.58191 13.5357 5.01445 12.9998 4.31146 12.9998C3.60848 12.9998 3.04102 13.5357 3.04102 14.1997C3.04102 14.8637 3.60848 15.3997 4.31146 15.3997Z" stroke="#9185BE" stroke-width="1.5" stroke-linecap="round" stroke-linejoin="round"/>
<path d="M7.62325 15.8718C7.62325 17.5998 6.14106 18.9998 4.31161 18.9998C2.48217 18.9998 1 17.5998 1 15.8718V2.56795C1 1.70396 1.74532 1 2.66005 1H5.97168C6.88641 1 7.63173 1.70396 7.63173 2.56795V15.8718H7.62325Z" stroke="#9185BE" stroke-width="1.5" stroke-linecap="round" stroke-linejoin="round"/>
<path d="M7.15723 17.4799L14.2294 5.91207C14.6868 5.16008 14.4157 4.20806 13.6196 3.77607L10.7484 2.20812C10.4858 2.06412 10.1894 1.99211 9.88446 2.00011" stroke="#9185BE" stroke-width="1.5" stroke-linecap="round" stroke-linejoin="round"/>
<path d="M6.01416 18.5594L18.1681 11.9275C18.9643 11.4955 19.2353 10.5355 18.7779 9.79151L17.1179 7.07954C17.0078 6.90354 16.8638 6.75153 16.6944 6.62354" stroke="#9185BE" stroke-width="1.5" stroke-linecap="round" stroke-linejoin="round"/>
</svg>
