<svg width="20" height="20" viewBox="0 0 20 20" fill="none" xmlns="http://www.w3.org/2000/svg">
<path d="M8.84474 2.34893C9.14059 2.67729 9.56437 2.86942 10.0041 2.86942C10.4439 2.86942 10.8677 2.67729 11.1635 2.34893L11.9231 1.51598C12.3709 1.02744 13.0745 0.867266 13.6822 1.11554C14.2979 1.37182 14.6817 1.98052 14.6497 2.64525L14.5937 3.7664C14.5697 4.20689 14.7377 4.63944 15.0495 4.95179C15.3613 5.26413 15.7931 5.43227 16.2329 5.40825L17.3523 5.35223C18.0159 5.32019 18.6236 5.70458 18.8795 6.32126C19.1353 6.93794 18.9754 7.64268 18.4797 8.08316L17.6481 8.83604C17.3203 9.13236 17.1284 9.55679 17.1284 9.99728C17.1284 10.4378 17.3123 10.8623 17.6481 11.1586L18.4797 11.9114C18.9674 12.3599 19.1273 13.0646 18.8795 13.6733C18.6236 14.29 18.0159 14.6745 17.3523 14.6424L16.2329 14.5863C15.7931 14.5623 15.3613 14.7305 15.0415 15.0429C14.7297 15.3552 14.5617 15.7877 14.5857 16.2362L14.6417 17.3574C14.6737 18.0141 14.2819 18.6227 13.6742 18.879C13.0665 19.1353 12.3629 18.9751 11.9151 18.4866L11.1635 17.6537C10.8677 17.3254 10.4439 17.1331 10.0041 17.1331C9.56437 17.1331 9.14059 17.3174 8.84474 17.6537L8.08513 18.4866C7.63737 18.9751 6.94174 19.1353 6.32607 18.879C5.71039 18.6227 5.3266 18.0141 5.35858 17.3574L5.41453 16.2362C5.43852 15.7957 5.27063 15.3632 4.95879 15.0509C4.64695 14.7385 4.21516 14.5703 3.7674 14.5943L2.64799 14.6504C1.98434 14.6825 1.37666 14.298 1.12079 13.6893C0.864924 13.0807 1.02483 12.3679 1.51258 11.9274L2.34415 11.1745C2.67198 10.8782 2.86387 10.4538 2.86387 10.0133C2.86387 9.57283 2.67997 9.1484 2.34415 8.85207L1.51258 8.09919C1.02483 7.6507 0.864924 6.94596 1.12079 6.3373C1.37666 5.72863 1.98433 5.33613 2.63999 5.36816L3.75942 5.42428C4.19919 5.44831 4.63895 5.28007 4.95079 4.96772C5.26262 4.65538 5.43054 4.22291 5.40655 3.77442L5.35058 2.65326C5.31859 1.98853 5.70239 1.37984 6.31806 1.13157C6.92575 0.87529 7.62939 1.03546 8.07715 1.524L8.84474 2.34893Z" stroke="#483493" stroke-width="1.5" stroke-linecap="round" stroke-linejoin="round"/>
<path d="M10.0044 13.6161C11.9953 13.6161 13.6025 12.0064 13.6025 10.0122C13.6025 8.01797 11.9953 6.4082 10.0044 6.4082C8.01341 6.4082 6.40625 8.01797 6.40625 10.0122C6.40625 11.9983 8.01341 13.6161 10.0044 13.6161Z" stroke="#483493" stroke-width="1.5" stroke-linecap="round" stroke-linejoin="round"/>
</svg>
