<svg width="21" height="23" viewBox="0 0 21 23" fill="none" xmlns="http://www.w3.org/2000/svg">
<path d="M8.75098 20.0312C8.85961 20.4116 9.08919 20.7461 9.40494 20.9843C9.7207 21.2225 10.1055 21.3514 10.501 21.3514C10.8965 21.3514 11.2813 21.2225 11.597 20.9843C11.9128 20.7461 12.1423 20.4116 12.251 20.0312" stroke="#483493" stroke-width="1.5" stroke-linecap="round" stroke-linejoin="round"/>
<path d="M10.5 3.625V1.65625" stroke="#483493" stroke-width="1.5" stroke-linecap="round" stroke-linejoin="round"/>
<path d="M10.5 3.625C12.2405 3.625 13.9097 4.3164 15.1404 5.54711C16.3711 6.77782 17.0625 8.44702 17.0625 10.1875C17.0625 16.3563 18.375 17.4062 18.375 17.4062H2.625C2.625 17.4062 3.9375 15.735 3.9375 10.1875C3.9375 8.44702 4.6289 6.77782 5.85961 5.54711C7.09032 4.3164 8.75952 3.625 10.5 3.625V3.625Z" stroke="#483493" stroke-width="1.5" stroke-linecap="round" stroke-linejoin="round"/>
</svg>
