<svg width="92" height="87" viewBox="0 0 92 87" fill="none" xmlns="http://www.w3.org/2000/svg">
<path d="M66.9316 19.176C65.9161 17.7979 64.284 17 62.5795 17L19.0595 17C17.355 17 15.723 17.7979 14.7076 19.176L2.59442 35.3146C1.07122 37.3456 1.14382 40.1381 2.77582 42.0603L36.6489 83.0416C37.6643 84.2746 39.2238 85 40.8195 85C42.4152 85 43.9747 84.2746 44.9902 83.0416L78.8633 42.0603C80.4953 40.1381 80.5315 37.3456 79.0446 35.3146L66.9316 19.176Z" stroke="#6D5DA9" stroke-width="3" stroke-linecap="round" stroke-linejoin="round"/>
<path d="M16.5547 17.6143L40.8171 84.9978" stroke="#6D5DA9" stroke-width="3" stroke-linecap="round" stroke-linejoin="round"/>
<path d="M65.081 17.6143L40.8186 84.9978" stroke="#6D5DA9" stroke-width="3" stroke-linecap="round" stroke-linejoin="round"/>
<path d="M1.5061 38.7935L80.096 38.7935" stroke="#6D5DA9" stroke-width="3" stroke-linecap="round" stroke-linejoin="round"/>
<path d="M24.4929 38.7991L40.8129 17.0391L57.1329 38.7991" stroke="#6D5DA9" stroke-width="3" stroke-linecap="round" stroke-linejoin="round"/>
<path opacity="0.1" d="M81.4335 9.34829C92.7484 26.0428 96.8099 67.9667 81.4335 79.4724C66.0571 90.9782 31.2419 72.0666 19.9261 55.3721C8.61039 38.6777 20.7965 24.2011 36.1737 12.6945C51.551 1.18792 70.1185 -7.3462 81.4335 9.34829Z" fill="#483493"/>
</svg>
