<svg width="18" height="22" viewBox="0 0 18 22" fill="none" xmlns="http://www.w3.org/2000/svg">
<path d="M3.68457 12.3367V8.33618" stroke="#483493" stroke-width="1.5" stroke-linecap="round" stroke-linejoin="round"/>
<path d="M14.3527 8.33618V18.3376C14.3527 19.8133 13.1614 21.0046 11.6857 21.0046H6.35161C4.87585 21.0046 3.68457 19.8133 3.68457 18.3376V12.5573" stroke="#483493" stroke-width="1.5" stroke-linecap="round" stroke-linejoin="round"/>
<path d="M4.12891 17.0022L14.3525 17.0039" stroke="#483493" stroke-width="1.5" stroke-linecap="round" stroke-linejoin="round"/>
<path d="M11.6859 6.14947C11.8282 7.48299 13.0194 8.45201 14.353 8.33644C15.6865 8.45201 16.8777 7.48299 17.02 6.14947L15.3931 1.57107C15.2597 1.20657 14.9041 0.975416 14.5219 1.00209H3.49812C3.11585 0.975416 2.76023 1.20657 2.62688 1.57107L1 6.14947C1.14224 7.48299 2.33352 8.45201 3.66704 8.33644C5.00055 8.45201 6.19183 7.48299 6.33407 6.14947C6.47631 7.48299 7.66759 8.45201 9.00111 8.33644C10.3524 8.45201 11.5348 7.48299 11.6859 6.14947Z" stroke="#483493" stroke-width="1.5" stroke-linecap="round" stroke-linejoin="round"/>
<path d="M6.35156 1.00171V6.15797" stroke="#483493" stroke-width="1.5" stroke-linecap="round" stroke-linejoin="round"/>
<path d="M11.6855 1.00171V6.15797" stroke="#483493" stroke-width="1.5" stroke-linecap="round" stroke-linejoin="round"/>
</svg>
