<svg width="22" height="22" viewBox="0 0 22 22" fill="none" xmlns="http://www.w3.org/2000/svg">
<path d="M1 15.6691C1 13.6522 2.01391 11.7776 3.69488 10.667C5.37584 9.55635 7.5015 9.36081 9.36035 10.1516" stroke="#483493" stroke-width="1.5" stroke-linecap="round" stroke-linejoin="round"/>
<path d="M7.00428 8.33905C9.03211 8.33905 10.6775 6.69542 10.6775 4.66963C10.6775 2.64384 9.03211 1 7.00428 1C4.97645 1 3.33105 2.64384 3.33105 4.66963C3.33995 6.69542 4.97645 8.33905 7.00428 8.33905Z" stroke="#483493" stroke-width="1.5" stroke-linecap="round" stroke-linejoin="round"/>
<path d="M15.6749 16.3354C16.4131 16.3354 17.009 15.7401 17.009 15.0027C17.009 14.2652 16.4131 13.6699 15.6749 13.6699C14.9367 13.6699 14.3408 14.2652 14.3408 15.0027C14.3408 15.7401 14.9367 16.3354 15.6749 16.3354Z" stroke="#483493" stroke-width="1.5" stroke-linecap="round" stroke-linejoin="round"/>
<path d="M16.8042 9.84941L17.1955 11.1379C17.3289 11.5822 17.7825 11.8487 18.2361 11.742L19.5435 11.4399C20.0505 11.3244 20.5752 11.5555 20.842 12.0086C21.1 12.4618 21.0377 13.0303 20.682 13.4123L19.7659 14.3986C19.4457 14.7363 19.4457 15.2693 19.7659 15.6069L20.682 16.5932C21.0377 16.9753 21.1 17.544 20.842 17.9971C20.5841 18.4503 20.0594 18.6812 19.5435 18.5657L18.2361 18.2637C17.7825 18.1571 17.3289 18.4236 17.1955 18.8678L16.8042 20.1561C16.653 20.6537 16.1905 21.0002 15.6746 21.0002C15.1499 21.0002 14.6874 20.6537 14.5451 20.1561L14.1538 18.8678C14.0204 18.4236 13.5668 18.1571 13.1132 18.2637L11.8057 18.5657C11.2988 18.6812 10.7741 18.4503 10.5072 17.9971C10.2493 17.544 10.3116 16.9753 10.6673 16.5932L11.5834 15.6069C11.9036 15.2693 11.9036 14.7363 11.5834 14.3986L10.6673 13.4123C10.3116 13.0303 10.2493 12.4618 10.5072 12.0086C10.7652 11.5555 11.2899 11.3244 11.8057 11.4399L13.1132 11.742C13.5668 11.8487 14.0204 11.5822 14.1538 11.1379L14.5451 9.84941C14.6963 9.35184 15.1588 9.00537 15.6835 9.00537C16.1994 9.00537 16.6619 9.35184 16.8042 9.84941Z" stroke="#483493" stroke-width="1.5" stroke-linecap="round" stroke-linejoin="round"/>
</svg>
