<svg width="32" height="38" viewBox="0 0 32 38" fill="none" xmlns="http://www.w3.org/2000/svg">
<path d="M16.3575 18.9807C18.1019 18.9849 19.8083 18.4712 21.2604 17.5047C22.7126 16.5382 23.8452 15.1624 24.5147 13.5516C25.1842 11.9408 25.3605 10.1675 25.0212 8.45639C24.6819 6.74531 23.8423 5.17344 22.6089 3.93996C21.3754 2.70649 19.8035 1.86692 18.0924 1.52764C16.3813 1.18835 14.6081 1.36463 12.9972 2.03413C11.3864 2.70364 10.0106 3.83623 9.04411 5.2884C8.07761 6.74057 7.56392 8.44696 7.56814 10.1914C7.57377 12.5207 8.5016 14.753 10.1487 16.4001C11.7958 18.0472 14.0281 18.9751 16.3575 18.9807V18.9807Z" stroke="white" stroke-width="2" stroke-linecap="round" stroke-linejoin="round"/>
<path d="M1.95996 36.5797C1.95996 32.7606 3.4771 29.0979 6.17762 26.3973C8.87815 23.6968 12.5408 22.1797 16.36 22.1797C20.1791 22.1797 23.8418 23.6968 26.5423 26.3973C29.2428 29.0979 30.76 32.7606 30.76 36.5797" stroke="white" stroke-width="2" stroke-linecap="round" stroke-linejoin="round"/>
</svg>
