<svg width="24" height="24" viewBox="0 0 24 24" fill="none" xmlns="http://www.w3.org/2000/svg">
<path d="M12 23C18.0762 23 23 18.0762 23 12C23 5.92381 18.0762 1 12 1C5.92381 1 1 5.92381 1 12C1 18.0762 5.92381 23 12 23Z" stroke="#9185BE" stroke-width="1.5" stroke-linecap="round" stroke-linejoin="round"/>
<path d="M15.1423 7.28604H10.7318C10.2185 7.24413 9.72613 7.43268 9.35947 7.78887C8.9928 8.14506 8.81469 8.64792 8.8566 9.16125C8.8566 11.2146 15.1423 12.786 15.1423 14.8393C15.1528 15.3422 14.9537 15.8241 14.608 16.1698C14.2518 16.526 13.7699 16.7146 13.2776 16.7041H8.86709" stroke="#9185BE" stroke-width="1.5" stroke-linecap="round" stroke-linejoin="round"/>
<path d="M12 7.28585V4.92871" stroke="#9185BE" stroke-width="1.5" stroke-linecap="round" stroke-linejoin="round"/>
<path d="M12 19.072V16.7148" stroke="#9185BE" stroke-width="1.5" stroke-linecap="round" stroke-linejoin="round"/>
</svg>
