<svg width="143" height="97" viewBox="0 0 143 97" fill="none" xmlns="http://www.w3.org/2000/svg">
<path d="M141 67.2007V85.734C141 90.8615 136.861 95.0007 131.733 95.0007H11.2667C6.13911 95.0007 2 90.8615 2 85.734V67.2007C12.2551 67.2007 20.5333 58.9224 20.5333 48.6673C20.5333 38.4122 12.2551 30.134 2 30.134V11.6007C2 6.4731 6.13911 2.33398 11.2667 2.33398H131.733C136.861 2.33398 141 6.4731 141 11.6007V30.134C130.745 30.134 122.467 38.4122 122.467 48.6673C122.467 58.8607 130.745 67.2007 141 67.2007Z" stroke="#C9C3E0" stroke-width="3" stroke-linecap="round" stroke-linejoin="round"/>
<path d="M48.334 39.3995C53.4616 39.3995 57.6007 35.2604 57.6007 30.1329C57.6007 25.0053 53.4616 20.8662 48.334 20.8662C43.2065 20.8662 39.0674 25.0053 39.0674 30.1329C39.0674 35.2604 43.2065 39.3995 48.334 39.3995Z" stroke="#C9C3E0" stroke-width="3" stroke-linecap="round" stroke-linejoin="round"/>
<path d="M99.2989 76.4669C104.426 76.4669 108.566 72.3278 108.566 67.2003C108.566 62.0727 104.426 57.9336 99.2989 57.9336C94.1713 57.9336 90.0322 62.0727 90.0322 67.2003C90.0322 72.3278 94.1713 76.4669 99.2989 76.4669Z" stroke="#C9C3E0" stroke-width="3" stroke-linecap="round" stroke-linejoin="round"/>
<path d="M94.6668 25.501L48.3335 71.8343" stroke="#C9C3E0" stroke-width="3" stroke-linecap="round" stroke-linejoin="round"/>
</svg>
