<svg width="24" height="24" viewBox="0 0 24 24" fill="none" xmlns="http://www.w3.org/2000/svg">
<path d="M12 23C18.072 23 23 18.072 23 12C23 5.928 18.072 1 12 1C5.928 1 1 5.928 1 12C1 18.072 5.91822 23 12 23Z" stroke="#9185BE" stroke-width="1.5" stroke-linecap="round" stroke-linejoin="round"/>
<path d="M8.33594 15.6654L15.6693 8.33203" stroke="#9185BE" stroke-width="1.5" stroke-linecap="round" stroke-linejoin="round"/>
<path d="M9.06432 10.5339C9.87588 10.5339 10.531 9.87881 10.531 9.06725C10.531 8.2557 9.87588 7.60059 9.06432 7.60059C8.25277 7.60059 7.59766 8.2557 7.59766 9.06725C7.59766 9.87881 8.25277 10.5339 9.06432 10.5339Z" stroke="#9185BE" stroke-width="1.5" stroke-linecap="round" stroke-linejoin="round"/>
<path d="M14.9354 16.4001C15.747 16.4001 16.4021 15.745 16.4021 14.9335C16.4021 14.1219 15.747 13.4668 14.9354 13.4668C14.1239 13.4668 13.4688 14.1219 13.4688 14.9335C13.4688 15.745 14.1239 16.4001 14.9354 16.4001Z" stroke="#9185BE" stroke-width="1.5" stroke-linecap="round" stroke-linejoin="round"/>
</svg>
