<svg width="20" height="20" viewBox="0 0 20 20" fill="none" xmlns="http://www.w3.org/2000/svg">
<path d="M1 2.2C1 1.536 1.536 1 2.2 1H7C7.664 1 8.2 1.536 8.2 2.2V7C8.2 7.664 7.664 8.2 7 8.2H2.2C1.536 8.2 1 7.664 1 7V2.2Z" stroke="#483493" stroke-width="1.5" stroke-linecap="round" stroke-linejoin="round"/>
<path d="M1 13.0003C1 12.3363 1.536 11.8003 2.2 11.8003H7C7.664 11.8003 8.2 12.3363 8.2 13.0003V17.8003C8.2 18.4643 7.664 19.0003 7 19.0003H2.2C1.536 19.0003 1 18.4643 1 17.8003V13.0003Z" stroke="#483493" stroke-width="1.5" stroke-linecap="round" stroke-linejoin="round"/>
<path d="M11.8 2.2C11.8 1.536 12.336 1 13 1H17.8C18.464 1 19 1.536 19 2.2V7C19 7.664 18.464 8.2 17.8 8.2H13C12.336 8.2 11.8 7.664 11.8 7V2.2Z" stroke="#483493" stroke-width="1.5" stroke-linecap="round" stroke-linejoin="round"/>
<path d="M11.8 13.0003C11.8 12.3363 12.336 11.8003 13 11.8003H17.8C18.464 11.8003 19 12.3363 19 13.0003V17.8003C19 18.4643 18.464 19.0003 17.8 19.0003H13C12.336 19.0003 11.8 18.4643 11.8 17.8003V13.0003Z" stroke="#483493" stroke-width="1.5" stroke-linecap="round" stroke-linejoin="round"/>
</svg>
