<svg width="20" height="14" viewBox="0 0 20 14" fill="none" xmlns="http://www.w3.org/2000/svg">
<path d="M19 9.4V11.8C19 12.464 18.464 13 17.8 13H2.2C1.536 13 1 12.464 1 11.8V9.4C2.328 9.4 3.4 8.328 3.4 7C3.4 5.672 2.328 4.6 1 4.6V2.2C1 1.536 1.536 1 2.2 1H17.8C18.464 1 19 1.536 19 2.2V4.6C17.672 4.6 16.6 5.672 16.6 7C16.6 8.32 17.672 9.4 19 9.4Z" stroke="#483493" stroke-width="1.5" stroke-linecap="round" stroke-linejoin="round"/>
<path d="M7.00054 5.7999C7.66454 5.7999 8.20054 5.2639 8.20054 4.5999C8.20054 3.9359 7.66454 3.3999 7.00054 3.3999C6.33654 3.3999 5.80054 3.9359 5.80054 4.5999C5.80054 5.2639 6.33654 5.7999 7.00054 5.7999Z" stroke="#483493" stroke-width="1.5" stroke-linecap="round" stroke-linejoin="round"/>
<path d="M13.5999 10.5997C14.2639 10.5997 14.7999 10.0637 14.7999 9.39971C14.7999 8.73571 14.2639 8.19971 13.5999 8.19971C12.9359 8.19971 12.3999 8.73571 12.3999 9.39971C12.3999 10.0637 12.9359 10.5997 13.5999 10.5997Z" stroke="#483493" stroke-width="1.5" stroke-linecap="round" stroke-linejoin="round"/>
<path d="M13.0002 4L7.00024 10" stroke="#483493" stroke-width="1.5" stroke-linecap="round" stroke-linejoin="round"/>
</svg>
