<svg width="20" height="20" viewBox="0 0 20 20" fill="none" xmlns="http://www.w3.org/2000/svg">
<path d="M6.70703 2.21215C6.70703 1.54143 7.25612 1 7.93633 1H17.7707C18.4509 1 19 1.54143 19 2.21215V3.4243C19 4.09502 18.4509 4.63645 17.7707 4.63645H7.93633C7.25612 4.63645 6.70703 4.09502 6.70703 3.4243V2.21215Z" stroke="#483493" stroke-width="1.5" stroke-linecap="round" stroke-linejoin="round"/>
<path d="M6.70703 9.39428C6.70703 8.72356 7.25612 8.18213 7.93633 8.18213H17.7707C18.4509 8.18213 19 8.72356 19 9.39428V10.6064C19 11.2771 18.4509 11.8186 17.7707 11.8186H7.93633C7.25612 11.8186 6.70703 11.2771 6.70703 10.6064V9.39428Z" stroke="#483493" stroke-width="1.5" stroke-linecap="round" stroke-linejoin="round"/>
<path d="M6.70703 16.5759C6.70703 15.9052 7.25612 15.3638 7.93633 15.3638H17.7707C18.4509 15.3638 19 15.9052 19 16.5759V17.7881C19 18.4588 18.4509 19.0002 17.7707 19.0002H7.93633C7.25612 19.0002 6.70703 18.4588 6.70703 17.7881V16.5759Z" stroke="#483493" stroke-width="1.5" stroke-linecap="round" stroke-linejoin="round"/>
<path d="M1 2.21215C1 1.54143 1.52294 1 2.17076 1H3.34152C3.98935 1 4.51229 1.54143 4.51229 2.21215V3.4243C4.51229 4.09502 3.98935 4.63645 3.34152 4.63645H2.17076C1.52294 4.63645 1 4.09502 1 3.4243V2.21215Z" stroke="#483493" stroke-width="1.5" stroke-linecap="round" stroke-linejoin="round"/>
<path d="M1 9.39428C1 8.72356 1.52294 8.18213 2.17076 8.18213H3.34152C3.98935 8.18213 4.51229 8.72356 4.51229 9.39428V10.6064C4.51229 11.2771 3.98935 11.8186 3.34152 11.8186H2.17076C1.52294 11.8186 1 11.2771 1 10.6064V9.39428Z" stroke="#483493" stroke-width="1.5" stroke-linecap="round" stroke-linejoin="round"/>
<path d="M1 16.5759C1 15.9052 1.52294 15.3638 2.17076 15.3638H3.34152C3.98935 15.3638 4.51229 15.9052 4.51229 16.5759V17.7881C4.51229 18.4588 3.98935 19.0002 3.34152 19.0002H2.17076C1.52294 19.0002 1 18.4588 1 17.7881V16.5759Z" stroke="#483493" stroke-width="1.5" stroke-linecap="round" stroke-linejoin="round"/>
</svg>
