<svg width="311" height="128" viewBox="0 0 311 128" fill="none" xmlns="http://www.w3.org/2000/svg">
<rect x="0.25" y="0.25" width="310.5" height="127.5" rx="9.75" fill="#F3F3F3" stroke="#DAD6E9" stroke-width="0.5"/>
<path d="M263.317 94.2906C263.481 93.9923 263.758 93.7717 264.085 93.6772C264.412 93.5827 264.764 93.6221 265.062 93.7868L279.681 101.856C279.978 102.021 280.198 102.298 280.292 102.625C280.386 102.952 280.347 103.303 280.183 103.601L274.596 113.721C274.431 114.019 274.155 114.24 273.828 114.334C273.5 114.429 273.149 114.39 272.851 114.225L258.234 106.156C257.936 105.992 257.715 105.715 257.621 105.388C257.526 105.061 257.566 104.709 257.73 104.411L263.317 94.2906Z" stroke="#DAD6E9" stroke-linecap="round" stroke-linejoin="round"/>
<path d="M262.076 96.541L278.942 105.851" stroke="#DAD6E9" stroke-linecap="round" stroke-linejoin="round"/>
<path d="M263.586 101.775L269.771 105.189" stroke="#DAD6E9" stroke-linecap="round" stroke-linejoin="round"/>
<path d="M262.344 104.023L266.28 106.196" stroke="#DAD6E9" stroke-linecap="round" stroke-linejoin="round"/>
<g opacity="0.3">
<path d="M277.387 96.0357C277.552 95.7374 277.828 95.5168 278.155 95.4223C278.483 95.3278 278.834 95.3673 279.132 95.5319L293.751 103.602C294.049 103.767 294.269 104.043 294.363 104.37C294.457 104.697 294.417 105.048 294.253 105.346L288.666 115.466C288.502 115.764 288.225 115.985 287.898 116.08C287.571 116.174 287.219 116.135 286.921 115.97L272.304 107.902C272.006 107.737 271.785 107.461 271.691 107.133C271.596 106.806 271.636 106.455 271.8 106.156L277.387 96.0357Z" stroke="#C9C3E0" stroke-width="0.5" stroke-linecap="round" stroke-linejoin="round"/>
<path d="M276.148 98.2871L293.014 107.597" stroke="#C9C3E0" stroke-width="0.5" stroke-linecap="round" stroke-linejoin="round"/>
<path d="M277.656 103.521L283.841 106.935" stroke="#C9C3E0" stroke-width="0.5" stroke-linecap="round" stroke-linejoin="round"/>
<path d="M276.416 105.769L280.352 107.941" stroke="#C9C3E0" stroke-width="0.5" stroke-linecap="round" stroke-linejoin="round"/>
</g>
<path d="M183.427 10.7977C183.535 10.6032 183.715 10.4593 183.928 10.3977C184.142 10.3361 184.371 10.3618 184.565 10.4692L194.097 15.7305C194.291 15.8381 194.434 16.0183 194.495 16.2315C194.557 16.4446 194.531 16.6735 194.424 16.8677L190.781 23.4662C190.674 23.6606 190.494 23.8045 190.28 23.8661C190.067 23.9277 189.838 23.902 189.643 23.7947L180.113 18.5341C179.919 18.4268 179.775 18.2466 179.713 18.0332C179.652 17.8198 179.678 17.5906 179.785 17.3962L183.427 10.7977Z" stroke="#DAD6E9" stroke-linecap="round" stroke-linejoin="round"/>
<path d="M182.617 12.2656L193.614 18.3356" stroke="#DAD6E9" stroke-linecap="round" stroke-linejoin="round"/>
<path d="M183.602 15.6777L187.634 17.9037" stroke="#DAD6E9" stroke-linecap="round" stroke-linejoin="round"/>
<path d="M182.795 17.1436L185.361 18.5602" stroke="#DAD6E9" stroke-linecap="round" stroke-linejoin="round"/>
<g opacity="0.3">
<path d="M192.599 11.9354C192.707 11.7409 192.887 11.597 193.1 11.5354C193.314 11.4738 193.543 11.4995 193.737 11.6069L203.268 16.8682C203.462 16.9758 203.606 17.156 203.667 17.3691C203.728 17.5823 203.703 17.8112 203.596 18.0054L199.953 24.6039C199.846 24.7983 199.666 24.9422 199.452 25.0038C199.239 25.0654 199.01 25.0397 198.815 24.9324L189.285 19.6718C189.091 19.5645 188.947 19.3843 188.885 19.1709C188.824 18.9575 188.849 18.7283 188.957 18.5339L192.599 11.9354Z" stroke="#C9C3E0" stroke-width="0.5" stroke-linecap="round" stroke-linejoin="round"/>
<path d="M191.791 13.4033L202.787 19.4733" stroke="#C9C3E0" stroke-width="0.5" stroke-linecap="round" stroke-linejoin="round"/>
<path d="M192.773 16.8154L196.806 19.0414" stroke="#C9C3E0" stroke-width="0.5" stroke-linecap="round" stroke-linejoin="round"/>
<path d="M191.967 18.2812L194.533 19.6979" stroke="#C9C3E0" stroke-width="0.5" stroke-linecap="round" stroke-linejoin="round"/>
</g>
<path d="M93.7138 27.0693C93.599 26.9056 93.5541 26.7031 93.5887 26.5062C93.6233 26.3094 93.7347 26.1344 93.8984 26.0196L101.921 20.3973C102.085 20.2831 102.287 20.2384 102.484 20.2732C102.681 20.308 102.855 20.4193 102.97 20.5828L106.862 26.1371C106.977 26.3007 107.022 26.5033 106.987 26.7001C106.953 26.897 106.841 27.072 106.677 27.1867L98.6558 32.8082C98.4921 32.9229 98.2895 32.9679 98.0927 32.9333C97.8958 32.8987 97.7208 32.7872 97.6061 32.6236L93.7138 27.0693Z" stroke="#DAD6E9" stroke-linecap="round" stroke-linejoin="round"/>
<path d="M94.5801 28.3037L103.836 21.8172" stroke="#DAD6E9" stroke-linecap="round" stroke-linejoin="round"/>
<path d="M97.7285 28.8564L101.123 26.4778" stroke="#DAD6E9" stroke-linecap="round" stroke-linejoin="round"/>
<path d="M98.5898 30.0928L100.75 28.5789" stroke="#DAD6E9" stroke-linecap="round" stroke-linejoin="round"/>
<g opacity="0.3">
<path d="M98.2645 20.1055C98.1498 19.9418 98.1048 19.7392 98.1395 19.5424C98.1741 19.3455 98.2855 19.1705 98.4492 19.0558L106.472 13.4334C106.636 13.3192 106.838 13.2746 107.035 13.3093C107.231 13.3441 107.406 13.4555 107.521 13.6189L111.413 19.1732C111.528 19.3369 111.573 19.5394 111.538 19.7363C111.503 19.9331 111.392 20.1082 111.228 20.2229L103.207 25.8444C103.043 25.9591 102.84 26.0041 102.643 25.9694C102.447 25.9348 102.272 25.8234 102.157 25.6597L98.2645 20.1055Z" stroke="#C9C3E0" stroke-width="0.5" stroke-linecap="round" stroke-linejoin="round"/>
<path d="M99.1328 21.3389L108.389 14.8524" stroke="#C9C3E0" stroke-width="0.5" stroke-linecap="round" stroke-linejoin="round"/>
<path d="M102.279 21.8926L105.674 19.5139" stroke="#C9C3E0" stroke-width="0.5" stroke-linecap="round" stroke-linejoin="round"/>
<path d="M103.141 23.127L105.301 21.6131" stroke="#C9C3E0" stroke-width="0.5" stroke-linecap="round" stroke-linejoin="round"/>
</g>
<path d="M149.053 100.607C149.153 100.426 149.321 100.292 149.519 100.234C149.718 100.177 149.931 100.201 150.112 100.301L158.988 105.2C159.169 105.3 159.302 105.468 159.36 105.667C159.417 105.865 159.393 106.078 159.293 106.259L155.901 112.404C155.801 112.585 155.633 112.719 155.434 112.776C155.236 112.834 155.022 112.81 154.841 112.71L145.967 107.811C145.786 107.711 145.652 107.543 145.594 107.344C145.537 107.146 145.561 106.932 145.661 106.751L149.053 100.607Z" stroke="#DAD6E9" stroke-linecap="round" stroke-linejoin="round"/>
<path d="M148.299 101.974L158.539 107.626" stroke="#DAD6E9" stroke-linecap="round" stroke-linejoin="round"/>
<path d="M149.217 105.151L152.972 107.224" stroke="#DAD6E9" stroke-linecap="round" stroke-linejoin="round"/>
<path d="M148.463 106.516L150.853 107.835" stroke="#DAD6E9" stroke-linecap="round" stroke-linejoin="round"/>
<g opacity="0.3">
<path d="M157.594 101.665C157.694 101.484 157.862 101.35 158.06 101.293C158.259 101.235 158.472 101.259 158.653 101.359L167.529 106.259C167.71 106.359 167.843 106.527 167.901 106.725C167.958 106.924 167.934 107.137 167.834 107.318L164.442 113.462C164.342 113.643 164.174 113.777 163.975 113.835C163.777 113.892 163.563 113.868 163.382 113.768L154.508 108.87C154.327 108.77 154.193 108.602 154.135 108.403C154.078 108.204 154.102 107.991 154.202 107.81L157.594 101.665Z" stroke="#C9C3E0" stroke-width="0.5" stroke-linecap="round" stroke-linejoin="round"/>
<path d="M156.842 103.032L167.082 108.685" stroke="#C9C3E0" stroke-width="0.5" stroke-linecap="round" stroke-linejoin="round"/>
<path d="M157.758 106.21L161.513 108.283" stroke="#C9C3E0" stroke-width="0.5" stroke-linecap="round" stroke-linejoin="round"/>
<path d="M157.004 107.574L159.394 108.893" stroke="#C9C3E0" stroke-width="0.5" stroke-linecap="round" stroke-linejoin="round"/>
</g>
<path d="M29.3386 104.117L27.7272 104.816C27.4723 104.923 27.2631 105.115 27.136 105.361C27.0089 105.606 26.9721 105.888 27.032 106.157C27.0919 106.427 27.2447 106.667 27.4637 106.835C27.6827 107.004 27.9539 107.089 28.2298 107.078L30.1765 107.018C30.4524 107.007 30.7236 107.093 30.9426 107.261C31.1616 107.429 31.3144 107.669 31.3743 107.939C31.4342 108.208 31.3974 108.49 31.2704 108.735C31.1433 108.981 30.934 109.173 30.6791 109.28L29.0668 109.979" stroke="#DAD6E9" stroke-linecap="round" stroke-linejoin="round"/>
<path d="M28.1283 104.637L27.8652 104.03" stroke="#DAD6E9" stroke-linecap="round" stroke-linejoin="round"/>
<path d="M22.3281 102.851L30.7888 99.1797" stroke="#DAD6E9" stroke-linecap="round" stroke-linejoin="round"/>
<path d="M28.2918 97.1425L28.4581 94.3487C28.4623 94.2106 28.4248 94.0746 28.3504 93.9582C28.276 93.8419 28.1682 93.7508 28.0411 93.6968C27.9125 93.6505 27.773 93.6437 27.6406 93.6773C27.5081 93.7108 27.3887 93.7832 27.2977 93.8851L26.1187 95.3565C26.017 95.4908 25.8677 95.581 25.7016 95.6086C25.5354 95.6362 25.365 95.599 25.2254 95.5048L24.5535 95.0592C24.4658 94.9955 24.3642 94.9535 24.257 94.9367C24.1499 94.9199 24.0403 94.9287 23.9373 94.9625C23.8392 95.0061 23.753 95.0727 23.6861 95.1567C23.6192 95.2406 23.5736 95.3395 23.5531 95.4449L23.4127 96.2434C23.3861 96.4097 23.2968 96.5596 23.1632 96.662C23.0295 96.7645 22.8617 96.8119 22.6942 96.7945L20.8533 96.6834C20.7156 96.6777 20.5796 96.7154 20.4644 96.7911C20.3492 96.8668 20.2607 96.9768 20.2114 97.1054C20.1585 97.2331 20.1483 97.3744 20.1822 97.5084C20.2161 97.6423 20.2924 97.7617 20.3997 97.8488L22.5382 99.6388" stroke="#DAD6E9" stroke-linecap="round" stroke-linejoin="round"/>
<path d="M23.4539 104.501L22.3506 108.044C22.1124 108.987 22.1433 109.978 22.4397 110.905C22.736 111.832 23.286 112.657 24.0273 113.287C24.7686 113.917 25.6716 114.327 26.6339 114.47C27.5963 114.614 28.5795 114.484 29.4722 114.098L34.1314 112.076C35.0246 111.689 35.7915 111.06 36.3451 110.259C36.8988 109.459 37.217 108.519 37.2638 107.547C37.3105 106.574 37.0839 105.609 36.6096 104.759C36.1353 103.909 35.4323 103.208 34.5803 102.738L31.2396 101.123" stroke="#DAD6E9" stroke-linecap="round" stroke-linejoin="round"/>
<g opacity="0.3">
<path d="M35.8425 94.2373L34.2311 94.9364C33.9762 95.0429 33.767 95.2356 33.6399 95.4807C33.5128 95.7259 33.476 96.008 33.5359 96.2776C33.5958 96.5472 33.7487 96.7871 33.9676 96.9554C34.1866 97.1236 34.4578 97.2095 34.7338 97.198L36.6804 97.1383C36.9563 97.1268 37.2275 97.2127 37.4465 97.381C37.6655 97.5492 37.8183 97.7891 37.8782 98.0587C37.9382 98.3283 37.9013 98.6104 37.7743 98.8556C37.6472 99.1008 37.4379 99.2935 37.183 99.3999L35.5707 100.099" stroke="#C9C3E0" stroke-width="0.5" stroke-linecap="round" stroke-linejoin="round"/>
<path d="M34.6322 94.7596L34.3691 94.1533" stroke="#C9C3E0" stroke-width="0.5" stroke-linecap="round" stroke-linejoin="round"/>
<path d="M36.9935 100.195L36.7305 99.5889" stroke="#C9C3E0" stroke-width="0.5" stroke-linecap="round" stroke-linejoin="round"/>
<path d="M28.8301 92.9678L37.2908 89.2969" stroke="#C9C3E0" stroke-width="0.5" stroke-linecap="round" stroke-linejoin="round"/>
<path d="M34.7918 87.2626L34.9581 84.4688C34.9623 84.3308 34.9248 84.1947 34.8504 84.0784C34.776 83.962 34.6682 83.8709 34.5411 83.8169C34.4125 83.7706 34.273 83.7638 34.1406 83.7974C34.0081 83.8309 33.8887 83.9033 33.7977 84.0052L32.6187 85.4766C32.517 85.6109 32.3677 85.7011 32.2016 85.7287C32.0354 85.7563 31.865 85.7191 31.7254 85.6249L31.0535 85.1794C30.9658 85.1156 30.8642 85.0736 30.757 85.0568C30.6499 85.04 30.5403 85.0488 30.4373 85.0826C30.3392 85.1262 30.253 85.1928 30.1861 85.2768C30.1192 85.3608 30.0736 85.4596 30.0531 85.565L29.9127 86.3635C29.8861 86.5299 29.7968 86.6797 29.6632 86.7822C29.5295 86.8847 29.3617 86.932 29.1942 86.9146L27.3533 86.8035C27.2156 86.7978 27.0796 86.8355 26.9644 86.9112C26.8492 86.9869 26.7607 87.0969 26.7114 87.2256C26.6585 87.3532 26.6483 87.4945 26.6822 87.6285C26.7161 87.7624 26.7924 87.8818 26.8997 87.9689L29.0382 89.7589" stroke="#C9C3E0" stroke-width="0.5" stroke-linecap="round" stroke-linejoin="round"/>
<path d="M29.9539 94.6254L28.8506 98.1679C28.6124 99.1112 28.6433 100.102 28.9397 101.029C29.236 101.956 29.786 102.781 30.5273 103.411C31.2686 104.041 32.1716 104.451 33.1339 104.594C34.0963 104.738 35.0795 104.609 35.9722 104.222L40.6314 102.2C41.5246 101.813 42.2915 101.184 42.8451 100.383C43.3988 99.5826 43.717 98.6429 43.7638 97.6707C43.8105 96.6984 43.5839 95.7325 43.1096 94.8825C42.6353 94.0326 41.9323 93.3325 41.0803 92.8617L37.7396 91.2473" stroke="#C9C3E0" stroke-width="0.5" stroke-linecap="round" stroke-linejoin="round"/>
</g>
<path d="M21.6011 33.1556L20.5835 32.3918C20.4252 32.2695 20.2289 32.2068 20.0291 32.2147C19.8292 32.2226 19.6384 32.3005 19.4902 32.4348C19.342 32.5691 19.2457 32.7513 19.2183 32.9495C19.1909 33.1476 19.234 33.3491 19.3401 33.5186L20.0753 34.7226C20.1814 34.8921 20.2245 35.0936 20.1971 35.2918C20.1696 35.4899 20.0734 35.6721 19.9252 35.8064C19.7769 35.9407 19.5862 36.0187 19.3863 36.0265C19.1864 36.0344 18.9902 35.9717 18.8318 35.8494L17.8137 35.0852" stroke="#DAD6E9" stroke-linecap="round" stroke-linejoin="round"/>
<path d="M20.8376 32.5801L21.125 32.1973" stroke="#DAD6E9" stroke-linecap="round" stroke-linejoin="round"/>
<path d="M19.8828 28.2881L25.2254 32.2983" stroke="#DAD6E9" stroke-linecap="round" stroke-linejoin="round"/>
<path d="M25.6135 29.9975L27.4317 29.101C27.5201 29.0542 27.5923 28.9818 27.6388 28.8933C27.6854 28.8048 27.7041 28.7042 27.6925 28.6049C27.6756 28.5074 27.6299 28.4171 27.5613 28.3458C27.4927 28.2744 27.4044 28.2252 27.3076 28.2045L25.9589 27.9896C25.838 27.9737 25.7277 27.9121 25.6508 27.8174C25.5739 27.7227 25.5362 27.6021 25.5455 27.4805L25.5852 26.8979C25.5939 26.8198 25.5839 26.7408 25.5561 26.6673C25.5283 26.5939 25.4834 26.528 25.4252 26.4753C25.3627 26.4292 25.2898 26.3988 25.213 26.3868C25.1362 26.3748 25.0576 26.3815 24.9839 26.4063L24.431 26.6041C24.3168 26.647 24.1905 26.6445 24.078 26.5971C23.9656 26.5497 23.8757 26.461 23.8266 26.3493L23.2369 25.1508C23.1911 25.062 23.1186 24.9899 23.0297 24.9446C22.9408 24.8992 22.8398 24.8829 22.7411 24.8979C22.6418 24.9104 22.5492 24.9546 22.4771 25.024C22.4049 25.0933 22.3571 25.1841 22.3407 25.2829L21.9804 27.2704" stroke="#DAD6E9" stroke-linecap="round" stroke-linejoin="round"/>
<path d="M19.2473 29.5895L16.6221 30.1645C15.943 30.3527 15.3301 30.7273 14.853 31.246C14.3758 31.7646 14.0535 32.4065 13.9225 33.0989C13.7915 33.7914 13.8571 34.5066 14.1118 35.1637C14.3665 35.8208 14.8001 36.3934 15.3636 36.8167L18.3057 39.025C18.8693 39.4486 19.5403 39.7058 20.2426 39.7674C20.945 39.829 21.6505 39.6926 22.2793 39.3736C22.908 39.0546 23.4348 38.5658 23.7998 37.9627C24.1649 37.3595 24.3536 36.6661 24.3447 35.9612L24.1637 33.2798" stroke="#DAD6E9" stroke-linecap="round" stroke-linejoin="round"/>
<g opacity="0.3">
<path d="M30.148 33.7103L29.1304 32.9465C28.9721 32.8242 28.7758 32.7615 28.5759 32.7694C28.3761 32.7773 28.1853 32.8552 28.0371 32.9895C27.8889 33.1238 27.7926 33.306 27.7652 33.5042C27.7377 33.7023 27.7809 33.9038 27.887 34.0733L28.6221 35.2773C28.7283 35.4468 28.7714 35.6483 28.744 35.8464C28.7165 36.0446 28.6203 36.2268 28.472 36.3611C28.3238 36.4954 28.1331 36.5733 27.9332 36.5812C27.7333 36.5891 27.537 36.5264 27.3787 36.4041L26.3606 35.6399" stroke="#C9C3E0" stroke-width="0.5" stroke-linecap="round" stroke-linejoin="round"/>
<path d="M29.3845 33.1348L29.6719 32.752" stroke="#C9C3E0" stroke-width="0.5" stroke-linecap="round" stroke-linejoin="round"/>
<path d="M26.8103 36.5694L27.0977 36.1865" stroke="#C9C3E0" stroke-width="0.5" stroke-linecap="round" stroke-linejoin="round"/>
<path d="M28.4336 28.8408L33.7762 32.851" stroke="#C9C3E0" stroke-width="0.5" stroke-linecap="round" stroke-linejoin="round"/>
<path d="M34.1623 30.5512L35.9805 29.6547C36.0689 29.6079 36.1411 29.5355 36.1877 29.447C36.2342 29.3585 36.2529 29.258 36.2414 29.1586C36.2245 29.0611 36.1788 28.9709 36.1102 28.8995C36.0416 28.8281 35.9532 28.7789 35.8564 28.7582L34.5078 28.5433C34.3868 28.5274 34.2765 28.4658 34.1996 28.3711C34.1227 28.2764 34.085 28.1558 34.0943 28.0342L34.134 27.4516C34.1427 27.3735 34.1327 27.2945 34.1049 27.221C34.0771 27.1476 34.0323 27.0818 33.9741 27.029C33.9115 26.9829 33.8387 26.9525 33.7618 26.9405C33.685 26.9285 33.6064 26.9352 33.5327 26.96L32.9798 27.1579C32.8656 27.2007 32.7393 27.1982 32.6269 27.1508C32.5145 27.1034 32.4245 27.0147 32.3754 26.903L31.7857 25.7045C31.7399 25.6158 31.6675 25.5436 31.5785 25.4983C31.4896 25.4529 31.3887 25.4366 31.29 25.4516C31.1907 25.4641 31.098 25.5083 31.0259 25.5777C30.9537 25.647 30.9059 25.7378 30.8895 25.8366L30.5292 27.8242" stroke="#C9C3E0" stroke-width="0.5" stroke-linecap="round" stroke-linejoin="round"/>
<path d="M27.7922 30.1413L25.167 30.7163C24.4879 30.9045 23.875 31.2791 23.3979 31.7977C22.9208 32.3163 22.5984 32.9582 22.4674 33.6507C22.3364 34.3431 22.402 35.0584 22.6567 35.7155C22.9114 36.3726 23.345 36.9452 23.9085 37.3684L26.8506 39.5768C27.4142 40.0004 28.0852 40.2576 28.7876 40.3192C29.4899 40.3808 30.1954 40.2444 30.8242 39.9254C31.4529 39.6064 31.9797 39.1176 32.3448 38.5144C32.7098 37.9113 32.8986 37.2179 32.8896 36.5129L32.7086 33.8316" stroke="#C9C3E0" stroke-width="0.5" stroke-linecap="round" stroke-linejoin="round"/>
</g>
<path d="M278.63 28.3967L277.531 29.3376C277.357 29.4832 277.239 29.6856 277.198 29.9094C277.157 30.1332 277.197 30.3641 277.309 30.5618C277.422 30.7594 277.6 30.9112 277.814 30.9906C278.027 31.0699 278.261 31.0718 278.475 30.9958L279.993 30.4769C280.207 30.4009 280.442 30.4028 280.655 30.4821C280.868 30.5614 281.047 30.7132 281.159 30.9109C281.272 31.1086 281.311 31.3395 281.27 31.5633C281.23 31.7871 281.112 31.9895 280.937 32.135L279.838 33.0766" stroke="#DAD6E9" stroke-linecap="round" stroke-linejoin="round"/>
<path d="M277.801 29.1019L277.447 28.6885" stroke="#DAD6E9" stroke-linecap="round" stroke-linejoin="round"/>
<path d="M272.803 29.1016L278.572 24.161" stroke="#DAD6E9" stroke-linecap="round" stroke-linejoin="round"/>
<path d="M276.113 23.163L275.567 20.9237C275.537 20.814 275.474 20.716 275.387 20.6425C275.301 20.569 275.194 20.5234 275.08 20.5117C274.968 20.5065 274.857 20.5349 274.761 20.5934C274.664 20.652 274.588 20.7379 274.541 20.8402L273.97 22.2841C273.922 22.4145 273.827 22.5217 273.703 22.5836C273.579 22.6456 273.435 22.6577 273.303 22.6174L272.666 22.4296C272.581 22.4007 272.491 22.3923 272.403 22.405C272.314 22.4178 272.23 22.4513 272.157 22.5029C272.091 22.561 272.039 22.6343 272.007 22.7166C271.974 22.7989 271.962 22.8878 271.972 22.9757L272.055 23.6382C272.074 23.7756 272.04 23.9152 271.96 24.0282C271.88 24.1413 271.759 24.2193 271.623 24.2462L270.147 24.605C270.037 24.6339 269.939 24.6966 269.867 24.7841C269.795 24.8716 269.752 24.9796 269.744 25.0929C269.734 25.2062 269.76 25.3199 269.819 25.4171C269.878 25.5143 269.967 25.5898 270.073 25.6323L272.19 26.5227" stroke="#DAD6E9" stroke-linecap="round" stroke-linejoin="round"/>
<path d="M274.089 30.1301L274.08 33.1858C274.121 33.9861 274.386 34.7587 274.843 35.4163C275.301 36.0738 275.934 36.59 276.671 36.9062C277.407 37.2225 278.217 37.3262 279.009 37.2056C279.801 37.0851 280.544 36.745 281.153 36.224L284.33 33.5033C284.939 32.9823 285.39 32.3009 285.632 31.5366C285.873 30.7722 285.896 29.9555 285.697 29.1789C285.498 28.4023 285.086 27.697 284.506 27.143C283.927 26.589 283.204 26.2084 282.419 26.0444L279.398 25.5837" stroke="#DAD6E9" stroke-linecap="round" stroke-linejoin="round"/>
<g opacity="0.3">
<path d="M281.351 19.0441L280.252 19.9851C280.077 20.1306 279.959 20.333 279.919 20.5568C279.878 20.7806 279.918 21.0116 280.03 21.2092C280.143 21.4069 280.321 21.5587 280.534 21.638C280.747 21.7174 280.982 21.7192 281.196 21.6432L282.714 21.1243C282.928 21.0484 283.162 21.0502 283.376 21.1296C283.589 21.2089 283.767 21.3607 283.88 21.5584C283.992 21.756 284.032 21.987 283.991 22.2108C283.951 22.4346 283.832 22.6369 283.658 22.7825L282.558 23.724" stroke="#C9C3E0" stroke-width="0.5" stroke-linecap="round" stroke-linejoin="round"/>
<path d="M280.524 19.7494L280.17 19.3359" stroke="#C9C3E0" stroke-width="0.5" stroke-linecap="round" stroke-linejoin="round"/>
<path d="M283.702 23.4544L283.348 23.041" stroke="#C9C3E0" stroke-width="0.5" stroke-linecap="round" stroke-linejoin="round"/>
<path d="M275.523 19.7461L281.293 14.8056" stroke="#C9C3E0" stroke-width="0.5" stroke-linecap="round" stroke-linejoin="round"/>
<path d="M278.836 13.8095L278.289 11.5702C278.259 11.4605 278.197 11.3625 278.11 11.289C278.023 11.2155 277.916 11.1699 277.803 11.1582C277.691 11.1529 277.579 11.1814 277.483 11.2399C277.387 11.2984 277.311 11.3844 277.264 11.4867L276.692 12.9306C276.645 13.0609 276.549 13.1681 276.425 13.2301C276.301 13.2921 276.158 13.3042 276.025 13.2639L275.388 13.0761C275.304 13.0472 275.214 13.0388 275.125 13.0515C275.037 13.0642 274.953 13.0978 274.88 13.1493C274.813 13.2074 274.762 13.2808 274.729 13.3631C274.697 13.4454 274.685 13.5343 274.695 13.6222L274.778 14.2847C274.797 14.4221 274.763 14.5616 274.683 14.6747C274.602 14.7878 274.482 14.8658 274.346 14.8927L272.87 15.2515C272.76 15.2804 272.662 15.3431 272.59 15.4306C272.518 15.5181 272.475 15.6261 272.467 15.7394C272.456 15.8527 272.482 15.9664 272.542 16.0636C272.601 16.1608 272.69 16.2363 272.795 16.2788L274.913 17.1692" stroke="#C9C3E0" stroke-width="0.5" stroke-linecap="round" stroke-linejoin="round"/>
<path d="M276.81 20.7785L276.8 23.8343C276.842 24.6345 277.106 25.4072 277.564 26.0647C278.022 26.7223 278.655 27.2384 279.391 27.5547C280.128 27.8709 280.938 27.9747 281.73 27.8541C282.522 27.7335 283.265 27.3935 283.873 26.8725L287.05 24.1518C287.66 23.6307 288.111 22.9494 288.352 22.185C288.594 21.4207 288.617 20.6039 288.418 19.8273C288.219 19.0508 287.806 18.3455 287.227 17.7914C286.648 17.2374 285.924 16.8568 285.14 16.6929L282.119 16.2321" stroke="#C9C3E0" stroke-width="0.5" stroke-linecap="round" stroke-linejoin="round"/>
</g>
</svg>
