<svg width="26" height="25" viewBox="0 0 26 25" fill="none" xmlns="http://www.w3.org/2000/svg">
<path d="M22.6798 19.3822V20.8893C22.6798 22.5572 21.3334 23.9036 19.6656 23.9036H4.59432C2.92644 23.9036 1.58008 22.5572 1.58008 20.8893V10.3394C1.58008 8.67156 2.92644 7.3252 4.59432 7.3252H19.6656C21.3334 7.3252 22.6798 8.67156 22.6798 10.3394V11.8466" stroke="white" stroke-width="2" stroke-linecap="round" stroke-linejoin="round"/>
<path d="M19.6653 7.32652L17.3242 2.64439C17.1433 2.28268 16.8319 2.0114 16.4501 1.89083C16.0683 1.76021 15.6564 1.79035 15.2946 1.97121L4.58398 7.32652" stroke="white" stroke-width="2" stroke-linecap="round" stroke-linejoin="round"/>
<path d="M22.6782 19.3813C23.5121 19.3813 24.1853 18.7082 24.1853 17.8742V13.3528C24.1853 12.5189 23.5121 11.8457 22.6782 11.8457H18.9104C16.8306 11.8457 15.1426 13.5337 15.1426 15.6135C15.1426 17.6933 16.8306 19.3813 18.9104 19.3813H22.6782Z" stroke="white" stroke-width="2" stroke-linecap="round" stroke-linejoin="round"/>
<path d="M18.915 15.2324C19.126 15.2324 19.2968 15.4032 19.2968 15.6142C19.2968 15.8252 19.126 15.996 18.915 15.996C18.704 15.996 18.5332 15.8252 18.5332 15.6142C18.5332 15.4032 18.704 15.2324 18.915 15.2324Z" stroke="white" stroke-width="2" stroke-linecap="round" stroke-linejoin="round"/>
</svg>
