<svg width="31" height="32" viewBox="0 0 31 32" fill="none" xmlns="http://www.w3.org/2000/svg">
<path d="M23.3379 16.1813L25.3048 20.4388H29.1363C29.5322 20.426 29.8898 20.6568 30.043 21.0286C30.1963 21.4005 30.0941 21.8237 29.8004 22.0802L26.4797 25.3631L28.3189 29.6078C28.4849 30.0053 28.3827 30.467 28.0507 30.7491C27.7314 31.0312 27.2588 31.0826 26.8884 30.8646L22.4311 28.3511L17.9738 30.8646C17.6034 31.0826 17.1309 31.0312 16.8116 30.7491C16.4923 30.467 16.3773 30.0053 16.5434 29.6078L18.3825 25.3631L15.0619 22.0802C14.7681 21.8237 14.666 21.4005 14.8064 21.0286C14.9469 20.6568 15.3173 20.426 15.7132 20.4388H19.5447L21.5116 16.1813C21.6904 15.8479 22.0352 15.6299 22.4183 15.6299C22.8143 15.6299 23.1719 15.8479 23.3379 16.1813Z" stroke="#C9C3E0" stroke-width="1.5" stroke-linecap="round" stroke-linejoin="round"/>
<path d="M9.86948 21.9009H2.971C1.88038 21.9009 1 20.9673 1 19.8108V3.09009C1 1.93357 1.88038 1 2.971 1H26.623C27.7136 1 28.5939 1.93357 28.5939 3.09009V13.5405" stroke="#C9C3E0" stroke-width="1.5" stroke-linecap="round" stroke-linejoin="round"/>
<path d="M28.1482 1.7666L17.4523 10.4893C15.8887 11.7572 13.7205 11.7572 12.1569 10.4893L1.46094 1.7666" stroke="#C9C3E0" stroke-width="1.5" stroke-linecap="round" stroke-linejoin="round"/>
</svg>
