<?xml version="1.0" standalone="no"?>
<!DOCTYPE svg PUBLIC "-//W3C//DTD SVG 20010904//EN"
 "http://www.w3.org/TR/2001/REC-SVG-20010904/DTD/svg10.dtd">
<svg version="1.0" xmlns="http://www.w3.org/2000/svg"
 width="1582.000000pt" height="1582.000000pt" viewBox="0 0 1582.000000 1582.000000"
 preserveAspectRatio="xMidYMid meet">
<metadata>
Created by potrace 1.14, written by Peter Selinger 2001-2017
</metadata>
<g transform="translate(0.000000,1582.000000) scale(0.100000,-0.100000)"
fill="#000000" stroke="none">
<path d="M685 15804 c-331 -59 -598 -324 -660 -656 -15 -80 -16 -659 -13
-7235 1 -3932 6 -7168 9 -7193 14 -84 18 -105 38 -163 90 -261 297 -452 571
-528 l85 -23 4730 0 c4176 0 4884 2 5035 18 19 2 67 7 105 10 39 3 80 8 92 10
12 3 46 7 75 10 29 4 64 8 78 10 14 3 41 7 60 10 19 3 46 8 60 10 14 3 41 7
60 10 19 3 46 8 60 11 14 3 36 7 50 9 14 2 86 18 160 36 74 17 142 33 151 35
136 30 511 152 699 227 190 76 490 216 625 291 33 19 83 47 110 62 144 81 462
285 540 347 6 4 66 51 135 104 404 310 799 708 1107 1119 424 563 752 1219
942 1880 48 168 86 316 96 377 3 18 8 40 10 48 11 38 63 338 71 410 3 30 8 63
10 74 2 10 6 51 10 90 3 39 7 82 10 96 16 102 19 534 19 2600 0 2065 -4 2524
-20 2605 -2 11 -7 54 -11 95 -3 41 -7 82 -9 90 -1 8 -5 40 -9 70 -7 51 -28
184 -40 255 -4 25 -37 183 -51 250 -3 11 -7 32 -11 47 -3 15 -5 29 -4 30 1 2
-3 15 -9 31 -6 15 -13 38 -15 50 -20 108 -177 589 -235 722 -5 11 -16 36 -24
55 -193 457 -424 865 -693 1225 -119 160 -163 216 -192 250 -15 17 -49 57 -77
90 -155 186 -468 496 -680 674 -215 181 -507 391 -715 515 -25 15 -52 31 -60
36 -94 60 -450 245 -575 300 -27 12 -68 30 -90 40 -180 83 -622 235 -830 286
-5 1 -39 10 -75 19 -36 9 -76 18 -90 21 -13 3 -60 13 -105 24 -44 10 -100 21
-125 25 -25 4 -54 9 -65 11 -10 2 -37 6 -59 10 -22 3 -43 7 -46 9 -3 2 -30 6
-60 9 -30 3 -65 8 -78 11 -13 2 -53 7 -90 10 -37 3 -74 8 -82 10 -8 2 -58 7
-110 11 -52 3 -117 9 -145 11 -27 3 -2194 6 -4815 7 -3746 1 -4780 -1 -4835
-10z"/>
</g>
</svg>
