<svg width="110" height="105" viewBox="0 0 110 105" fill="none" xmlns="http://www.w3.org/2000/svg">
<path d="M97.2167 11.8048C111.585 32.8863 116.743 85.8271 97.2167 100.356C77.6908 114.886 33.4803 91.0044 19.1108 69.9229C4.74137 48.8414 20.2161 30.5607 39.7431 16.0304C59.27 1.50008 82.8483 -9.27664 97.2167 11.8048Z" fill="#C6FFE5"/>
<path d="M24.9004 58.7618L34.9757 73.0316C35.3605 73.6013 35.8734 74.073 36.4733 74.4087C37.0732 74.7445 37.7435 74.9349 38.4303 74.9649C39.1214 74.9845 39.8071 74.838 40.4298 74.5375C41.0524 74.237 41.5938 73.7914 42.0084 73.2381L74.2486 32.4429" stroke="#00EB81" stroke-width="3" stroke-linecap="round" stroke-linejoin="round"/>
<path d="M49.5746 99.9681C58.7248 99.9681 67.6695 97.2548 75.2776 92.1712C82.8857 87.0877 88.8155 79.8622 92.3171 71.4085C95.8187 62.9549 96.7349 53.6527 94.9498 44.6784C93.1647 35.704 88.7584 27.4605 82.2883 20.9904C75.8181 14.5203 67.5747 10.114 58.6003 8.32891C49.626 6.5438 40.3238 7.45999 31.8701 10.9616C23.4165 14.4632 16.191 20.393 11.1075 28.0011C6.02389 35.6092 3.31055 44.5539 3.31055 53.7041C3.31055 65.974 8.18479 77.7415 16.861 86.4177C25.5372 95.0939 37.3046 99.9681 49.5746 99.9681V99.9681Z" stroke="#00EB81" stroke-width="3" stroke-linecap="round" stroke-linejoin="round"/>
</svg>
