<svg width="21" height="21" viewBox="0 0 21 21" fill="none" xmlns="http://www.w3.org/2000/svg">
<path d="M10.8674 5.53089C10.8592 5.68713 10.7605 5.82691 10.6207 5.88447C10.4645 5.95848 10.2836 5.95025 10.1191 5.87624L8.39227 5.0293L6.67366 5.87624C6.51742 5.95025 6.33651 5.95026 6.18027 5.88447C6.04048 5.82691 5.94182 5.68713 5.93359 5.53089V1H10.8674V5.53089Z" stroke="#483493" stroke-linecap="round" stroke-linejoin="round"/>
<path d="M5.93381 14.568H1.7894C1.5756 14.568 1.37826 14.4858 1.23024 14.3295C1.08223 14.1815 1 13.9759 1 13.7704V1.79761C1 1.36179 1.35358 1 1.7894 1H15.012C15.4478 1 15.8014 1.36179 15.8014 1.79761V7.16726" stroke="#483493" stroke-linecap="round" stroke-linejoin="round"/>
<path d="M9.63281 14.5686V12.225C9.63281 11.7234 9.92062 11.2711 10.3811 11.0738L13.4647 9.73344C13.7772 9.60187 14.1308 9.60187 14.435 9.73344L17.5187 11.0738C17.9792 11.2711 18.267 11.7234 18.267 12.225V14.5686" stroke="#483493" stroke-linecap="round" stroke-linejoin="round"/>
<path d="M13.9531 11.7871C13.7804 11.7871 13.6406 11.9269 13.6406 12.0996C13.6406 12.2723 13.7804 12.4121 13.9531 12.4121C14.1258 12.4121 14.2656 12.2723 14.2656 12.0996C14.2656 11.9269 14.1258 11.7871 13.9531 11.7871Z" stroke="#483493" stroke-linecap="round" stroke-linejoin="round"/>
<path d="M8.40234 14.5684H19.5034" stroke="#483493" stroke-linecap="round" stroke-linejoin="round"/>
<path d="M17.6028 16.418C17.3068 18.2024 15.7609 19.5098 13.9518 19.5098C12.1427 19.5098 10.605 18.2024 10.3008 16.418" stroke="#483493" stroke-linecap="round" stroke-linejoin="round"/>
</svg>
