<svg width="18" height="18" viewBox="0 0 18 18" fill="none" xmlns="http://www.w3.org/2000/svg">
<path d="M15.9336 13.5714V15.8571C15.9336 16.4895 15.4571 17 14.8669 17H2.60003C1.71823 17 1 16.2305 1 15.2857V2.71429C1 1.76952 1.71823 1 2.60003 1H13.8002C14.0847 1 14.3549 1.1219 14.554 1.33524C14.7531 1.54857 14.8669 1.8381 14.8669 2.14286V3.85714" stroke="#483493" stroke-linecap="round" stroke-linejoin="round"/>
<path d="M15.933 13.5698C16.5233 13.5698 16.9997 13.0593 16.9997 12.4269V8.99833C16.9997 8.36594 16.5233 7.85547 15.933 7.85547H13.2663C11.7943 7.85547 10.5996 9.13547 10.5996 10.7126C10.5996 12.2898 11.7943 13.5698 13.2663 13.5698H15.933Z" stroke="#483493" stroke-linecap="round" stroke-linejoin="round"/>
<path d="M13.2663 10.4258C13.4157 10.4258 13.5365 10.5553 13.5365 10.7153C13.5365 10.8753 13.4157 11.0048 13.2663 11.0048C13.117 11.0048 12.9961 10.8753 12.9961 10.7153C12.9961 10.5553 13.117 10.4258 13.2663 10.4258Z" stroke="#483493" stroke-linecap="round" stroke-linejoin="round"/>
<path d="M15.9337 7.85759V5.00045C15.9337 4.36807 15.4572 3.85759 14.867 3.85759H4.47038C3.99393 3.88045 3.55303 3.61378 3.31836 3.17188" stroke="#483493" stroke-linecap="round" stroke-linejoin="round"/>
</svg>
