<svg width="42" height="42" viewBox="0 0 42 42" fill="none" xmlns="http://www.w3.org/2000/svg">
<path d="M1 3.66667C1 2.19111 2.19111 1 3.66667 1H14.3333C15.8089 1 17 2.19111 17 3.66667V14.3333C17 15.8089 15.8089 17 14.3333 17H3.66667C2.19111 17 1 15.8089 1 14.3333V3.66667Z" stroke="#DAD6E9" stroke-width="1.5" stroke-linecap="round" stroke-linejoin="round"/>
<path d="M1 27.6667C1 26.1911 2.19111 25 3.66667 25H14.3333C15.8089 25 17 26.1911 17 27.6667V38.3333C17 39.8089 15.8089 41 14.3333 41H3.66667C2.19111 41 1 39.8089 1 38.3333V27.6667Z" stroke="#DAD6E9" stroke-width="1.5" stroke-linecap="round" stroke-linejoin="round"/>
<path d="M24.9999 3.66667C24.9999 2.19111 26.191 1 27.6665 1H38.3332C39.8088 1 40.9999 2.19111 40.9999 3.66667V14.3333C40.9999 15.8089 39.8088 17 38.3332 17H27.6665C26.191 17 24.9999 15.8089 24.9999 14.3333V3.66667Z" stroke="#DAD6E9" stroke-width="1.5" stroke-linecap="round" stroke-linejoin="round"/>
<path d="M24.9999 27.6667C24.9999 26.1911 26.191 25 27.6665 25H38.3332C39.8088 25 40.9999 26.1911 40.9999 27.6667V38.3333C40.9999 39.8089 39.8088 41 38.3332 41H27.6665C26.191 41 24.9999 39.8089 24.9999 38.3333V27.6667Z" stroke="#DAD6E9" stroke-width="1.5" stroke-linecap="round" stroke-linejoin="round"/>
</svg>
