<svg width="44" height="30" viewBox="0 0 44 30" fill="none" xmlns="http://www.w3.org/2000/svg">
<path d="M43 20.6V26.2C43 27.7493 41.7493 29 40.2 29H3.8C2.25067 29 1 27.7493 1 26.2V20.6C4.09867 20.6 6.6 18.0987 6.6 15C6.6 11.9013 4.09867 9.4 1 9.4V3.8C1 2.25067 2.25067 1 3.8 1H40.2C41.7493 1 43 2.25067 43 3.8V9.4C39.9013 9.4 37.4 11.9013 37.4 15C37.4 18.08 39.9013 20.6 43 20.6Z" stroke="#DAD6E9" stroke-width="1.5" stroke-linecap="round" stroke-linejoin="round"/>
<path d="M15 12.2001C16.5493 12.2001 17.8 10.9494 17.8 9.4001C17.8 7.85076 16.5493 6.6001 15 6.6001C13.4506 6.6001 12.2 7.85076 12.2 9.4001C12.2 10.9494 13.4506 12.2001 15 12.2001Z" stroke="#DAD6E9" stroke-width="1.5" stroke-linecap="round" stroke-linejoin="round"/>
<path d="M30.4 23.4C31.9493 23.4 33.2 22.1494 33.2 20.6C33.2 19.0507 31.9493 17.8 30.4 17.8C28.8506 17.8 27.6 19.0507 27.6 20.6C27.6 22.1494 28.8506 23.4 30.4 23.4Z" stroke="#DAD6E9" stroke-width="1.5" stroke-linecap="round" stroke-linejoin="round"/>
<path d="M29 8L15 22" stroke="#DAD6E9" stroke-width="1.5" stroke-linecap="round" stroke-linejoin="round"/>
</svg>
