<svg width="44" height="42" viewBox="0 0 44 42" fill="none" xmlns="http://www.w3.org/2000/svg">
<path d="M14.5 3.66667C14.5 2.19111 15.7507 1 17.3 1H39.7C41.2493 1 42.5 2.19111 42.5 3.66667V6.33333C42.5 7.80889 41.2493 9 39.7 9H17.3C15.7507 9 14.5 7.80889 14.5 6.33333V3.66667Z" stroke="#DAD6E9" stroke-width="1.5" stroke-linecap="round" stroke-linejoin="round"/>
<path d="M14.5 19.4667C14.5 17.9912 15.7507 16.8 17.3 16.8H39.7C41.2493 16.8 42.5 17.9912 42.5 19.4667V22.1334C42.5 23.6089 41.2493 24.8 39.7 24.8H17.3C15.7507 24.8 14.5 23.6089 14.5 22.1334V19.4667Z" stroke="#DAD6E9" stroke-width="1.5" stroke-linecap="round" stroke-linejoin="round"/>
<path d="M14.5 35.2668C14.5 33.7912 15.7507 32.6001 17.3 32.6001H39.7C41.2493 32.6001 42.5 33.7912 42.5 35.2668V37.9334C42.5 39.409 41.2493 40.6001 39.7 40.6001H17.3C15.7507 40.6001 14.5 39.409 14.5 37.9334V35.2668Z" stroke="#DAD6E9" stroke-width="1.5" stroke-linecap="round" stroke-linejoin="round"/>
<path d="M1.5 3.66667C1.5 2.19111 2.69111 1 4.16667 1H6.83333C8.30889 1 9.5 2.19111 9.5 3.66667V6.33333C9.5 7.80889 8.30889 9 6.83333 9H4.16667C2.69111 9 1.5 7.80889 1.5 6.33333V3.66667Z" stroke="#DAD6E9" stroke-width="1.5" stroke-linecap="round" stroke-linejoin="round"/>
<path d="M1.5 19.4667C1.5 17.9912 2.69111 16.8 4.16667 16.8H6.83333C8.30889 16.8 9.5 17.9912 9.5 19.4667V22.1334C9.5 23.6089 8.30889 24.8 6.83333 24.8H4.16667C2.69111 24.8 1.5 23.6089 1.5 22.1334V19.4667Z" stroke="#DAD6E9" stroke-width="1.5" stroke-linecap="round" stroke-linejoin="round"/>
<path d="M1.5 35.2668C1.5 33.7912 2.69111 32.6001 4.16667 32.6001H6.83333C8.30889 32.6001 9.5 33.7912 9.5 35.2668V37.9334C9.5 39.409 8.30889 40.6001 6.83333 40.6001H4.16667C2.69111 40.6001 1.5 39.409 1.5 37.9334V35.2668Z" stroke="#DAD6E9" stroke-width="1.5" stroke-linecap="round" stroke-linejoin="round"/>
</svg>
