<svg width="143" height="143" viewBox="0 0 143 143" fill="none" xmlns="http://www.w3.org/2000/svg">
<path d="M2 11.2667C2 6.13911 6.13911 2 11.2667 2H48.3333C53.4609 2 57.6 6.13911 57.6 11.2667V48.3333C57.6 53.4609 53.4609 57.6 48.3333 57.6H11.2667C6.13911 57.6 2 53.4609 2 48.3333V11.2667Z" stroke="#C9C3E0" stroke-width="3" stroke-linecap="round" stroke-linejoin="round"/>
<path d="M2 94.6666C2 89.539 6.13911 85.3999 11.2667 85.3999H48.3333C53.4609 85.3999 57.6 89.539 57.6 94.6666V131.733C57.6 136.861 53.4609 141 48.3333 141H11.2667C6.13911 141 2 136.861 2 131.733V94.6666Z" stroke="#C9C3E0" stroke-width="3" stroke-linecap="round" stroke-linejoin="round"/>
<path d="M85.3999 11.2667C85.3999 6.13911 89.539 2 94.6666 2H131.733C136.861 2 141 6.13911 141 11.2667V48.3333C141 53.4609 136.861 57.6 131.733 57.6H94.6666C89.539 57.6 85.3999 53.4609 85.3999 48.3333V11.2667Z" stroke="#C9C3E0" stroke-width="3" stroke-linecap="round" stroke-linejoin="round"/>
<path d="M85.4004 94.2667C85.4004 89.1391 89.5395 85 94.6671 85H131.734C136.861 85 141 89.1391 141 94.2667V131.333C141 136.461 136.861 140.6 131.734 140.6H94.6671C89.5395 140.6 85.4004 136.461 85.4004 131.333V94.2667Z" stroke="#C9C3E0" stroke-width="3" stroke-linecap="round" stroke-linejoin="round"/>
</svg>
