<svg width="82" height="82" viewBox="0 0 82 82" fill="none" xmlns="http://www.w3.org/2000/svg">
<path d="M4.80527 14.4344L37.1473 1.74636C39.5996 0.751215 42.3719 0.751215 44.8242 1.74636L77.1663 14.4344C79.5119 15.4296 81.0402 17.7753 80.9691 20.3342V61.6682C81.0402 64.2271 79.5119 66.5728 77.1663 67.568L44.8242 80.2559C42.3719 81.2155 39.5996 81.2155 37.1473 80.2559L4.80527 67.568C2.45958 66.5728 0.931296 64.2271 1.00238 61.6682V20.3342C0.966837 17.8108 2.45958 15.4651 4.80527 14.4344Z" stroke="#C9C3E0" stroke-width="2" stroke-linecap="round" stroke-linejoin="round"/>
<path d="M41.0198 31.5985L2.28027 16.4226" stroke="#C9C3E0" stroke-width="2" stroke-linecap="round" stroke-linejoin="round"/>
<path d="M41.0205 31.5985L79.7598 16.4226" stroke="#C9C3E0" stroke-width="2" stroke-linecap="round" stroke-linejoin="round"/>
<path d="M41.0205 81.0002V31.5984" stroke="#C9C3E0" stroke-width="2" stroke-linecap="round" stroke-linejoin="round"/>
</svg>
