<svg width="20" height="20" viewBox="0 0 20 20" fill="none" xmlns="http://www.w3.org/2000/svg">
<path d="M13.0001 7.728C13.0001 7.88 12.9202 8.024 12.7842 8.096C12.6482 8.168 12.4881 8.16799 12.3521 8.08799L10.0001 7L7.62417 8.152C7.48817 8.216 7.33615 8.21601 7.20015 8.13601C7.07215 8.06401 6.99219 7.928 6.99219 7.776V1H12.9922V7.728H13.0001Z" stroke="#C9C3E0" stroke-linecap="round" stroke-linejoin="round"/>
<path d="M1 2.2C1 1.536 1.536 1 2.2 1H17.8C18.464 1 19 1.536 19 2.2V17.8C19 18.464 18.464 19 17.8 19H2.2C1.536 19 1 18.464 1 17.8V2.2Z" stroke="#C9C3E0" stroke-linecap="round" stroke-linejoin="round"/>
<path d="M10.5996 13.5996H16.5996V16.5996H10.5996V13.5996Z" stroke="#C9C3E0" stroke-linecap="round" stroke-linejoin="round"/>
</svg>
