<svg width="54" height="54" viewBox="0 0 54 54" fill="none" xmlns="http://www.w3.org/2000/svg">
<path d="M1 4.46667C1 2.54844 2.54844 1 4.46667 1H18.3333C20.2516 1 21.8 2.54844 21.8 4.46667V18.3333C21.8 20.2516 20.2516 21.8 18.3333 21.8H4.46667C2.54844 21.8 1 20.2516 1 18.3333V4.46667Z" stroke="#DAD6E9" stroke-width="2" stroke-linecap="round" stroke-linejoin="round"/>
<path d="M1 35.6669C1 33.7486 2.54844 32.2002 4.46667 32.2002H18.3333C20.2516 32.2002 21.8 33.7486 21.8 35.6669V49.5335C21.8 51.4517 20.2516 53.0002 18.3333 53.0002H4.46667C2.54844 53.0002 1 51.4517 1 49.5335V35.6669Z" stroke="#DAD6E9" stroke-width="2" stroke-linecap="round" stroke-linejoin="round"/>
<path d="M32.2002 4.46667C32.2002 2.54844 33.7486 1 35.6669 1H49.5335C51.4517 1 53.0002 2.54844 53.0002 4.46667V18.3333C53.0002 20.2516 51.4517 21.8 49.5335 21.8H35.6669C33.7486 21.8 32.2002 20.2516 32.2002 18.3333V4.46667Z" stroke="#DAD6E9" stroke-width="2" stroke-linecap="round" stroke-linejoin="round"/>
<path d="M32.2002 35.6669C32.2002 33.7486 33.7486 32.2002 35.6669 32.2002H49.5335C51.4517 32.2002 53.0002 33.7486 53.0002 35.6669V49.5335C53.0002 51.4517 51.4517 53.0002 49.5335 53.0002H35.6669C33.7486 53.0002 32.2002 51.4517 32.2002 49.5335V35.6669Z" stroke="#DAD6E9" stroke-width="2" stroke-linecap="round" stroke-linejoin="round"/>
</svg>
