<svg width="135" height="135" viewBox="0 0 135 135" fill="none" xmlns="http://www.w3.org/2000/svg">
<path opacity="0.08" d="M74.0074 117.719C50.0414 114.801 9.24329 85.4326 11.1743 62.4487C13.1054 39.4647 57.7655 22.8634 81.7322 25.7812C105.699 28.699 108.969 51.1373 107.038 74.1227C105.107 97.108 97.9734 120.638 74.0074 117.719Z" fill="#B9BECB"/>
<path d="M69.2457 126.602C82.6057 126.602 93.4633 115.745 93.4633 102.385C93.4633 89.0245 82.6057 78.167 69.2457 78.167C55.8856 78.167 45.0281 89.0245 45.0281 102.385C45.0281 115.745 55.8856 126.602 69.2457 126.602Z" stroke="#B9BECB" stroke-width="2.5" stroke-linecap="round" stroke-linejoin="round"/>
<path d="M78.327 93.3027L60.1638 111.466" stroke="#B9BECB" stroke-width="2.5" stroke-linecap="round" stroke-linejoin="round"/>
<path d="M60.1638 93.3027L78.327 111.466" stroke="#B9BECB" stroke-width="2.5" stroke-linecap="round" stroke-linejoin="round"/>
<path d="M32.919 108.439H8.70137C5.35127 108.439 2.64697 105.735 2.64697 102.384V60.0036C2.64697 56.6535 5.35127 53.9492 8.70137 53.9492H69.2454C72.5955 53.9492 75.2998 56.6535 75.2998 60.0036V66.058" stroke="#B9BECB" stroke-width="2.5" stroke-linecap="round" stroke-linejoin="round"/>
<path d="M73.3626 55.5249L61.9804 38.4514C60.8503 36.7562 58.9935 35.7471 56.9754 35.7471H21.0526C19.0345 35.7471 17.1375 36.7562 16.0073 38.4514L4.625 55.5249" stroke="#B9BECB" stroke-width="2.5" stroke-linecap="round" stroke-linejoin="round"/>
<path d="M38.9727 35.7861V53.9493" stroke="#B9BECB" stroke-width="2.5" stroke-linecap="round" stroke-linejoin="round"/>
</svg>
