<svg width="131" height="130" viewBox="0 0 131 130" fill="none" xmlns="http://www.w3.org/2000/svg">
<path d="M68.5592 119.906C73.0393 119.906 77.4187 118.569 81.1437 116.065C84.8687 113.56 87.772 110.001 89.4864 105.836C91.2009 101.671 91.6495 97.0879 90.7754 92.6665C89.9014 88.2451 87.7441 84.1838 84.5762 80.9962C81.4084 77.8086 77.3723 75.6377 72.9783 74.7583C68.5844 73.8788 64.0299 74.3302 59.8909 76.0553C55.7519 77.7805 52.2142 80.7019 49.7252 84.4502C47.2363 88.1984 45.9078 92.6052 45.9078 97.1132C45.9078 103.158 48.2943 108.956 52.5422 113.23C56.7902 117.505 62.5517 119.906 68.5592 119.906Z" stroke="#00D96F" stroke-width="2.5" stroke-linecap="round" stroke-linejoin="round"/>
<path d="M78.6388 90.4648L67.6529 105.204C67.4081 105.524 67.101 105.79 66.7505 105.986C66.3999 106.182 66.0133 106.304 65.6143 106.344C65.2063 106.361 64.7991 106.296 64.4165 106.153C64.034 106.009 63.6839 105.79 63.3869 105.508L57.724 99.9619" stroke="#00D96F" stroke-width="2.5" stroke-linecap="round" stroke-linejoin="round"/>
<path d="M34.5821 102.809H11.9307C10.4288 102.809 8.98843 102.209 7.92644 101.14C6.86444 100.072 6.26782 98.6224 6.26782 97.1112V57.2236C6.26782 55.7123 6.86444 54.263 7.92644 53.1944C8.98843 52.1257 10.4288 51.5254 11.9307 51.5254H68.5593C70.0612 51.5254 71.5016 52.1257 72.5636 53.1944C73.6256 54.263 74.2222 55.7123 74.2222 57.2236V62.9218" stroke="#00D96F" stroke-width="2.5" stroke-linecap="round" stroke-linejoin="round"/>
<path d="M72.3722 53.0459L61.726 36.9769C61.215 36.1969 60.5201 35.5562 59.7033 35.1121C58.8865 34.668 57.9731 34.4342 57.0447 34.4317H23.445C22.5102 34.4279 21.5892 34.6587 20.7652 35.1031C19.9413 35.5475 19.2404 36.1915 18.726 36.9769L8.07977 53.0459" stroke="#00D96F" stroke-width="2.5" stroke-linecap="round" stroke-linejoin="round"/>
<path d="M40.245 34.4316V51.5263" stroke="#00D96F" stroke-width="2.5" stroke-linecap="round" stroke-linejoin="round"/>
<path d="M71.3403 113.476C48.238 110.663 8.91019 82.3529 10.7716 60.1973C12.6331 38.0416 55.6837 22.0387 78.7867 24.8513C101.89 27.6639 105.042 49.2936 103.181 71.4506C101.32 93.6076 94.4426 116.289 71.3403 113.476Z" fill="#00D96F" fill-opacity="0.08"/>
</svg>
