<svg width="128" height="123" viewBox="0 0 128 123" fill="none" xmlns="http://www.w3.org/2000/svg">
<path d="M72.2169 107.367C50.3582 104.705 13.1477 77.9198 14.9089 56.9569C16.6701 35.994 57.4032 20.8525 79.2624 23.5137C101.122 26.1749 104.105 46.6402 102.343 67.6044C100.582 88.5686 94.0755 110.029 72.2169 107.367Z" fill="#B9BECB" fill-opacity="0.2"/>
<path d="M65.509 116.489C70.0765 116.489 74.5416 115.135 78.3394 112.597C82.1372 110.059 85.0972 106.453 86.8451 102.233C88.5931 98.0127 89.0504 93.3693 88.1593 88.8895C87.2682 84.4096 85.0687 80.2947 81.839 77.0649C78.6092 73.8351 74.4942 71.6356 70.0144 70.7445C65.5346 69.8534 60.8911 70.3108 56.6712 72.0587C52.4513 73.8067 48.8445 76.7667 46.3069 80.5645C43.7693 84.3623 42.4149 88.8273 42.4149 93.3949C42.4149 99.5198 44.848 105.394 49.179 109.725C53.5099 114.056 59.384 116.489 65.509 116.489Z" stroke="#B9BECB" stroke-width="2.5" stroke-linecap="round" stroke-linejoin="round"/>
<path d="M74.169 84.7344L56.8484 102.055" stroke="#B9BECB" stroke-width="2.5" stroke-linecap="round" stroke-linejoin="round"/>
<path d="M56.8484 84.7344L74.169 102.055" stroke="#B9BECB" stroke-width="2.5" stroke-linecap="round" stroke-linejoin="round"/>
<path d="M30.8676 99.1688H7.77353C6.24229 99.1688 4.77377 98.5605 3.69103 97.4777C2.60828 96.395 2 94.9265 2 93.3952V52.9806C2 51.4493 2.60828 49.9808 3.69103 48.8981C4.77377 47.8153 6.24229 47.207 7.77353 47.207H65.5088C67.04 47.207 68.5085 47.8153 69.5913 48.8981C70.674 49.9808 71.2823 51.4493 71.2823 52.9806V58.7541" stroke="#B9BECB" stroke-width="2.5" stroke-linecap="round" stroke-linejoin="round"/>
<path d="M69.4358 48.746L58.543 32.4646C58.0272 31.6694 57.3198 31.0165 56.4859 30.5659C55.6519 30.1153 54.7182 29.8815 53.7703 29.8858H19.514C18.5616 29.8854 17.6238 30.1207 16.7843 30.5707C15.9449 31.0206 15.2298 31.6713 14.7027 32.4646L3.84851 48.746" stroke="#B9BECB" stroke-width="2.5" stroke-linecap="round" stroke-linejoin="round"/>
<path d="M36.641 29.8857V47.2063" stroke="#B9BECB" stroke-width="2.5" stroke-linecap="round" stroke-linejoin="round"/>
</svg>
