<svg width="135" height="136" viewBox="0 0 135 136" fill="none" xmlns="http://www.w3.org/2000/svg">
<path opacity="0.08" d="M74.0784 118.823C50.0894 115.902 9.25215 86.5055 11.185 63.4995C13.1179 40.4935 57.821 23.8763 81.8106 26.7969C105.8 29.7174 109.074 52.1773 107.141 75.1847C105.208 98.1921 98.0675 121.744 74.0784 118.823Z" fill="#FFC72A"/>
<path d="M68.9282 127.753C82.307 127.753 93.1798 116.88 93.1798 103.502C93.1798 90.1228 82.307 79.25 68.9282 79.25C55.5494 79.25 44.6766 90.1228 44.6766 103.502C44.6766 116.88 55.5494 127.753 68.9282 127.753Z" stroke="#FFC72A" stroke-width="2.5" stroke-linecap="round" stroke-linejoin="round"/>
<path d="M79.6787 103.502H68.9676V92.791" stroke="#FFC72A" stroke-width="2.5" stroke-linecap="round" stroke-linejoin="round"/>
<path d="M32.5505 109.566H8.29887C4.94406 109.566 2.23596 106.858 2.23596 103.503V61.0629C2.23596 57.7081 4.94406 55 8.29887 55H68.928C72.2828 55 74.9909 57.7081 74.9909 61.0629V67.1258" stroke="#FFC72A" stroke-width="2.5" stroke-linecap="round" stroke-linejoin="round"/>
<path d="M73.0511 56.5771L61.6529 39.4796C60.5211 37.782 58.6618 36.7715 56.6408 36.7715H20.6676C18.6466 36.7715 16.7469 37.782 15.6152 39.4796L4.21686 56.5771" stroke="#FFC72A" stroke-width="2.5" stroke-linecap="round" stroke-linejoin="round"/>
<path d="M38.6126 36.8105V54.9993" stroke="#FFC72A" stroke-width="2.5" stroke-linecap="round" stroke-linejoin="round"/>
</svg>
