<svg width="132" height="132" viewBox="0 0 132 132" fill="none" xmlns="http://www.w3.org/2000/svg">
<path d="M87.3356 49.8436C87.3356 50.9245 86.7669 51.9484 85.7998 52.4604C84.8327 52.9724 83.6947 52.9724 82.7276 52.4035L66.0022 44.6667L49.1064 52.8587C48.1393 53.3138 47.0582 53.3139 46.0911 52.745C45.1809 52.233 44.6123 51.2658 44.6123 50.1849V2H87.279V49.8436H87.3356Z" stroke="#C9C3E0" stroke-width="3" stroke-linecap="round" stroke-linejoin="round"/>
<path d="M2 10.5333C2 5.81156 5.81156 2 10.5333 2H121.467C126.188 2 130 5.81156 130 10.5333V121.467C130 126.188 126.188 130 121.467 130H10.5333C5.81156 130 2 126.188 2 121.467V10.5333Z" stroke="#C9C3E0" stroke-width="3" stroke-linecap="round" stroke-linejoin="round"/>
<path d="M70.2686 91.6001H112.935V112.933H70.2686V91.6001Z" stroke="#C9C3E0" stroke-width="3" stroke-linecap="round" stroke-linejoin="round"/>
</svg>
