<svg width="135" height="135" viewBox="0 0 135 135" fill="none" xmlns="http://www.w3.org/2000/svg">
<path d="M103.012 117.628C116.966 111.692 123.482 95.554 117.546 81.5658C111.61 67.5776 95.4719 61.0953 81.4837 67.0317C67.5297 72.9682 61.0133 89.106 66.9497 103.094C72.8862 117.082 89.0237 123.565 103.012 117.628Z" stroke="#C9C3E0" stroke-width="3" stroke-linecap="round" stroke-linejoin="round"/>
<path d="M111.678 111.76L133.001 133.084" stroke="#C9C3E0" stroke-width="3" stroke-linecap="round" stroke-linejoin="round"/>
<path d="M83.5082 47.7764C83.5082 48.8088 82.9651 49.7868 82.0414 50.2758C81.1176 50.7649 80.0307 50.7648 79.1069 50.2214L63.1317 42.8316L46.9937 50.6562C46.07 51.0909 45.0374 51.091 44.1137 50.5476C43.2443 50.0586 42.7012 49.1348 42.7012 48.1024V2.07861H83.4542V47.7764H83.5082Z" stroke="#C9C3E0" stroke-width="3" stroke-linecap="round" stroke-linejoin="round"/>
<path d="M59.3427 124.338H10.1506C5.6406 124.338 2 120.697 2 116.187V10.2292C2 5.71922 5.6406 2.07861 10.1506 2.07861H116.108C120.618 2.07861 124.259 5.71922 124.259 10.2292V58.3394" stroke="#C9C3E0" stroke-width="3" stroke-linecap="round" stroke-linejoin="round"/>
</svg>
