<svg width="26" height="26" viewBox="0 0 26 26" fill="none" xmlns="http://www.w3.org/2000/svg">
<path d="M24.9994 14.6001V2.60002C24.9994 1.71467 24.2848 1 23.3994 1H5.79924C4.91389 1 4.19922 1.71467 4.19922 2.60002V6.60006" stroke="#9185BE" stroke-width="1.5" stroke-linecap="round" stroke-linejoin="round"/>
<path d="M4.19922 5.7998H24.9994" stroke="#9185BE" stroke-width="1.5" stroke-linecap="round" stroke-linejoin="round"/>
<path d="M1 11.4018C1 10.5164 1.71467 9.80176 2.60002 9.80176H20.2002C21.0855 9.80176 21.8002 10.5164 21.8002 11.4018V23.4019C21.8002 24.2872 21.0855 25.0019 20.2002 25.0019H2.60002C1.71467 25.0019 1 24.2872 1 23.4019V11.4018Z" stroke="#9185BE" stroke-width="1.5" stroke-linecap="round" stroke-linejoin="round"/>
<path d="M1 14.6016H21.8002" stroke="#9185BE" stroke-width="1.5" stroke-linecap="round" stroke-linejoin="round"/>
<path d="M4.19922 19.3994H6.59924" stroke="#9185BE" stroke-width="1.5" stroke-linecap="round" stroke-linejoin="round"/>
<path d="M14.9932 18.5984C14.4811 17.905 13.5745 17.6278 12.7638 17.9051C11.9424 18.1825 11.3984 18.9397 11.3984 19.8037C11.3984 20.6677 11.9531 21.4251 12.7638 21.7024C13.5851 21.9798 14.4811 21.6917 14.9932 21.0091C15.5052 21.7024 16.4118 21.9798 17.2225 21.7024C18.0438 21.4251 18.5879 20.6677 18.5879 19.8037C18.5879 18.9397 18.0332 18.1825 17.2225 17.9051C16.4118 17.6278 15.5052 17.905 14.9932 18.5984Z" stroke="#9185BE" stroke-width="1.5" stroke-linecap="round" stroke-linejoin="round"/>
</svg>
