
<svg width="110" height="22" viewBox="0 0 110 22" fill="none" xmlns="http://www.w3.org/2000/svg">
<path d="M14.0848 4.06062H12.5598C12.2596 4.06062 12.0195 4.31942 12.0195 4.64285V15.0318C12.0195 15.3552 12.2596 15.614 12.5598 15.614H14.0848C14.3849 15.614 14.6251 15.3552 14.6251 15.0318V4.64285C14.6251 4.31942 14.3849 4.06062 14.0848 4.06062Z" fill="#F1C03F"/>
<path d="M14.0379 0H12.513C12.2128 0 11.9727 0.258757 11.9727 0.582201V2.07003C11.9727 2.39348 12.2128 2.65223 12.513 2.65223H14.0379C14.3381 2.65223 14.5782 2.39348 14.5782 2.07003V0.582201C14.5782 0.258757 14.3381 0 14.0379 0Z" fill="#F1C03F"/>
<path d="M29.9227 6.06055H28.3978C28.0976 6.06055 27.8574 6.31934 27.8574 6.64278V17.0317C27.8574 17.3552 28.0976 17.614 28.3978 17.614H29.9227C30.2229 17.614 30.4631 17.3552 30.4631 17.0317V6.64278C30.4631 6.31934 30.2229 6.06055 29.9227 6.06055Z" fill="#F1C03F"/>
<path d="M29.9227 2H28.3978C28.0976 2 27.8574 2.25876 27.8574 2.5822V4.07003C27.8574 4.39348 28.0976 4.65223 28.3978 4.65223H29.9227C30.2229 4.65223 30.4631 4.39348 30.4631 4.07003V2.5822C30.4631 2.25876 30.2229 2 29.9227 2Z" fill="#F1C03F"/>
<path d="M54.141 17.6191H51.9796C51.8115 17.6191 51.6554 17.5414 51.5593 17.3991L49.0378 14.0094L46.5162 17.3991C46.4082 17.5414 46.2641 17.6191 46.096 17.6191H43.9467C43.6104 17.6191 43.4303 17.2051 43.6345 16.9204L47.4288 11.8359L43.6345 6.75138C43.4183 6.46678 43.6104 6.05273 43.9467 6.05273H46.108C46.2761 6.05273 46.4202 6.1304 46.5282 6.2727L49.0498 9.61061L51.5714 6.2727C51.6794 6.1304 51.8236 6.05273 51.9916 6.05273H54.153C54.4892 6.05273 54.6693 6.46678 54.4652 6.75138L50.6708 11.8359L54.4652 16.9204C54.6573 17.2051 54.4771 17.6191 54.141 17.6191Z" fill="#F1C03F"/>
<path d="M10.1823 0H8.51331C8.21313 0 7.97294 0.258757 7.97294 0.582201V4.06246H3.95045C1.77711 4.06246 0 5.96432 0 8.31898V11.3723C0 13.7269 1.7651 15.6287 3.95045 15.6287H6.62811C6.94033 15.6287 7.2285 15.4735 7.40862 15.2148L7.96093 14.4385V15.0336C7.96093 15.3571 8.20112 15.6158 8.5013 15.6158H10.1703C10.4705 15.6158 10.7107 15.3571 10.7107 15.0336V0.582201C10.7226 0.258757 10.4825 0 10.1823 0ZM7.96093 12.6531H4.01049C3.31406 12.6531 2.7377 12.045 2.7377 11.2817V8.39657C2.7377 7.64622 3.30205 7.02516 4.01049 7.02516H7.96093V12.6531Z" fill="#F1C03F"/>
<path d="M26.0202 6.06568H24.3512C24.051 6.06568 23.8109 6.32447 23.8109 6.64791V7.25595L23.2705 6.47972C23.0784 6.20798 22.7902 6.05273 22.478 6.05273H19.7884C17.603 6.05273 15.8379 7.9546 15.8379 10.3093V13.3626C15.8379 15.7043 17.603 17.6191 19.7884 17.6191H23.8109V17.8132C23.8109 18.5635 23.2465 19.1845 22.5381 19.1845H18.8758C18.5516 19.1845 18.3595 19.5856 18.5636 19.8702L19.7523 21.565C19.9445 21.8368 20.2326 21.992 20.5448 21.992H22.6101C24.7955 21.992 26.5606 20.0902 26.5606 17.7355V6.63497C26.5606 6.32447 26.3205 6.06568 26.0202 6.06568ZM23.8109 14.8116H19.8604C19.164 14.8116 18.5876 14.2035 18.5876 13.4402V10.3998C18.5876 9.64944 19.152 9.02846 19.8604 9.02846H23.8109V14.8116Z" fill="#F1C03F"/>
<path d="M62.3796 6.06055H59.6899C59.3777 6.06055 59.0895 6.21579 58.8975 6.48753L58.3571 7.26376V6.65572C58.3571 6.33228 58.117 6.07349 57.8167 6.07349H56.1477C55.8475 6.07349 55.6074 6.33228 55.6074 6.65572V11.0287V21.4176C55.6074 21.7411 55.8596 21.9998 56.1838 21.9998H57.7928C58.105 21.9998 58.3691 21.7411 58.3691 21.4176V17.6269H62.3916C64.5769 17.6269 66.342 15.725 66.342 13.3704V10.3171C66.33 7.96241 64.553 6.06055 62.3796 6.06055ZM63.5683 13.4351C63.5683 14.1854 63.004 14.8064 62.2955 14.8064H58.3451V11.0157V9.03627H62.2955C62.9919 9.03627 63.5683 9.64431 63.5683 10.4076V13.4351Z" fill="#F1C03F"/>
<path d="M74.2305 6.63497V8.45917C74.2305 8.76966 73.9902 9.02846 73.7018 9.02846H71.0722C70.6762 9.02846 70.3396 9.37778 70.3396 9.81763V17.2309C70.3396 17.5544 70.0875 17.8132 69.7634 17.8132H68.1545C67.8423 17.8132 67.5781 17.5544 67.5781 17.2309V6.84199C67.5781 6.51847 67.8303 6.25976 68.1545 6.25976H69.7634C70.0756 6.25976 70.3396 6.51847 70.3396 6.84199V7.25595L70.8802 6.47972C71.0722 6.20798 71.3607 6.05273 71.6729 6.05273C71.6729 6.05273 72.8616 6.05273 73.6899 6.05273C73.9902 6.06568 74.2305 6.32447 74.2305 6.63497Z" fill="#F1C03F"/>
<path d="M40.9448 14.7857H35.4215C34.8931 14.7857 34.4729 14.3329 34.4729 13.7637V12.4828L35.0252 13.2462C35.1933 13.479 35.4574 13.6342 35.7337 13.6472H38.9036C40.8969 13.6472 42.5058 11.8618 42.4218 9.70122V9.66239C42.3377 7.92871 41.161 6.54436 39.6481 6.15628C39.3719 6.07862 39.0837 6.05273 38.7955 6.05273H35.2053C34.9532 6.05273 34.701 6.07862 34.4609 6.14334C32.9239 6.51847 31.7832 7.99343 31.7832 9.75292V13.7637C31.7832 15.9242 33.4042 17.6837 35.4215 17.6837H40.9448C41.2811 17.6837 41.5453 17.3862 41.5453 17.0239V15.4326C41.5453 15.0833 41.2811 14.7857 40.9448 14.7857ZM34.4729 9.75292C34.4729 9.31306 34.8091 8.9508 35.2173 8.9508H38.9156C39.2638 8.9508 39.552 9.17076 39.6841 9.4942C39.7321 9.61061 39.7561 9.72703 39.7561 9.86941C39.7561 10.374 39.3839 10.775 38.9156 10.775H34.4729V9.75292Z" fill="#F1C03F"/>
<path d="M84.6775 14.7857H79.1544C78.6257 14.7857 78.2052 14.3329 78.2052 13.7637V12.4828L78.7577 13.2462C78.926 13.479 79.19 13.6342 79.4666 13.6472H82.636C84.6293 13.6472 86.2384 11.8618 86.1546 9.70122V9.66239C86.0701 7.92871 84.894 6.54436 83.3805 6.15628C83.1046 6.07862 82.8162 6.05273 82.5284 6.05273H78.9379C78.6857 6.05273 78.4336 6.07862 78.1934 6.14334C76.6568 6.51847 75.5156 7.99343 75.5156 9.75292V13.7637C75.5156 15.9242 77.1367 17.6837 79.1544 17.6837H84.6775C85.0134 17.6837 85.2781 17.3862 85.2781 17.0239V15.4326C85.29 15.0833 85.0134 14.7857 84.6775 14.7857ZM78.2052 9.75292C78.2052 9.31306 78.5419 8.9508 78.9497 8.9508H82.6486C82.9964 8.9508 83.2848 9.17076 83.4168 9.4942C83.465 9.61061 83.4888 9.72703 83.4888 9.86941C83.4888 10.374 83.1165 10.775 82.6486 10.775H78.2052V9.75292Z" fill="#F1C03F"/>
<path d="M98.0773 14.3282C98.0773 16.0878 96.6965 17.5238 94.991 17.5238H88.6151C88.2792 17.5238 88.0152 17.2263 88.0152 16.8769V15.2857C88.0152 14.9234 88.2911 14.6387 88.6151 14.6387H94.991C95.2194 14.6387 95.3877 14.4705 95.3877 14.3282C95.3877 14.1989 95.2794 14.0824 95.123 14.0436L89.7438 12.4263C88.4112 12.0512 87.4746 10.7833 87.4746 9.33428C87.4746 7.57472 88.8554 6.13867 90.5602 6.13867H96.48C96.8167 6.13867 97.0807 6.43622 97.0807 6.78555V8.37692C97.0807 8.73911 96.8041 9.02379 96.48 9.02379H90.5602C90.3325 9.02379 90.1642 9.19198 90.1642 9.33428C90.1642 9.46364 90.2725 9.58006 90.4282 9.61889L95.8074 11.2361C97.1407 11.6242 98.0773 12.8922 98.0773 14.3282Z" fill="#F1C03F"/>
<path d="M110 14.3282C110 16.0878 108.62 17.5238 106.915 17.5238H100.539C100.203 17.5238 99.9383 17.2263 99.9383 16.8769V15.2857C99.9383 14.9234 100.215 14.6387 100.539 14.6387H106.915C107.143 14.6387 107.311 14.4705 107.311 14.3282C107.311 14.1989 107.203 14.0824 107.047 14.0436L101.668 12.4263C100.335 12.0512 99.3984 10.7833 99.3984 9.33428C99.3984 7.57472 100.779 6.13867 102.484 6.13867H108.404C108.74 6.13867 109.004 6.43622 109.004 6.78555V8.37692C109.004 8.73911 108.728 9.02379 108.404 9.02379H102.484C102.256 9.02379 102.088 9.19198 102.088 9.33428C102.088 9.46364 102.196 9.58006 102.352 9.61889L107.731 11.2491C109.076 11.6242 110 12.8922 110 14.3282Z" fill="#F1C03F"/>
</svg>
