<svg width="20" height="16" viewBox="0 0 20 16" fill="none" xmlns="http://www.w3.org/2000/svg">
<path d="M10.3039 11.4224L7.41797 11.8345L7.83024 8.94098L15.259 1.51199C15.7024 1.0686 16.348 0.897408 16.9548 1.06076C17.5615 1.22412 18.0282 1.69888 18.1916 2.29785C18.3549 2.9046 18.176 3.55018 17.7404 3.98579L10.3039 11.4224Z" stroke="#483493" stroke-width="1.5" stroke-linecap="round" stroke-linejoin="round"/>
<path d="M4.50046 10.3413H2.16682C1.52118 10.3413 1 10.8625 1 11.5081V13.8418C1 14.4874 1.52118 15.0086 2.16682 15.0086H17.3355C17.9811 15.0086 18.5023 14.4874 18.5023 13.8418V11.5081C18.5023 10.8625 17.9811 10.3413 17.3355 10.3413H15.0018" stroke="#483493" stroke-width="1.5" stroke-linecap="round" stroke-linejoin="round"/>
</svg>
