
<svg width="235" height="181" viewBox="0 0 235 181" fill="none" xmlns="http://www.w3.org/2000/svg">
<path d="M8.28904 170.037H6.65425L6.47338 161.626H8.47686L8.28904 170.037ZM8.76904 172.541L7.44034 173.87L6.10469 172.534L7.43338 171.205L8.76904 172.541ZM18.0557 173.209C17.476 173.209 16.9288 173.079 16.414 172.819C15.9039 172.559 15.4239 172.198 14.974 171.734L15.9966 170.294C16.4186 170.683 16.8128 170.966 17.1792 171.143C17.5456 171.314 17.8957 171.4 18.2297 171.4C18.392 171.4 18.5636 171.386 18.7444 171.358C18.93 171.326 19.1131 171.282 19.294 171.226C19.4749 171.17 19.6465 171.106 19.8088 171.031C19.9757 170.952 20.1195 170.869 20.2401 170.781L18.021 165.424L19.6697 164.736C19.7485 164.94 19.8366 165.158 19.934 165.39C20.0314 165.621 20.1357 165.872 20.2471 166.141L21.9931 170.35C22.0581 170.507 22.1253 170.653 22.1949 170.788C22.2691 170.918 22.3526 171.031 22.4453 171.129C22.5427 171.221 22.6517 171.296 22.7723 171.351C22.8975 171.402 23.0413 171.428 23.2036 171.428H23.3636V173.209H23.2036C22.9114 173.209 22.6586 173.186 22.4453 173.139C22.2366 173.097 22.0534 173.039 21.8957 172.965C21.7381 172.886 21.5989 172.796 21.4784 172.694C21.3578 172.587 21.2418 172.474 21.1305 172.353C20.9079 172.52 20.6807 172.659 20.4488 172.77C20.2169 172.882 19.9734 172.97 19.7184 173.035C19.4633 173.1 19.1989 173.144 18.9253 173.167C18.6517 173.195 18.3618 173.209 18.0557 173.209ZM23.0874 171.428H24.5692C24.7871 171.428 25.0213 171.416 25.2718 171.393C25.5269 171.365 25.7611 171.312 25.9744 171.233C26.1924 171.15 26.3709 171.031 26.51 170.878C26.6538 170.725 26.7257 170.521 26.7257 170.266C26.7257 170.146 26.7002 169.976 26.6492 169.758C26.5982 169.54 26.5309 169.299 26.4474 169.035C26.364 168.77 26.2642 168.497 26.1483 168.214C26.037 167.931 25.9187 167.667 25.7935 167.421L27.4005 166.628C27.5164 166.892 27.6324 167.173 27.7483 167.47C27.8642 167.766 27.9663 168.072 28.0544 168.388C28.1471 168.699 28.2213 169.012 28.277 169.327C28.3326 169.642 28.3605 169.951 28.3605 170.252C28.3605 170.79 28.2608 171.247 28.0613 171.623C27.8619 171.998 27.5883 172.304 27.2405 172.541C26.8973 172.773 26.4938 172.942 26.03 173.049C25.5709 173.155 25.0793 173.209 24.5553 173.209H23.0874V171.428ZM25.6753 175.268L24.4926 176.45L23.2961 175.261L24.4787 174.071L25.6753 175.268ZM28.3048 175.275L27.1222 176.464L25.9257 175.268L27.1083 174.085L28.3048 175.275ZM30.2443 170.475C30.4205 170.586 30.6315 170.7 30.8773 170.816C31.1277 170.932 31.3851 171.036 31.6495 171.129C31.9185 171.221 32.1805 171.298 32.4356 171.358C32.6953 171.419 32.9225 171.449 33.1173 171.449C33.1961 171.449 33.2935 171.446 33.4095 171.442C33.5254 171.437 33.6483 171.428 33.7782 171.414C33.908 171.395 34.0379 171.37 34.1677 171.337C34.2976 171.3 34.4135 171.252 34.5156 171.191C34.6222 171.126 34.708 171.048 34.7729 170.955C34.8379 170.857 34.8727 170.739 34.8773 170.6C34.8773 170.591 34.8773 170.584 34.8773 170.579C34.8773 170.394 34.824 170.185 34.7173 169.953C34.6153 169.717 34.4738 169.471 34.2929 169.216C34.1121 168.956 33.9034 168.696 33.6669 168.437C33.4303 168.177 33.1845 167.929 32.9295 167.692C32.6744 167.451 32.417 167.231 32.1573 167.031C31.9022 166.827 31.6634 166.656 31.4408 166.517L32.4773 164.979C32.904 165.271 33.3237 165.601 33.7364 165.967C34.1538 166.333 34.5364 166.725 34.8843 167.143C35.2367 167.555 35.5405 167.987 35.7956 168.437C36.0553 168.886 36.2408 169.341 36.3521 169.8C36.4124 170.064 36.4425 170.317 36.4425 170.558C36.4425 170.79 36.3985 171.068 36.3103 171.393C36.2269 171.718 36.0344 172.038 35.7329 172.353C35.4315 172.664 35.0489 172.903 34.5851 173.07C34.1863 173.213 33.748 173.285 33.2703 173.285C33.1915 173.285 33.1103 173.283 33.0269 173.278C32.7208 173.278 32.41 173.248 32.0947 173.188C31.7793 173.132 31.4686 173.053 31.1625 172.951C30.8611 172.849 30.5689 172.733 30.286 172.603C30.0077 172.469 29.748 172.328 29.5069 172.179L30.2443 170.475ZM42.7071 173.209H42.4915C42.3709 173.209 42.2179 173.195 42.0324 173.167C41.8515 173.139 41.6521 173.056 41.4341 172.917C41.3738 173.501 41.1952 174.06 40.8984 174.593C40.6016 175.131 40.2283 175.634 39.7784 176.103C39.3332 176.571 38.83 177 38.2689 177.39C37.7124 177.779 37.1396 178.12 36.5506 178.412L35.7715 176.805C36.0961 176.638 36.4231 176.457 36.7524 176.263C37.077 176.068 37.3877 175.859 37.6845 175.637C37.9813 175.414 38.2573 175.182 38.5124 174.941C38.7721 174.7 38.9947 174.447 39.1802 174.183C39.3703 173.918 39.5187 173.647 39.6254 173.369C39.7367 173.09 39.7924 172.805 39.7924 172.513C39.7924 172.304 39.7622 172.075 39.7019 171.824C39.6416 171.569 39.5651 171.305 39.4724 171.031C39.3796 170.758 39.2799 170.482 39.1732 170.203C39.0666 169.921 38.9692 169.647 38.881 169.383L40.5506 168.687C40.7315 169.23 40.8961 169.679 41.0445 170.037C41.1976 170.389 41.346 170.67 41.4897 170.878C41.6381 171.082 41.7912 171.226 41.9489 171.31C42.1112 171.388 42.2944 171.428 42.4984 171.428H42.7141L42.7071 173.209ZM42.4312 171.428H44.5947C44.8636 171.428 45.1048 171.395 45.3181 171.33C45.5361 171.266 45.7193 171.182 45.8677 171.08C46.0161 170.973 46.1297 170.853 46.2086 170.718C46.2921 170.579 46.3338 170.438 46.3338 170.294C46.3338 170.071 46.2897 169.83 46.2016 169.57C46.1135 169.306 45.9952 169.039 45.8468 168.77C45.7031 168.497 45.5315 168.223 45.3321 167.95C45.1373 167.671 44.9309 167.407 44.7129 167.157C44.495 166.901 44.27 166.665 44.0381 166.447C43.8109 166.229 43.5929 166.037 43.3842 165.87L43.5512 163.908L49.6381 161.334L50.2851 162.927L45.0329 165.083C45.39 165.394 45.7007 165.703 45.9651 166.009C46.2341 166.31 46.4729 166.614 46.6816 166.92C46.895 167.221 47.0874 167.525 47.259 167.831C47.4306 168.137 47.5976 168.446 47.7599 168.757C47.8758 168.979 47.9918 169.197 48.1077 169.41C48.2236 169.624 48.3489 169.842 48.4834 170.064V170.057C48.6086 170.266 48.7407 170.454 48.8799 170.621C49.0236 170.788 49.1767 170.932 49.339 171.052C49.506 171.173 49.6868 171.266 49.8816 171.33C50.081 171.395 50.299 171.428 50.5355 171.428H50.9738V173.209H50.7721C50.401 173.209 50.0648 173.183 49.7634 173.132C49.4619 173.081 49.1813 173 48.9216 172.889C48.6665 172.777 48.4254 172.636 48.1981 172.464C47.9755 172.288 47.7552 172.077 47.5373 171.831C47.375 172.072 47.1918 172.279 46.9877 172.45C46.7836 172.617 46.5634 172.757 46.3268 172.868C46.0903 172.974 45.8399 173.053 45.5755 173.104C45.3158 173.16 45.0468 173.195 44.7686 173.209H42.4312V171.428ZM50.6968 171.428H51.8168C52.0348 171.428 52.2574 171.416 52.4846 171.393C52.7165 171.365 52.9252 171.312 53.1107 171.233C53.2962 171.15 53.447 171.031 53.5629 170.878C53.6835 170.725 53.7438 170.521 53.7438 170.266C53.7438 170.146 53.7183 169.976 53.6672 169.758C53.6162 169.54 53.549 169.299 53.4655 169.035C53.382 168.77 53.2823 168.497 53.1664 168.214C53.0551 167.931 52.9368 167.667 52.8116 167.421L54.4185 166.628C54.5345 166.892 54.6504 167.173 54.7664 167.47C54.8823 167.766 54.9843 168.072 55.0725 168.388C55.1652 168.699 55.2394 169.012 55.2951 169.327C55.3507 169.642 55.3785 169.951 55.3785 170.252C55.3785 170.772 55.2904 171.219 55.1142 171.595C54.938 171.966 54.6922 172.272 54.3768 172.513C54.0614 172.75 53.6835 172.923 53.2429 173.035C52.807 173.151 52.327 173.209 51.8029 173.209H50.6968V171.428ZM54.2516 164.27L52.9159 165.605L51.5872 164.27L52.9159 162.941L54.2516 164.27ZM67.8622 171.428C68.0153 171.428 68.1985 171.428 68.4118 171.428C68.6251 171.428 68.8408 171.428 69.0588 171.428C69.2767 171.428 69.4808 171.426 69.6709 171.421C69.8611 171.416 70.0072 171.407 70.1092 171.393C70.0164 171.333 69.9144 171.247 69.8031 171.136C69.6918 171.02 69.5875 170.885 69.4901 170.732C69.3973 170.574 69.3162 170.398 69.2466 170.203C69.1817 170.004 69.1469 169.786 69.1422 169.55C69.1376 169.489 69.1353 169.429 69.1353 169.369C69.1353 169.179 69.1608 168.968 69.2118 168.736C69.2675 168.499 69.3556 168.258 69.4762 168.012C69.6014 167.766 69.7521 167.537 69.9283 167.323C70.1046 167.106 70.2993 166.918 70.5127 166.76C70.726 166.598 70.9556 166.472 71.2014 166.384C71.4193 166.306 71.6443 166.266 71.8762 166.266C71.904 166.266 71.9295 166.266 71.9527 166.266C72.3283 166.28 72.6762 166.377 72.9962 166.558C73.3208 166.734 73.6014 166.964 73.8379 167.247C74.0744 167.53 74.2599 167.852 74.3944 168.214C74.5289 168.571 74.5962 168.937 74.5962 169.313C74.5962 169.675 74.5289 170.025 74.3944 170.363C74.2646 170.697 74.0953 171.01 73.8866 171.303C74.1092 171.34 74.3434 171.37 74.5892 171.393C74.835 171.416 75.0762 171.428 75.3127 171.428H75.5005V173.209H75.3614C75.0043 173.209 74.6634 173.202 74.3388 173.188C74.0141 173.179 73.7057 173.153 73.4135 173.111C73.126 173.07 72.8593 173.012 72.6135 172.937C72.3677 172.859 72.1475 172.752 71.9527 172.617C71.8599 172.687 71.7254 172.75 71.5492 172.805C71.373 172.861 71.1712 172.912 70.944 172.958C70.7167 173.005 70.4686 173.044 70.1996 173.077C69.9353 173.109 69.6663 173.137 69.3927 173.16C69.1237 173.183 68.857 173.199 68.5927 173.209C68.3283 173.223 68.0849 173.23 67.8622 173.23C66.4106 173.22 65.2095 173.042 64.2588 172.694C63.3127 172.341 62.6147 171.801 62.1649 171.073C61.9701 170.725 61.8356 170.363 61.7614 169.988C61.7057 169.714 61.6779 169.441 61.6779 169.167C61.6779 169.06 61.6849 168.886 61.6988 168.645C61.7173 168.404 61.7846 168.103 61.9005 167.741C62.0164 167.374 62.1695 167.029 62.3596 166.704L63.7022 167.546C63.5677 167.769 63.4564 167.991 63.3683 168.214C63.2802 168.437 63.2246 168.659 63.2014 168.882C63.1921 168.965 63.1875 169.049 63.1875 169.132C63.1875 169.271 63.2037 169.431 63.2362 169.612C63.2733 169.793 63.3614 169.992 63.5005 170.21C63.6304 170.428 63.8275 170.614 64.0918 170.767C64.3562 170.92 64.6762 171.045 65.0518 171.143C65.4321 171.24 65.8588 171.312 66.3318 171.358C66.8049 171.405 67.315 171.428 67.8622 171.428ZM71.9318 168.026C71.8112 168.049 71.6721 168.098 71.5144 168.172C71.3614 168.242 71.2153 168.341 71.0762 168.471C70.9417 168.597 70.8257 168.752 70.7283 168.937C70.6356 169.123 70.5892 169.343 70.5892 169.598C70.5892 169.682 70.6286 169.791 70.7075 169.925C70.7863 170.055 70.8906 170.187 71.0205 170.322C71.1504 170.452 71.2988 170.574 71.4657 170.69C71.6327 170.802 71.8043 170.881 71.9805 170.927C72.1196 170.857 72.2541 170.767 72.384 170.656C72.5185 170.544 72.6367 170.424 72.7388 170.294C72.8408 170.159 72.922 170.023 72.9822 169.883C73.0472 169.74 73.0796 169.603 73.0796 169.473C73.0796 169.292 73.0402 169.121 72.9614 168.958C72.8872 168.791 72.7921 168.643 72.6762 168.513C72.5602 168.383 72.435 168.277 72.3005 168.193C72.1706 168.105 72.0477 168.049 71.9318 168.026ZM73.3649 163.609L72.0292 164.944L70.7005 163.609L72.0292 162.28L73.3649 163.609ZM75.2281 171.428H76.7098C76.9278 171.428 77.162 171.416 77.4124 171.393C77.6675 171.365 77.9017 171.312 78.115 171.233C78.333 171.15 78.5115 171.031 78.6507 170.878C78.7944 170.725 78.8663 170.521 78.8663 170.266C78.8663 170.146 78.8408 169.976 78.7898 169.758C78.7388 169.54 78.6715 169.299 78.5881 169.035C78.5046 168.77 78.4049 168.497 78.2889 168.214C78.1776 167.931 78.0594 167.667 77.9341 167.421L79.5411 166.628C79.657 166.892 79.773 167.173 79.8889 167.47C80.0049 167.766 80.1069 168.072 80.195 168.388C80.2878 168.699 80.362 169.012 80.4176 169.327C80.4733 169.642 80.5011 169.951 80.5011 170.252C80.5011 170.79 80.4014 171.247 80.202 171.623C80.0025 171.998 79.7289 172.304 79.3811 172.541C79.0379 172.773 78.6344 172.942 78.1707 173.049C77.7115 173.155 77.2199 173.209 76.6959 173.209H75.2281V171.428ZM77.8159 175.268L76.6333 176.45L75.4368 175.261L76.6194 174.071L77.8159 175.268ZM80.4454 175.275L79.2628 176.464L78.0663 175.268L79.2489 174.085L80.4454 175.275ZM88.0509 173.209H87.8352C87.7147 173.209 87.5616 173.195 87.3761 173.167C87.1952 173.139 86.9958 173.056 86.7778 172.917C86.7175 173.501 86.539 174.06 86.2422 174.593C85.9454 175.131 85.572 175.634 85.1222 176.103C84.677 176.571 84.1738 177 83.6126 177.39C83.0561 177.779 82.4833 178.12 81.8944 178.412L81.1152 176.805C81.4399 176.638 81.7668 176.457 82.0961 176.263C82.4207 176.068 82.7315 175.859 83.0283 175.637C83.3251 175.414 83.601 175.182 83.8561 174.941C84.1158 174.7 84.3384 174.447 84.5239 174.183C84.7141 173.918 84.8625 173.647 84.9691 173.369C85.0804 173.09 85.1361 172.805 85.1361 172.513C85.1361 172.304 85.106 172.075 85.0457 171.824C84.9854 171.569 84.9089 171.305 84.8161 171.031C84.7233 170.758 84.6236 170.482 84.517 170.203C84.4103 169.921 84.3129 169.647 84.2248 169.383L85.8944 168.687C86.0752 169.23 86.2399 169.679 86.3883 170.037C86.5413 170.389 86.6897 170.67 86.8335 170.878C86.9819 171.082 87.1349 171.226 87.2926 171.31C87.4549 171.388 87.6381 171.428 87.8422 171.428H88.0578L88.0509 173.209ZM96.0115 173.209H95.768C95.4109 173.209 95.0607 173.195 94.7175 173.167C94.379 173.139 94.0544 173.088 93.7436 173.014C93.4375 172.944 93.1454 172.849 92.8671 172.729C92.5888 172.608 92.3338 172.453 92.1019 172.263C91.8515 172.439 91.5593 172.587 91.2254 172.708C90.8961 172.828 90.5483 172.926 90.1819 173C89.8201 173.07 89.4538 173.121 89.0828 173.153C88.7117 173.19 88.3593 173.209 88.0254 173.209H87.7749V171.428H88.0184C88.2178 171.428 88.4219 171.421 88.6306 171.407C88.8439 171.393 89.0526 171.372 89.2567 171.344C89.4654 171.317 89.6671 171.284 89.8619 171.247C90.0613 171.21 90.2468 171.166 90.4184 171.115C90.2375 170.934 90.0659 170.762 89.9036 170.6C89.7413 170.433 89.5767 170.268 89.4097 170.106C89.2474 169.939 89.0758 169.77 88.8949 169.598C88.7187 169.422 88.5262 169.237 88.3175 169.042L88.4149 167.595C88.6793 167.363 88.9483 167.168 89.2219 167.01C89.5001 166.853 89.7715 166.725 90.0358 166.628C90.3001 166.526 90.5552 166.449 90.801 166.398C91.0468 166.343 91.2717 166.306 91.4758 166.287C91.6845 166.264 91.8955 166.252 92.1088 166.252C92.3639 166.252 92.677 166.275 93.048 166.322C93.419 166.363 93.8016 166.472 94.1958 166.649C94.4601 166.765 94.6735 166.894 94.8358 167.038C95.0028 167.177 95.1326 167.319 95.2254 167.463C95.3228 167.602 95.39 167.739 95.4271 167.873C95.4642 168.003 95.4851 168.117 95.4897 168.214C95.4944 168.256 95.4967 168.295 95.4967 168.332C95.4967 168.518 95.4573 168.731 95.3784 168.972C95.3042 169.209 95.1883 169.461 95.0306 169.73C94.8775 169.999 94.6967 170.261 94.488 170.517C94.2793 170.767 94.059 170.992 93.8271 171.191C94.11 171.27 94.4161 171.33 94.7454 171.372C95.0746 171.409 95.4201 171.428 95.7819 171.428H96.0115V173.209ZM90.1749 168.409C90.3373 168.608 90.5088 168.808 90.6897 169.007C90.8706 169.202 91.0468 169.387 91.2184 169.563C91.39 169.735 91.55 169.895 91.6984 170.043C91.8468 170.187 91.972 170.31 92.0741 170.412C92.2317 170.31 92.408 170.171 92.6028 169.995C92.8022 169.819 92.9923 169.633 93.1732 169.438C93.3541 169.243 93.5141 169.053 93.6532 168.868C93.7923 168.682 93.8828 168.529 93.9245 168.409C93.8132 168.348 93.6857 168.293 93.5419 168.242C93.3981 168.191 93.2451 168.149 93.0828 168.117C92.9251 168.079 92.7628 168.052 92.5958 168.033C92.4335 168.01 92.2758 167.998 92.1228 167.998C91.979 167.998 91.8213 168.01 91.6497 168.033C91.4781 168.052 91.3042 168.079 91.128 168.117C90.9517 168.149 90.7801 168.191 90.6132 168.242C90.4509 168.293 90.3048 168.348 90.1749 168.409ZM95.7281 171.428H97.2098C97.4278 171.428 97.662 171.416 97.9124 171.393C98.1675 171.365 98.4017 171.312 98.615 171.233C98.833 171.15 99.0115 171.031 99.1507 170.878C99.2944 170.725 99.3663 170.521 99.3663 170.266C99.3663 170.146 99.3408 169.976 99.2898 169.758C99.2388 169.54 99.1715 169.299 99.0881 169.035C99.0046 168.77 98.9049 168.497 98.7889 168.214C98.6776 167.931 98.5594 167.667 98.4341 167.421L100.041 166.628C100.157 166.892 100.273 167.173 100.389 167.47C100.505 167.766 100.607 168.072 100.695 168.388C100.788 168.699 100.862 169.012 100.918 169.327C100.973 169.642 101.001 169.951 101.001 170.252C101.001 170.79 100.901 171.247 100.702 171.623C100.503 171.998 100.229 172.304 99.8811 172.541C99.5379 172.773 99.1344 172.942 98.6707 173.049C98.2115 173.155 97.7199 173.209 97.1959 173.209H95.7281V171.428ZM98.8446 164.179L97.662 165.362L96.4654 164.172L97.6481 162.983L98.8446 164.179ZM101.474 164.186L100.292 165.376L99.095 164.179L100.278 162.997L101.474 164.186ZM112.344 177.744C111.547 177.744 110.809 177.645 110.132 177.445C109.455 177.25 108.878 176.954 108.4 176.555C107.922 176.161 107.563 175.664 107.322 175.066C107.127 174.598 107.029 174.067 107.029 173.473C107.029 173.315 107.036 173.153 107.05 172.986C107.078 172.666 107.115 172.339 107.162 172.005C107.213 171.671 107.28 171.321 107.363 170.955C107.451 170.584 107.563 170.192 107.697 169.779C107.832 169.366 107.999 168.921 108.198 168.443L109.631 169.104C109.441 169.577 109.283 170.016 109.158 170.419C109.033 170.818 108.933 171.189 108.859 171.532C108.789 171.875 108.741 172.198 108.713 172.499C108.685 172.801 108.671 173.09 108.671 173.369C108.671 173.703 108.713 174.002 108.796 174.266C108.885 174.53 108.996 174.767 109.13 174.976C109.311 175.221 109.538 175.409 109.812 175.539C110.086 175.674 110.373 175.771 110.675 175.831C110.981 175.892 111.28 175.926 111.572 175.936C111.869 175.95 112.126 175.957 112.344 175.957C112.474 175.957 112.662 175.947 112.908 175.929C113.158 175.91 113.429 175.878 113.722 175.831C114.018 175.785 114.322 175.725 114.633 175.65C114.944 175.576 115.224 175.483 115.475 175.372C115.73 175.261 115.936 175.131 116.094 174.983C116.256 174.834 116.337 174.66 116.337 174.461C116.337 174.428 116.296 174.377 116.212 174.308C116.133 174.243 116.022 174.169 115.878 174.085C115.739 174.002 115.574 173.914 115.384 173.821C115.194 173.733 114.99 173.647 114.772 173.563C114.452 173.457 114.134 173.378 113.819 173.327C113.504 173.276 113.191 173.223 112.88 173.167L113.116 171.428H118.64V173.209H117.339C117.525 173.436 117.647 173.659 117.708 173.877C117.773 174.099 117.807 174.294 117.812 174.461C117.794 174.869 117.689 175.233 117.499 175.553C117.309 175.878 117.063 176.161 116.762 176.402C116.465 176.648 116.126 176.854 115.746 177.021C115.366 177.192 114.976 177.332 114.577 177.438C114.178 177.545 113.784 177.621 113.395 177.668C113.01 177.719 112.66 177.744 112.344 177.744ZM118.369 171.428H118.897C119.152 171.428 119.363 171.4 119.53 171.344C119.697 171.284 119.827 171.191 119.92 171.066C120.013 170.941 120.075 170.781 120.108 170.586C120.145 170.387 120.163 170.148 120.163 169.87C120.163 169.763 120.163 169.635 120.163 169.487C120.168 169.339 120.168 169.139 120.163 168.889C120.163 168.634 120.154 168.314 120.136 167.929C120.117 167.539 120.087 167.052 120.045 166.468C120.027 165.972 120.006 165.496 119.983 165.042C119.959 164.587 119.936 164.181 119.913 163.824C119.894 163.467 119.876 163.173 119.857 162.941C119.843 162.709 119.834 162.568 119.83 162.517L121.583 162.141C121.634 162.688 121.68 163.326 121.722 164.054C121.768 164.782 121.81 165.566 121.847 166.405C121.865 167.036 121.882 167.555 121.896 167.963C121.91 168.367 121.921 168.703 121.93 168.972C121.944 169.237 121.954 169.454 121.958 169.626C121.963 169.793 121.965 169.955 121.965 170.113C121.965 170.591 121.905 171.022 121.784 171.407C121.664 171.787 121.478 172.112 121.228 172.381C120.977 172.645 120.66 172.849 120.275 172.993C119.89 173.137 119.431 173.209 118.897 173.209H118.369V171.428ZM126.941 173.209H126.663C125.721 173.209 125.007 172.972 124.52 172.499C124.033 172.026 123.787 171.312 123.783 170.357C123.783 170.208 123.787 169.965 123.797 169.626C123.806 169.283 123.811 168.866 123.811 168.374C123.811 168.082 123.808 167.769 123.804 167.435C123.799 167.096 123.792 166.753 123.783 166.405C123.773 166.053 123.759 165.703 123.741 165.355C123.727 165.002 123.708 164.664 123.685 164.339C123.662 164.01 123.634 163.704 123.602 163.421C123.569 163.133 123.532 162.881 123.491 162.663L125.237 162.141C125.288 162.41 125.334 162.739 125.376 163.129C125.417 163.514 125.455 163.926 125.487 164.367C125.519 164.808 125.543 165.257 125.557 165.717C125.575 166.171 125.584 166.6 125.584 167.003C125.584 167.249 125.587 167.511 125.591 167.79C125.596 168.063 125.598 168.304 125.598 168.513C125.598 168.689 125.596 168.856 125.591 169.014C125.591 169.167 125.589 169.315 125.584 169.459C125.584 169.603 125.582 169.744 125.577 169.883C125.577 170.023 125.577 170.164 125.577 170.308C125.577 170.345 125.577 170.382 125.577 170.419C125.577 170.586 125.594 170.734 125.626 170.864C125.663 170.994 125.726 171.103 125.814 171.191C125.902 171.275 126.013 171.335 126.148 171.372C126.287 171.409 126.447 171.428 126.628 171.428H126.941V173.209ZM126.944 171.428C127.199 171.428 127.426 171.372 127.626 171.261C127.83 171.15 128.008 171.001 128.161 170.816C128.319 170.63 128.456 170.419 128.572 170.183C128.692 169.946 128.797 169.703 128.885 169.452C128.973 169.202 129.049 168.956 129.114 168.715C129.179 168.469 129.237 168.249 129.288 168.054L131.027 168.437C130.986 168.566 130.93 168.733 130.86 168.937C130.791 169.137 130.724 169.35 130.659 169.577C130.598 169.8 130.547 170.025 130.506 170.252C130.473 170.424 130.457 170.584 130.457 170.732C130.457 170.779 130.461 170.86 130.471 170.976C130.48 171.092 130.526 171.208 130.61 171.323C130.698 171.435 130.839 171.49 131.034 171.49C131.243 171.49 131.431 171.432 131.598 171.317C131.765 171.196 131.913 171.041 132.043 170.85C132.177 170.656 132.293 170.435 132.391 170.19C132.493 169.944 132.579 169.693 132.648 169.438C132.722 169.179 132.783 168.926 132.829 168.68C132.88 168.434 132.919 168.214 132.947 168.019L134.575 168.332C134.561 168.443 134.54 168.576 134.513 168.729C134.489 168.882 134.464 169.049 134.436 169.23C134.408 169.406 134.38 169.591 134.353 169.786C134.329 169.981 134.311 170.176 134.297 170.37C134.297 170.408 134.297 170.445 134.297 170.482C134.297 170.593 134.308 170.709 134.332 170.83C134.355 170.946 134.404 171.057 134.478 171.163C134.552 171.266 134.649 171.349 134.77 171.414C134.89 171.474 135.039 171.507 135.215 171.511C135.544 171.511 135.813 171.428 136.022 171.261C136.231 171.094 136.335 170.839 136.335 170.496C136.335 170.245 136.3 169.974 136.231 169.682C136.166 169.39 136.085 169.104 135.987 168.826C135.895 168.548 135.795 168.286 135.688 168.04C135.581 167.794 135.489 167.59 135.41 167.428L136.906 166.593C136.933 166.644 136.977 166.737 137.038 166.871C137.103 167.006 137.175 167.173 137.253 167.372C137.337 167.567 137.42 167.787 137.504 168.033C137.587 168.279 137.664 168.539 137.733 168.812C137.808 169.081 137.866 169.357 137.907 169.64C137.954 169.923 137.977 170.201 137.977 170.475C137.977 170.906 137.91 171.296 137.775 171.643C137.645 171.991 137.45 172.288 137.191 172.534C136.936 172.78 136.62 172.968 136.245 173.097C135.883 173.227 135.468 173.292 134.999 173.292C134.986 173.292 134.969 173.292 134.951 173.292C134.932 173.292 134.916 173.292 134.902 173.292C134.684 173.292 134.485 173.262 134.304 173.202C134.123 173.146 133.956 173.067 133.803 172.965C133.655 172.859 133.52 172.738 133.399 172.603C133.284 172.469 133.179 172.332 133.086 172.193C132.98 172.346 132.864 172.49 132.739 172.624C132.613 172.754 132.467 172.868 132.3 172.965C132.138 173.063 131.953 173.139 131.744 173.195C131.54 173.255 131.303 173.288 131.034 173.292C131.02 173.292 131.004 173.292 130.986 173.292C130.777 173.292 130.582 173.264 130.401 173.209C130.225 173.153 130.06 173.077 129.907 172.979C129.759 172.877 129.622 172.759 129.497 172.624C129.376 172.49 129.265 172.348 129.163 172.2C129.075 172.33 128.968 172.455 128.843 172.576C128.722 172.696 128.572 172.805 128.391 172.903C128.215 172.995 128.006 173.07 127.765 173.125C127.524 173.181 127.241 173.209 126.916 173.209H126.666V171.428H126.944ZM142.204 168.583C142.297 168.875 142.392 169.181 142.489 169.501C142.591 169.816 142.681 170.136 142.76 170.461C142.844 170.786 142.911 171.11 142.962 171.435C143.013 171.755 143.039 172.068 143.039 172.374C143.039 172.791 142.974 173.197 142.844 173.591C142.719 173.99 142.542 174.373 142.315 174.739C142.092 175.11 141.826 175.463 141.515 175.797C141.209 176.13 140.875 176.446 140.513 176.743C140.152 177.039 139.769 177.315 139.366 177.57C138.962 177.826 138.554 178.055 138.141 178.259L137.348 176.666C137.677 176.504 138.002 176.323 138.322 176.123C138.642 175.929 138.946 175.72 139.233 175.497C139.526 175.275 139.794 175.041 140.04 174.795C140.291 174.549 140.504 174.294 140.68 174.03C140.861 173.765 141.003 173.494 141.105 173.216C141.207 172.937 141.258 172.657 141.258 172.374C141.258 172.11 141.228 171.831 141.167 171.539C141.107 171.247 141.033 170.959 140.945 170.677C140.861 170.389 140.773 170.113 140.68 169.849C140.592 169.584 140.518 169.35 140.458 169.146L142.204 168.583ZM146.204 162.141C146.319 163.027 146.401 163.873 146.447 164.68C146.493 165.482 146.521 166.268 146.53 167.038C146.54 167.692 146.542 168.297 146.537 168.854C146.537 169.41 146.533 169.93 146.524 170.412C146.514 170.89 146.5 171.337 146.482 171.755C146.463 172.168 146.445 172.555 146.426 172.917L144.604 173.195C144.701 171.664 144.75 170.312 144.75 169.139C144.75 168.666 144.743 168.223 144.729 167.81C144.692 166.86 144.65 165.967 144.604 165.132C144.557 164.293 144.495 163.49 144.416 162.725L146.204 162.141ZM169.272 166.363C169.3 166.414 169.346 166.507 169.411 166.642C169.481 166.772 169.557 166.932 169.641 167.122C169.724 167.307 169.81 167.518 169.898 167.755C169.991 167.991 170.074 168.239 170.149 168.499C170.223 168.759 170.283 169.028 170.329 169.306C170.38 169.58 170.406 169.849 170.406 170.113C170.401 170.54 170.336 170.941 170.211 171.317C170.091 171.688 169.91 172.012 169.669 172.29C169.432 172.569 169.14 172.789 168.792 172.951C168.444 173.109 168.041 173.188 167.582 173.188C167.359 173.188 167.16 173.162 166.983 173.111C166.807 173.065 166.649 172.998 166.51 172.91C166.371 172.821 166.248 172.719 166.142 172.603C166.04 172.488 165.949 172.36 165.87 172.221C165.768 172.365 165.664 172.497 165.557 172.617C165.451 172.738 165.323 172.842 165.175 172.93C165.031 173.014 164.857 173.079 164.653 173.125C164.449 173.172 164.201 173.195 163.909 173.195C163.644 173.195 163.412 173.169 163.213 173.118C163.014 173.067 162.847 173.009 162.712 172.944C162.717 173.042 162.719 173.134 162.719 173.223C162.719 173.672 162.656 174.106 162.531 174.523C162.406 174.941 162.214 175.328 161.954 175.685C161.694 176.042 161.381 176.353 161.015 176.617C160.653 176.886 160.261 177.107 159.839 177.278C159.417 177.45 158.974 177.577 158.51 177.661C158.051 177.749 157.592 177.793 157.133 177.793C156.451 177.793 155.823 177.679 155.248 177.452C154.673 177.23 154.174 176.914 153.752 176.506C153.335 176.103 153.008 175.616 152.771 175.045C152.535 174.479 152.416 173.851 152.416 173.16C152.43 172.757 152.481 172.348 152.569 171.936C152.662 171.518 152.778 171.115 152.917 170.725C153.061 170.336 153.219 169.967 153.39 169.619C153.567 169.271 153.745 168.961 153.926 168.687L155.366 169.751C155.204 170.011 155.046 170.28 154.893 170.558C154.745 170.837 154.61 171.122 154.489 171.414C154.374 171.701 154.281 171.996 154.211 172.297C154.142 172.599 154.107 172.903 154.107 173.209C154.107 173.241 154.107 173.276 154.107 173.313C154.107 173.656 154.174 173.988 154.309 174.308C154.443 174.632 154.643 174.92 154.907 175.17C155.171 175.426 155.489 175.625 155.86 175.769C156.236 175.917 156.651 175.991 157.105 175.991C157.606 175.991 158.058 175.945 158.462 175.852C158.865 175.759 159.22 175.627 159.526 175.456C159.832 175.284 160.085 175.08 160.284 174.843C160.488 174.612 160.639 174.352 160.736 174.064C160.857 173.661 160.917 173.26 160.917 172.861C160.917 172.833 160.915 172.708 160.91 172.485C160.906 172.258 160.85 171.936 160.743 171.518C160.641 171.096 160.502 170.677 160.326 170.259C160.15 169.842 159.962 169.424 159.763 169.007L161.328 168.047C161.393 168.214 161.469 168.418 161.557 168.659C161.645 168.9 161.745 169.151 161.856 169.41C161.968 169.67 162.093 169.928 162.232 170.183C162.371 170.438 162.522 170.66 162.684 170.85C162.847 171.041 163.025 171.187 163.22 171.289C163.354 171.368 163.498 171.407 163.651 171.407C163.711 171.407 163.772 171.4 163.832 171.386C164.064 171.381 164.247 171.323 164.382 171.212C164.521 171.101 164.627 170.957 164.702 170.781C164.776 170.6 164.822 170.396 164.841 170.169C164.864 169.937 164.876 169.698 164.876 169.452L164.841 168.277L166.545 168.103L166.587 168.923C166.591 169.03 166.603 169.167 166.622 169.334C166.64 169.501 166.668 169.677 166.705 169.863C166.742 170.048 166.789 170.236 166.844 170.426C166.9 170.616 166.969 170.788 167.053 170.941C167.136 171.089 167.231 171.212 167.338 171.31C167.449 171.402 167.577 171.449 167.721 171.449C168.083 171.449 168.349 171.328 168.521 171.087C168.692 170.841 168.778 170.486 168.778 170.023C168.778 169.846 168.748 169.652 168.688 169.438C168.632 169.22 168.553 168.991 168.451 168.75C168.354 168.508 168.238 168.258 168.103 167.998C167.974 167.734 167.834 167.467 167.686 167.198L169.272 166.363ZM165.356 164.784L164.173 165.967L162.976 164.777L164.159 163.588L165.356 164.784ZM167.985 164.791L166.803 165.981L165.606 164.784L166.789 163.602L167.985 164.791ZM164.396 162.774L165.481 161.689L166.573 162.781L165.488 163.866L164.396 162.774ZM174.393 168.687C174.272 168.687 174.142 168.738 174.003 168.84C173.864 168.942 173.736 169.074 173.62 169.237C173.504 169.394 173.407 169.57 173.328 169.765C173.254 169.96 173.217 170.15 173.217 170.336C173.217 170.53 173.261 170.693 173.349 170.823C173.442 170.948 173.558 171.05 173.697 171.129C173.841 171.208 174.001 171.268 174.177 171.31C174.358 171.347 174.536 171.374 174.713 171.393C174.81 171.398 174.917 171.402 175.033 171.407C175.148 171.412 175.267 171.416 175.387 171.421C175.513 171.421 175.635 171.423 175.756 171.428C175.877 171.428 175.99 171.428 176.097 171.428C176.083 171.256 176.048 171.071 175.993 170.871C175.942 170.667 175.874 170.463 175.791 170.259C175.707 170.055 175.612 169.86 175.506 169.675C175.399 169.485 175.283 169.318 175.158 169.174C175.037 169.026 174.912 168.907 174.782 168.819C174.652 168.731 174.522 168.687 174.393 168.687ZM171.234 176.339C171.916 176.205 172.531 176.024 173.078 175.797C173.63 175.574 174.107 175.323 174.511 175.045C174.914 174.767 175.241 174.47 175.492 174.155C175.747 173.839 175.916 173.524 175.999 173.209C175.624 173.209 175.257 173.197 174.9 173.174C174.543 173.151 174.205 173.104 173.885 173.035C173.569 172.97 173.277 172.877 173.008 172.757C172.744 172.631 172.514 172.469 172.319 172.27C172.129 172.066 171.981 171.82 171.874 171.532C171.768 171.245 171.714 170.901 171.714 170.503C171.714 170.248 171.742 169.981 171.798 169.703C171.853 169.424 171.932 169.153 172.034 168.889C172.141 168.62 172.271 168.367 172.424 168.13C172.577 167.889 172.753 167.678 172.953 167.497C173.152 167.312 173.372 167.166 173.613 167.059C173.855 166.952 174.114 166.899 174.393 166.899C175.111 166.899 175.768 167.219 176.361 167.859C176.575 168.096 176.765 168.365 176.932 168.666C177.103 168.963 177.247 169.283 177.363 169.626C177.484 169.965 177.574 170.319 177.634 170.69C177.699 171.061 177.732 171.437 177.732 171.817C177.732 172.411 177.655 172.965 177.502 173.48C177.354 173.999 177.143 174.477 176.869 174.913C176.6 175.349 176.278 175.741 175.902 176.089C175.526 176.441 175.114 176.75 174.664 177.014C174.214 177.278 173.734 177.499 173.224 177.675C172.714 177.856 172.19 177.99 171.652 178.078L171.234 176.339ZM182.157 168.583C182.25 168.875 182.345 169.181 182.442 169.501C182.544 169.816 182.635 170.136 182.713 170.461C182.797 170.786 182.864 171.11 182.915 171.435C182.966 171.755 182.992 172.068 182.992 172.374C182.992 172.791 182.927 173.197 182.797 173.591C182.672 173.99 182.495 174.373 182.268 174.739C182.046 175.11 181.779 175.463 181.468 175.797C181.162 176.13 180.828 176.446 180.466 176.743C180.105 177.039 179.722 177.315 179.319 177.57C178.915 177.826 178.507 178.055 178.094 178.259L177.301 176.666C177.631 176.504 177.955 176.323 178.275 176.123C178.595 175.929 178.899 175.72 179.186 175.497C179.479 175.275 179.748 175.041 179.993 174.795C180.244 174.549 180.457 174.294 180.633 174.03C180.814 173.765 180.956 173.494 181.058 173.216C181.16 172.937 181.211 172.657 181.211 172.374C181.211 172.11 181.181 171.831 181.12 171.539C181.06 171.247 180.986 170.959 180.898 170.677C180.814 170.389 180.726 170.113 180.633 169.849C180.545 169.584 180.471 169.35 180.411 169.146L182.157 168.583ZM191.028 170.802C190.755 171.21 190.553 171.655 190.423 172.137C190.293 172.62 190.228 173.1 190.228 173.577C190.228 173.958 190.316 174.296 190.493 174.593C190.669 174.894 190.894 175.147 191.167 175.351C191.441 175.56 191.745 175.718 192.079 175.824C192.413 175.936 192.737 175.991 193.053 175.991C193.373 175.991 193.704 175.936 194.047 175.824C194.395 175.718 194.713 175.546 195 175.31C195.288 175.078 195.524 174.776 195.71 174.405C195.895 174.039 195.988 173.594 195.988 173.07C195.988 172.703 195.981 172.272 195.967 171.776C195.953 171.279 195.935 170.753 195.912 170.197C195.893 169.635 195.87 169.058 195.842 168.464C195.814 167.871 195.786 167.291 195.759 166.725C195.726 166.062 195.687 165.371 195.64 164.652C195.599 163.929 195.557 163.205 195.515 162.482L197.331 162.141C197.363 162.901 197.396 163.657 197.428 164.409C197.465 165.155 197.495 165.874 197.519 166.565C197.537 167.154 197.556 167.757 197.574 168.374C197.597 168.991 197.616 169.589 197.63 170.169C197.649 170.744 197.662 171.284 197.672 171.79C197.686 172.295 197.693 172.731 197.693 173.097C197.693 173.682 197.623 174.203 197.484 174.663C197.349 175.122 197.166 175.523 196.934 175.866C196.702 176.214 196.431 176.508 196.12 176.75C195.814 176.991 195.49 177.188 195.146 177.341C194.808 177.494 194.462 177.603 194.11 177.668C193.757 177.737 193.419 177.772 193.094 177.772C192.784 177.772 192.457 177.737 192.113 177.668C191.775 177.598 191.439 177.492 191.105 177.348C190.771 177.204 190.453 177.019 190.152 176.791C189.85 176.569 189.584 176.302 189.352 175.991C189.124 175.681 188.946 175.323 188.816 174.92C188.686 174.535 188.621 174.101 188.621 173.619C188.621 173.605 188.621 173.589 188.621 173.57C188.621 173.274 188.637 172.97 188.67 172.659C188.707 172.348 188.763 172.042 188.837 171.741C188.911 171.439 189.004 171.15 189.115 170.871C189.226 170.593 189.363 170.338 189.526 170.106L191.028 170.802ZM203.066 173.209H202.788C201.846 173.209 201.132 172.972 200.645 172.499C200.158 172.026 199.912 171.312 199.908 170.357C199.908 170.208 199.912 169.965 199.922 169.626C199.931 169.283 199.936 168.866 199.936 168.374C199.936 168.082 199.933 167.769 199.929 167.435C199.924 167.096 199.917 166.753 199.908 166.405C199.898 166.053 199.884 165.703 199.866 165.355C199.852 165.002 199.833 164.664 199.81 164.339C199.787 164.01 199.759 163.704 199.727 163.421C199.694 163.133 199.657 162.881 199.616 162.663L201.362 162.141C201.413 162.41 201.459 162.739 201.501 163.129C201.542 163.514 201.58 163.926 201.612 164.367C201.644 164.808 201.668 165.257 201.682 165.717C201.7 166.171 201.709 166.6 201.709 167.003C201.709 167.249 201.712 167.511 201.716 167.79C201.721 168.063 201.723 168.304 201.723 168.513C201.723 168.689 201.721 168.856 201.716 169.014C201.716 169.167 201.714 169.315 201.709 169.459C201.709 169.603 201.707 169.744 201.702 169.883C201.702 170.023 201.702 170.164 201.702 170.308C201.702 170.345 201.702 170.382 201.702 170.419C201.702 170.586 201.719 170.734 201.751 170.864C201.788 170.994 201.851 171.103 201.939 171.191C202.027 171.275 202.138 171.335 202.273 171.372C202.412 171.409 202.572 171.428 202.753 171.428H203.066V173.209ZM202.791 171.428H204.203C204.773 171.428 205.348 171.372 205.928 171.261C206.508 171.145 207.078 170.997 207.639 170.816C208.2 170.63 208.745 170.424 209.274 170.197C209.803 169.965 210.301 169.733 210.77 169.501C210.58 169.478 210.38 169.431 210.171 169.362C209.967 169.288 209.756 169.204 209.538 169.111C209.32 169.014 209.098 168.912 208.871 168.805C208.643 168.699 208.416 168.603 208.189 168.52C207.962 168.432 207.732 168.36 207.5 168.304C207.273 168.244 207.05 168.214 206.832 168.214C206.661 168.214 206.496 168.246 206.338 168.311C206.185 168.372 206.039 168.45 205.9 168.548C205.766 168.641 205.643 168.743 205.531 168.854C205.425 168.965 205.332 169.07 205.253 169.167C205.179 169.26 205.121 169.339 205.079 169.403L205.01 169.501L203.618 168.743C203.781 168.437 203.985 168.144 204.231 167.866C204.481 167.583 204.752 167.335 205.044 167.122C205.337 166.904 205.636 166.732 205.942 166.607C206.253 166.477 206.549 166.412 206.832 166.412C207.069 166.412 207.305 166.44 207.542 166.496C207.783 166.547 208.024 166.616 208.265 166.704C208.511 166.792 208.757 166.892 209.003 167.003C209.253 167.115 209.508 167.228 209.768 167.344C210.037 167.474 210.331 167.604 210.651 167.734C210.971 167.859 211.301 167.973 211.639 168.075C211.978 168.172 212.316 168.253 212.655 168.318C212.998 168.379 213.325 168.409 213.636 168.409L213.337 170.106C213.16 170.18 212.991 170.261 212.829 170.35C212.666 170.433 212.5 170.514 212.328 170.593C212.421 170.788 212.56 170.941 212.745 171.052C212.931 171.163 213.126 171.247 213.33 171.303C213.538 171.358 213.738 171.393 213.928 171.407C214.123 171.421 214.276 171.428 214.387 171.428H214.665V173.209H214.387C213.478 173.209 212.708 173.051 212.078 172.736C211.447 172.42 210.992 171.973 210.714 171.393C210.246 171.625 209.761 171.85 209.26 172.068C208.759 172.286 208.24 172.481 207.702 172.652C207.164 172.819 206.603 172.954 206.018 173.056C205.439 173.158 204.833 173.209 204.203 173.209H202.791V171.428ZM214.384 171.428H215.504C215.722 171.428 215.945 171.416 216.172 171.393C216.404 171.365 216.613 171.312 216.798 171.233C216.984 171.15 217.134 171.031 217.25 170.878C217.371 170.725 217.431 170.521 217.431 170.266C217.431 170.146 217.406 169.976 217.355 169.758C217.304 169.54 217.236 169.299 217.153 169.035C217.07 168.77 216.97 168.497 216.854 168.214C216.743 167.931 216.624 167.667 216.499 167.421L218.106 166.628C218.222 166.892 218.338 167.173 218.454 167.47C218.57 167.766 218.672 168.072 218.76 168.388C218.853 168.699 218.927 169.012 218.983 169.327C219.038 169.642 219.066 169.951 219.066 170.252C219.066 170.772 218.978 171.219 218.802 171.595C218.625 171.966 218.38 172.272 218.064 172.513C217.749 172.75 217.371 172.923 216.93 173.035C216.494 173.151 216.014 173.209 215.49 173.209H214.384V171.428ZM217.967 175.47L216.631 176.805L215.303 175.47L216.631 174.141L217.967 175.47ZM223.972 173.209H223.694C222.752 173.209 222.038 172.972 221.551 172.499C221.064 172.026 220.819 171.312 220.814 170.357C220.814 170.208 220.819 169.965 220.828 169.626C220.837 169.283 220.842 168.866 220.842 168.374C220.842 168.082 220.839 167.769 220.835 167.435C220.83 167.096 220.823 166.753 220.814 166.405C220.805 166.053 220.791 165.703 220.772 165.355C220.758 165.002 220.74 164.664 220.717 164.339C220.693 164.01 220.666 163.704 220.633 163.421C220.601 163.133 220.563 162.881 220.522 162.663L222.268 162.141C222.319 162.41 222.365 162.739 222.407 163.129C222.449 163.514 222.486 163.926 222.518 164.367C222.551 164.808 222.574 165.257 222.588 165.717C222.606 166.171 222.616 166.6 222.616 167.003C222.616 167.249 222.618 167.511 222.623 167.79C222.627 168.063 222.63 168.304 222.63 168.513C222.63 168.689 222.627 168.856 222.623 169.014C222.623 169.167 222.62 169.315 222.616 169.459C222.616 169.603 222.613 169.744 222.609 169.883C222.609 170.023 222.609 170.164 222.609 170.308C222.609 170.345 222.609 170.382 222.609 170.419C222.609 170.586 222.625 170.734 222.657 170.864C222.695 170.994 222.757 171.103 222.845 171.191C222.933 171.275 223.045 171.335 223.179 171.372C223.318 171.409 223.478 171.428 223.659 171.428H223.972V173.209ZM223.697 171.428H225.179C225.397 171.428 225.631 171.416 225.881 171.393C226.136 171.365 226.37 171.312 226.584 171.233C226.802 171.15 226.98 171.031 227.119 170.878C227.263 170.725 227.335 170.521 227.335 170.266C227.335 170.146 227.31 169.976 227.259 169.758C227.208 169.54 227.14 169.299 227.057 169.035C226.973 168.77 226.874 168.497 226.758 168.214C226.646 167.931 226.528 167.667 226.403 167.421L228.01 166.628C228.126 166.892 228.242 167.173 228.358 167.47C228.474 167.766 228.576 168.072 228.664 168.388C228.757 168.699 228.831 169.012 228.886 169.327C228.942 169.642 228.97 169.951 228.97 170.252C228.97 170.79 228.87 171.247 228.671 171.623C228.471 171.998 228.198 172.304 227.85 172.541C227.507 172.773 227.103 172.942 226.639 173.049C226.18 173.155 225.689 173.209 225.165 173.209H223.697V171.428ZM226.813 164.179L225.631 165.362L224.434 164.172L225.617 162.983L226.813 164.179ZM229.443 164.186L228.26 165.376L227.064 164.179L228.246 162.997L229.443 164.186Z" fill="#C9C3E0"/>
<path d="M93.6093 112.133H89.4662C85.1134 112.133 81.5996 108.619 81.5996 104.266V72.7996C81.5996 68.4467 85.1134 64.933 89.4662 64.933H136.666C141.019 64.933 144.532 68.4467 144.532 72.7996V100.542" stroke="#C9C3E0" stroke-width="3" stroke-linecap="round" stroke-linejoin="round"/>
<path d="M144.529 72.8H160.262C168.968 72.8 175.996 79.8275 175.996 88.5333V104.266C175.996 108.619 172.482 112.133 168.129 112.133H156.119" stroke="#C9C3E0" stroke-width="3" stroke-linecap="round" stroke-linejoin="round"/>
<path d="M146.524 120C151.978 120 156.383 115.595 156.383 110.141C156.383 104.686 151.978 100.281 146.524 100.281C141.069 100.281 136.664 104.686 136.664 110.141C136.664 115.595 141.069 120 146.524 120Z" stroke="#C9C3E0" stroke-width="3" stroke-linecap="round" stroke-linejoin="round"/>
<path d="M103.261 120C108.715 120 113.12 115.595 113.12 110.141C113.12 104.686 108.715 100.281 103.261 100.281C97.8064 100.281 93.4536 104.686 93.4536 110.141C93.4011 115.595 97.8064 120 103.261 120Z" stroke="#C9C3E0" stroke-width="3" stroke-linecap="round" stroke-linejoin="round"/>
<path d="M136.876 112.134H112.856" stroke="#C9C3E0" stroke-width="3" stroke-linecap="round" stroke-linejoin="round"/>
<path d="M175.995 88.5318H160.262" stroke="#C9C3E0" stroke-width="3" stroke-linecap="round" stroke-linejoin="round"/>
<path d="M63.2958 70.9131C54.2754 53.5541 56.9501 32.4192 70.0086 17.7873C83.0672 3.20785 103.73 -1.87922 122.033 5.09584C140.336 12.0709 152.398 29.5872 152.451 49.2012" stroke="#C9C3E0" stroke-width="3" stroke-linecap="round" stroke-linejoin="round"/>
<path d="M105.2 2C92.1941 14.167 85.0092 31.3686 85.5337 49.1996" stroke="#C9C3E0" stroke-width="3" stroke-linecap="round" stroke-linejoin="round"/>
<path d="M105.197 2C118.203 14.167 125.388 31.3686 124.864 49.1996" stroke="#C9C3E0" stroke-width="3" stroke-linecap="round" stroke-linejoin="round"/>
<path d="M60.6709 33.4648H149.668" stroke="#C9C3E0" stroke-width="3" stroke-linecap="round" stroke-linejoin="round"/>
</svg>
