<svg width="102" height="95" viewBox="0 0 102 95" fill="none" xmlns="http://www.w3.org/2000/svg">
<path opacity="0.2" d="M90.0607 10.623C102.919 29.594 107.534 77.2347 90.0607 90.3094C72.5876 103.384 33.0249 81.8937 20.1662 62.9228C7.30739 43.9518 21.1552 27.5012 38.6293 14.4255C56.1034 1.34991 77.2029 -8.34793 90.0607 10.623Z" fill="#FF8389"/>
<path d="M44.0862 66.4306C43.2913 66.4306 42.6479 67.0741 42.6479 67.8689C42.6479 68.6638 43.2913 69.3072 44.0862 69.3072C44.881 69.3072 45.5245 68.6638 45.5245 67.8689C45.4866 67.0362 44.881 66.4306 44.0862 66.4306Z" stroke="#EA002A" stroke-width="3" stroke-linecap="round" stroke-linejoin="round"/>
<path d="M44.0857 55.0767V23.851" stroke="#EA002A" stroke-width="3" stroke-linecap="round"/>
<path d="M44.0805 91.9794C67.585 91.9794 86.6611 72.9033 86.6611 49.3988C86.6611 25.8944 67.585 6.81827 44.0805 6.81827C20.5761 6.81827 1.5 25.8944 1.5 49.3988C1.5 72.9033 20.5761 91.9794 44.0805 91.9794Z" stroke="#EA002A" stroke-width="3"/>
</svg>
