
<svg width="94" height="103" viewBox="0 0 94 103" fill="none" xmlns="http://www.w3.org/2000/svg">
<path d="M29.0246 95.03H25.8803C22.5768 95.03 19.9102 92.3633 19.9102 89.0598V65.1792C19.9102 61.8757 22.5768 59.209 25.8803 59.209H61.7013C65.0048 59.209 67.6715 61.8757 67.6715 65.1792V86.234" stroke="#B9BECB" stroke-width="3" stroke-linecap="round" stroke-linejoin="round"/>
<path d="M67.6719 65.1782H79.6122C86.2192 65.1782 91.5526 70.5116 91.5526 77.1186V89.0589C91.5526 92.3624 88.8859 95.0291 85.5824 95.0291H76.4679" stroke="#B9BECB" stroke-width="3" stroke-linecap="round" stroke-linejoin="round"/>
<path d="M69.1848 101C73.3241 101 76.6674 97.6571 76.6674 93.5178C76.6674 89.3785 73.3241 86.0352 69.1848 86.0352C65.0454 86.0352 61.7021 89.3785 61.7021 93.5178C61.7021 97.6571 65.0454 101 69.1848 101Z" stroke="#B9BECB" stroke-width="3" stroke-linecap="round" stroke-linejoin="round"/>
<path d="M36.3494 101C40.4887 101 43.832 97.6571 43.832 93.5178C43.832 89.3785 40.4887 86.0352 36.3494 86.0352C32.2101 86.0352 28.9066 89.3785 28.9066 93.5178C28.8668 97.6571 32.2101 101 36.3494 101Z" stroke="#B9BECB" stroke-width="3" stroke-linecap="round" stroke-linejoin="round"/>
<path d="M61.8588 95.0293H43.6299" stroke="#B9BECB" stroke-width="3" stroke-linecap="round" stroke-linejoin="round"/>
<path d="M91.5526 77.1191H79.6123" stroke="#B9BECB" stroke-width="3" stroke-linecap="round" stroke-linejoin="round"/>
<path d="M6.01913 63.7473C-0.826665 50.5732 1.20319 34.5333 11.1137 23.4288C21.0242 12.3641 36.7058 8.50336 50.5964 13.7969C64.487 19.0905 73.6413 32.384 73.6811 47.2697" stroke="#B9BECB" stroke-width="3" stroke-linecap="round" stroke-linejoin="round"/>
<path d="M37.8208 11.4473C27.9501 20.6811 22.4974 33.7359 22.8954 47.2683" stroke="#B9BECB" stroke-width="3" stroke-linecap="round" stroke-linejoin="round"/>
<path d="M37.8203 11.4473C47.691 20.6811 53.1437 33.7359 52.7457 47.2683" stroke="#B9BECB" stroke-width="3" stroke-linecap="round" stroke-linejoin="round"/>
<path d="M4.0293 35.3281H71.5718" stroke="#B9BECB" stroke-width="3" stroke-linecap="round" stroke-linejoin="round"/>
<path d="M80.5835 10.0864C92.9138 28.099 97.3398 73.3331 80.5835 85.7473C63.8273 98.1615 25.8879 77.7567 13.5567 59.7441C1.22554 41.7315 14.5052 26.1119 31.2623 13.6968C48.0195 1.28171 68.2532 -7.92622 80.5835 10.0864Z" fill="#B9BECB" fill-opacity="0.2"/>
</svg>
