<svg width="22" height="25" viewBox="0 0 22 25" fill="none" xmlns="http://www.w3.org/2000/svg">
<path d="M20.5 22C20.5 22.83 19.83 23.5 19 23.5H2.5C1.67 23.5 1 22.83 1 22V2.5C1 1.67 1.67 1 2.5 1H13.13C13.53 1 13.91 1.16 14.19 1.44L20.06 7.31001C20.34 7.59001 20.5 7.97 20.5 8.37V22Z" stroke="#DAD6E9" stroke-width="1.5" stroke-linecap="round" stroke-linejoin="round"/>
<path d="M20.5 8.5H14.5C13.67 8.5 13 7.83 13 7V1" stroke="#DAD6E9" stroke-width="1.5" stroke-linecap="round" stroke-linejoin="round"/>
<path d="M4.95001 11.8399C5.39001 12.4199 6.08 12.7399 6.81 12.7199C7.95 12.7199 8.87 12.03 8.87 11.17C8.87 10.32 7.95 9.61995 6.81 9.61995C5.67 9.61995 4.75 8.92994 4.75 8.06994C4.75 7.20994 5.67 6.51995 6.81 6.51995C7.54 6.48995 8.23001 6.81995 8.67001 7.39995" stroke="#DAD6E9" stroke-width="1.5" stroke-linecap="round" stroke-linejoin="round"/>
<path d="M6.81055 12.72V13.75" stroke="#DAD6E9" stroke-width="1.5" stroke-linecap="round" stroke-linejoin="round"/>
<path d="M6.81055 5.5V6.53001" stroke="#DAD6E9" stroke-width="1.5" stroke-linecap="round" stroke-linejoin="round"/>
<path d="M10.75 15.25H16.75" stroke="#DAD6E9" stroke-width="1.5" stroke-linecap="round" stroke-linejoin="round"/>
<path d="M5.5 19.75H16.75" stroke="#DAD6E9" stroke-width="1.5" stroke-linecap="round" stroke-linejoin="round"/>
</svg>
