<svg width="25" height="21" viewBox="0 0 25 21" fill="none" xmlns="http://www.w3.org/2000/svg">
<path d="M19.6209 1.61218C19.3367 1.22447 18.8801 1 18.4031 1L6.22581 1C5.74887 1 5.29224 1.22447 5.0081 1.61218L1.61873 6.15245C1.19252 6.72381 1.21284 7.50945 1.66949 8.05021L11.1475 19.5795C11.4316 19.9264 11.868 20.1304 12.3145 20.1304C12.761 20.1304 13.1973 19.9264 13.4814 19.5795L22.9595 8.05021C23.4161 7.50945 23.4263 6.72381 23.0102 6.15245L19.6209 1.61218Z" stroke="#DAD6E9" stroke-width="1.5" stroke-linecap="round" stroke-linejoin="round"/>
<path d="M5.52539 1.17334L12.3142 20.1303" stroke="#DAD6E9" stroke-width="1.5" stroke-linecap="round" stroke-linejoin="round"/>
<path d="M19.1033 1.17334L12.3145 20.1303" stroke="#DAD6E9" stroke-width="1.5" stroke-linecap="round" stroke-linejoin="round"/>
<path d="M1.31445 7.13159L23.3046 7.13159" stroke="#DAD6E9" stroke-width="1.5" stroke-linecap="round" stroke-linejoin="round"/>
<path d="M7.74805 7.13175L12.3145 1.01001L16.881 7.13175" stroke="#DAD6E9" stroke-width="1.5" stroke-linecap="round" stroke-linejoin="round"/>
</svg>
