<svg width="25" height="25" viewBox="0 0 25 25" fill="none" xmlns="http://www.w3.org/2000/svg">
<path d="M4.5 12.5C4.5 8.08172 8.08172 4.5 12.5 4.5C16.9183 4.5 20.5 8.08172 20.5 12.5C20.5 16.9183 16.9183 20.5 12.5 20.5C8.08172 20.5 4.5 16.9183 4.5 12.5Z" fill="white"/>
<path d="M12.5 2.49902C18.024 2.49902 22.502 6.97702 22.502 12.501C22.502 18.024 18.024 22.502 12.5 22.502C6.97605 22.502 2.49805 18.024 2.49805 12.501C2.49805 6.97702 6.97605 2.49902 12.5 2.49902ZM12.496 10.749C12.251 10.7494 12.0146 10.8397 11.8317 11.0028C11.6488 11.166 11.5322 11.3906 11.504 11.634L11.497 11.75L11.5 17.252L11.507 17.369C11.5352 17.6129 11.6522 17.8379 11.8355 18.0011C12.0189 18.1644 12.2559 18.2544 12.5014 18.2542C12.7469 18.2539 12.9838 18.1634 13.1668 17.9998C13.3499 17.8362 13.4663 17.611 13.494 17.367L13.5 17.25L13.497 11.749L13.49 11.632C13.4611 11.3888 13.344 11.1646 13.1607 11.002C12.9775 10.8395 12.741 10.7498 12.496 10.75V10.749ZM12.5 7.00002C12.1681 7.00002 11.8498 7.13188 11.6151 7.36658C11.3804 7.60128 11.2485 7.91961 11.2485 8.25152C11.2485 8.58344 11.3804 8.90177 11.6151 9.13647C11.8498 9.37117 12.1681 9.50302 12.5 9.50302C12.832 9.50302 13.1503 9.37117 13.385 9.13647C13.6197 8.90177 13.7515 8.58344 13.7515 8.25152C13.7515 7.91961 13.6197 7.60128 13.385 7.36658C13.1503 7.13188 12.832 7.00002 12.5 7.00002Z" fill="#0F62FE"/>
</svg>
