<svg width="18" height="18" viewBox="0 0 18 18" fill="none" xmlns="http://www.w3.org/2000/svg">
<path d="M8.41922 7.20926L6.61244 9.02237L5.36761 8.68819C4.98349 8.58865 4.5709 8.69531 4.28636 8.97971C4.00183 9.26412 3.89515 9.66939 3.99474 10.0605L4.32904 11.3047L3.77422 11.8593L2.52939 11.5252C2.14527 11.4185 1.73268 11.5323 1.44814 11.8167C1.16361 12.1011 1.05693 12.5135 1.15652 12.8974L1.49082 14.1417C0.836393 14.7958 0.836393 15.8553 1.49082 16.5094C2.14525 17.1635 3.20515 17.1635 3.85958 16.5094L10.788 9.58406C12.7584 10.416 15.0417 9.74049 16.2368 7.97006C17.4318 6.19962 17.2042 3.82482 15.6891 2.31036C14.1739 0.795886 11.8052 0.568346 10.034 1.76286C8.26274 2.95026 7.58696 5.23974 8.41922 7.20926Z" stroke="#483493" stroke-width="1.5" stroke-linecap="round" stroke-linejoin="round"/>
<path d="M13.3285 3.55501C12.7096 3.55501 12.2117 4.05273 12.2117 4.67131C12.2117 5.2899 12.7096 5.7876 13.3285 5.7876C13.9474 5.7876 14.4453 5.2899 14.4453 4.67131C14.4453 4.05273 13.9474 3.55501 13.3285 3.55501Z" stroke="#483493" stroke-width="1.5" stroke-linecap="round" stroke-linejoin="round"/>
</svg>
