<svg width="34" height="42" viewBox="0 0 34 42" fill="none" xmlns="http://www.w3.org/2000/svg">
<path d="M1 22.4138H5.4464C5.6954 22.396 5.92661 22.5027 6.10446 22.6806C6.28232 22.8585 6.35347 23.1074 6.33568 23.3387V40.075C6.35347 40.324 6.26453 40.5552 6.10446 40.733C5.92661 40.9109 5.6954 40.9997 5.4464 40.9997H1" stroke="#DAD6E9" stroke-width="2" stroke-linecap="round" stroke-linejoin="round"/>
<path d="M13.717 18.4652L10.3022 22.716C9.83978 23.2852 9.16384 23.6229 8.43463 23.6407H6.33594" stroke="#DAD6E9" stroke-width="2" stroke-linecap="round" stroke-linejoin="round"/>
<path d="M6.33594 36.1625C10.1421 39.0616 13.6281 41.0002 15.8691 41.0002H27.0206C28.3723 41.0002 29.226 40.9114 29.813 39.1506C30.7023 34.6509 31.3247 30.0977 31.6804 25.5268C31.6804 24.6019 30.7556 23.6592 28.8881 23.6592H18.3412" stroke="#DAD6E9" stroke-width="2" stroke-linecap="round" stroke-linejoin="round"/>
<path d="M14.1259 21.3647L11.3692 2.1027C11.3336 1.81813 11.4047 1.53368 11.6004 1.33804C11.7782 1.12461 12.045 1 12.3295 1H25.7578" stroke="#DAD6E9" stroke-width="2" stroke-linecap="round" stroke-linejoin="round"/>
<path d="M19.9594 23.6587L18.3232 7.36727C18.2876 7.11827 18.3764 6.86924 18.5543 6.6736C18.7321 6.47796 18.9634 6.37119 19.2124 6.38897H31.4845C31.7512 6.38897 32.0002 6.49576 32.1603 6.69141C32.3382 6.88705 32.4093 7.15388 32.3737 7.40287L29.9193 23.7656" stroke="#DAD6E9" stroke-width="2" stroke-linecap="round" stroke-linejoin="round"/>
<path d="M25.0665 14.9783C25.44 14.9783 25.7245 15.2807 25.7245 15.6542C25.7245 16.0277 25.4222 16.3122 25.0665 16.3122C24.693 16.3122 24.4084 16.0277 24.3906 15.6542C24.3906 15.2807 24.6752 14.9783 25.0665 14.9783Z" stroke="#DAD6E9" stroke-width="2" stroke-linecap="round" stroke-linejoin="round"/>
</svg>
