<svg width="54" height="11" viewBox="0 0 54 11" fill="none" xmlns="http://www.w3.org/2000/svg">
<path d="M53.6222 5.78027H50.6865V8.68097H53.6222V5.78027Z" fill="#0080FF"/>
<path d="M12.9959 2.32227V3.1911C12.7417 2.92304 12.4348 2.70898 12.0941 2.56197C11.7533 2.41497 11.3858 2.3381 11.014 2.33606C9.41205 2.33606 8.10938 3.76878 8.10938 5.53402C8.10938 7.29927 9.41825 8.64005 11.014 8.64005C11.3848 8.63718 11.7511 8.55991 12.0907 8.41293C12.4303 8.26595 12.7362 8.05233 12.9897 7.78501V8.64005H14.8507V2.32227H12.9959ZM11.3242 7.3008C10.5007 7.3008 9.83541 6.53464 9.83541 5.56774C9.83541 4.60084 10.5023 3.83008 11.3242 3.83008C12.1461 3.83008 12.816 4.60697 12.816 5.56467C12.816 6.52238 12.1492 7.3008 11.3242 7.3008Z" fill="#172B4C"/>
<path d="M5.06453 0H0.623047V8.64386H2.484V6.05576H5.06453C5.87726 6.05576 6.65669 5.73675 7.23138 5.16891C7.80606 4.60108 8.12891 3.83092 8.12891 3.02788C8.12891 2.22484 7.80606 1.45468 7.23138 0.886845C6.65669 0.319008 5.87726 0 5.06453 0V0ZM5.06453 4.32883C5.02232 4.33371 4.97987 4.33627 4.93737 4.33649H2.484V1.71927H4.93737C4.97972 1.71694 5.02218 1.71694 5.06453 1.71927C5.39501 1.74673 5.703 1.89585 5.92747 2.13708C6.15194 2.37831 6.27652 2.69405 6.27652 3.02175C6.27652 3.34945 6.15194 3.66519 5.92747 3.90642C5.703 4.14765 5.39501 4.29677 5.06453 4.32423V4.32883Z" fill="#172B4C"/>
<path d="M22.5708 2.33579L20.0817 10.9996H18.2177L18.8892 8.66737L18.8907 8.6643L17.4981 8.66737L15.7441 2.32812H17.5989L18.9993 7.18407H19.3156L20.716 2.32812L22.5708 2.33579Z" fill="#172B4C"/>
<path d="M47.3163 2.32815V3.15714C47.0625 2.89373 46.7568 2.68433 46.4182 2.54178C46.0795 2.39923 45.7149 2.32654 45.3468 2.32815C43.7417 2.32815 42.4375 3.73483 42.4375 5.50007C42.4375 7.26531 43.7417 8.64594 45.3468 8.64594C45.713 8.65202 46.0766 8.58407 46.4153 8.44625C46.754 8.30844 47.0606 8.10368 47.3163 7.84453V9.50098H43.3711V10.9981H49.1742V2.32815H47.3163ZM45.6368 7.30209C44.8164 7.30209 44.148 6.53592 44.148 5.56902C44.148 4.60213 44.8195 3.83136 45.6368 3.83136C46.4541 3.83136 47.1287 4.60826 47.1287 5.56596C47.1287 6.52366 46.4603 7.30209 45.6368 7.30209Z" fill="#172B4C"/>
<path d="M28.3817 0H23.9434V8.64386H25.8043V6.05576H28.3817C29.1945 6.05576 29.9739 5.73675 30.5486 5.16891C31.1233 4.60108 31.4461 3.83092 31.4461 3.02788C31.4461 2.22484 31.1233 1.45468 30.5486 0.886845C29.9739 0.319008 29.1945 0 28.3817 0V0ZM28.3817 4.32883C28.3395 4.33376 28.2971 4.33632 28.2546 4.33649H25.7981V1.71927H28.2561C28.2985 1.71689 28.3409 1.71689 28.3833 1.71927C28.7138 1.74673 29.0218 1.89585 29.2462 2.13708C29.4707 2.37831 29.5953 2.69405 29.5953 3.02175C29.5953 3.34945 29.4707 3.66519 29.2462 3.90642C29.0218 4.14765 28.7138 4.29677 28.3833 4.32423L28.3817 4.32883Z" fill="#172B4C"/>
<path d="M41.5632 5.21044V8.64438H39.7022V5.21044C39.7022 4.84468 39.5552 4.4939 39.2934 4.23527C39.0317 3.97664 38.6767 3.83134 38.3065 3.83134C37.9363 3.83134 37.5813 3.97664 37.3196 4.23527C37.0578 4.4939 36.9108 4.84468 36.9108 5.21044V8.64438H35.0498V2.32813H36.9108V3.2797C37.3155 2.62846 38.1359 2.32813 39.0447 2.32813C39.368 2.32763 39.6883 2.38957 39.9875 2.51047C40.4499 2.69624 40.8454 3.01434 41.1234 3.42391C41.4014 3.83348 41.5492 4.31582 41.5477 4.80897C41.5477 4.93309 41.5632 5.21044 41.5632 5.21044Z" fill="#172B4C"/>
<path d="M34.1702 2.31836H32.3154V8.64687H34.1702V2.31836Z" fill="#172B4C"/>
<path d="M34.1702 0H32.3154V1.8342H34.1702V0Z" fill="#172B4C"/>
</svg>
