<svg width="34" height="34" viewBox="0 0 34 34" fill="none" xmlns="http://www.w3.org/2000/svg">
<circle cx="17.1836" cy="17" r="16" stroke="#ADAABA" stroke-linecap="round" stroke-linejoin="round"/>
<path d="M16.6839 15.8928C18.0278 15.8928 19.1125 14.808 19.1125 13.4642C19.1125 12.1204 18.0278 11.0356 16.6839 11.0356C15.3401 11.0356 14.2554 12.1204 14.2554 13.4642C14.2554 14.808 15.3401 15.8928 16.6839 15.8928Z" stroke="#ADAABA" stroke-linecap="round" stroke-linejoin="round"/>
<path d="M16.683 8C19.7026 8 22.1473 10.4448 22.1473 13.4643C22.1473 16.0952 17.9945 21.9885 16.9259 23.4538C16.8692 23.5347 16.7802 23.5752 16.683 23.5752C16.5859 23.5752 16.4968 23.5266 16.4402 23.4538C15.3797 21.9885 11.2188 16.0952 11.2188 13.4643C11.2188 10.4448 13.6635 8 16.683 8Z" stroke="#ADAABA" stroke-linecap="round" stroke-linejoin="round"/>
<path d="M21.5245 21.786C23.7345 22.2232 25.1836 22.9518 25.1836 23.7856C25.1836 25.1294 21.3788 26.2141 16.6836 26.2141C11.9884 26.2141 8.18359 25.1294 8.18359 23.7856C8.18359 22.9598 9.62455 22.2313 11.8265 21.7941" stroke="#ADAABA" stroke-linecap="round" stroke-linejoin="round"/>
</svg>
