<svg width="48" height="48" viewBox="0 0 48 48" fill="none" xmlns="http://www.w3.org/2000/svg">
<circle cx="24" cy="24" r="23.25" stroke="#483493" stroke-width="1.5"/>
<path d="M23.908 22.129C25.6325 22.129 27.0246 20.7369 27.0246 19.0123C27.0246 17.2878 25.6325 15.8957 23.908 15.8957C22.1835 15.8957 20.7914 17.2878 20.7914 19.0123C20.7914 20.7369 22.1835 22.129 23.908 22.129Z" stroke="#483493" stroke-width="1.5" stroke-linecap="round" stroke-linejoin="round"/>
<path d="M23.9074 12C27.7824 12 30.9199 15.1374 30.9199 19.0124C30.9199 22.3888 25.5904 29.9517 24.2191 31.8321C24.1464 31.936 24.0321 31.988 23.9074 31.988C23.7828 31.988 23.6685 31.9256 23.5958 31.8321C22.2348 29.9517 16.895 22.3888 16.895 19.0124C16.895 15.1374 20.0324 12 23.9074 12Z" stroke="#483493" stroke-width="1.5" stroke-linecap="round" stroke-linejoin="round"/>
<path d="M30.1207 29.6917C32.9568 30.2526 34.8164 31.1877 34.8164 32.2577C34.8164 33.9822 29.9337 35.3743 23.9082 35.3743C17.8827 35.3743 13 33.9822 13 32.2577C13 31.1981 14.8492 30.263 17.6749 29.702" stroke="#483493" stroke-width="1.5" stroke-linecap="round" stroke-linejoin="round"/>
</svg>
