<svg width="103" height="115" viewBox="0 0 103 115" fill="none" xmlns="http://www.w3.org/2000/svg">
<path d="M89.2502 11.263C103.019 31.3768 107.961 81.8876 89.2502 95.7499C70.5393 109.612 28.1742 86.8273 14.4045 66.7134C0.634878 46.5996 15.4637 29.1579 34.1756 15.2946C52.8874 1.43123 75.4816 -8.85084 89.2502 11.263Z" fill="#EDF5FF"/>
<path d="M31.6772 106.114H28.1661C24.4773 106.114 21.4995 103.137 21.4995 99.4478V72.7814C21.4995 69.0926 24.4773 66.1148 28.1661 66.1148H68.1658C71.8546 66.1148 74.8324 69.0926 74.8324 72.7814V96.2923" fill="#0BE683" fill-opacity="0.06"/>
<path d="M31.6772 106.114H28.1661C24.4773 106.114 21.4995 103.137 21.4995 99.4478V72.7814C21.4995 69.0926 24.4773 66.1148 28.1661 66.1148H68.1658C71.8546 66.1148 74.8324 69.0926 74.8324 72.7814V96.2923" stroke="#0F62FE" stroke-width="3" stroke-linecap="round" stroke-linejoin="round"/>
<path d="M74.8315 72.7814H88.1648C95.5425 72.7814 101.498 78.7369 101.498 86.1146V99.4478C101.498 103.137 98.5202 106.114 94.8314 106.114H84.6537" fill="#0BE683" fill-opacity="0.06"/>
<path d="M74.8315 72.7814H88.1648C95.5425 72.7814 101.498 78.7369 101.498 86.1146V99.4478C101.498 103.137 98.5202 106.114 94.8314 106.114H84.6537" stroke="#0F62FE" stroke-width="3" stroke-linecap="round" stroke-linejoin="round"/>
<path d="M76.5215 112.782C81.1437 112.782 84.877 109.049 84.877 104.427C84.877 99.8045 81.1437 96.0712 76.5215 96.0712C71.8993 96.0712 68.166 99.8045 68.166 104.427C68.166 109.049 71.8993 112.782 76.5215 112.782Z" fill="#0BE683" fill-opacity="0.06" stroke="#0F62FE" stroke-width="3" stroke-linecap="round" stroke-linejoin="round"/>
<path d="M39.8559 112.782C44.478 112.782 48.2113 109.049 48.2113 104.427C48.2113 99.8045 44.478 96.0712 39.8559 96.0712C35.2337 96.0712 31.5448 99.8045 31.5448 104.427C31.5004 109.049 35.2337 112.782 39.8559 112.782Z" fill="#0BE683" fill-opacity="0.06" stroke="#0F62FE" stroke-width="3" stroke-linecap="round" stroke-linejoin="round"/>
<path d="M68.3427 106.114H47.9873H68.3427Z" fill="#0BE683" fill-opacity="0.06"/>
<path d="M68.3427 106.114H47.9873" stroke="#0F62FE" stroke-width="3" stroke-linecap="round" stroke-linejoin="round"/>
<path d="M101.499 86.1146H88.166H101.499Z" fill="#0BE683" fill-opacity="0.06"/>
<path d="M101.499 86.1146H88.166" stroke="#0F62FE" stroke-width="3" stroke-linecap="round" stroke-linejoin="round"/>
<path d="M5.98797 71.183C-1.6564 56.472 0.610242 38.5611 11.6768 26.1612C22.7434 13.8057 40.2543 9.49467 55.7653 15.4057C71.2763 21.3168 81.4984 36.1611 81.5429 52.7832" fill="#0BE683" fill-opacity="0.06"/>
<path d="M5.98797 71.183C-1.6564 56.472 0.610242 38.5611 11.6768 26.1612C22.7434 13.8057 40.2543 9.49467 55.7653 15.4057C71.2763 21.3168 81.4984 36.1611 81.5429 52.7832" stroke="#0F62FE" stroke-width="3" stroke-linecap="round" stroke-linejoin="round"/>
<path d="M41.4988 12.7819C30.4767 23.0929 24.3879 37.6706 24.8323 52.7816L41.4988 12.7819Z" fill="#0BE683" fill-opacity="0.06"/>
<path d="M41.4988 12.7819C30.4767 23.0929 24.3879 37.6706 24.8323 52.7816" stroke="#0F62FE" stroke-width="3" stroke-linecap="round" stroke-linejoin="round"/>
<path d="M41.4995 12.7819C52.5216 23.0929 58.6105 37.6706 58.166 52.7816L41.4995 12.7819Z" fill="#0BE683" fill-opacity="0.06"/>
<path d="M41.4995 12.7819C52.5216 23.0929 58.6105 37.6706 58.166 52.7816" stroke="#0F62FE" stroke-width="3" stroke-linecap="round" stroke-linejoin="round"/>
<path d="M3.76611 39.4483H79.1877H3.76611Z" fill="#0BE683" fill-opacity="0.06"/>
<path d="M3.76611 39.4483H79.1877" stroke="#0F62FE" stroke-width="3" stroke-linecap="round" stroke-linejoin="round"/>
</svg>
