<svg width="32" height="32" viewBox="0 0 32 32" fill="none" xmlns="http://www.w3.org/2000/svg">
<circle cx="16" cy="16" r="15.5" stroke="#ADAABA"/>
<path d="M23.9999 16.8V11.55C23.9999 10.969 23.5235 10.5 22.9333 10.5H14.3999C13.8097 10.5 13.3333 10.969 13.3333 11.55V15.75" stroke="#ADAABA" stroke-linecap="round" stroke-linejoin="round"/>
<path d="M13.3333 15.75V11.55H11.2C9.42933 11.55 8 12.957 8 14.7V18.9C8 19.481 8.47644 19.95 9.06667 19.95H9.6" stroke="#ADAABA" stroke-linecap="round" stroke-linejoin="round"/>
<path d="M8 15.75H10.1333C10.7236 15.75 11.2 15.281 11.2 14.7V11.55" stroke="#ADAABA" stroke-linecap="round" stroke-linejoin="round"/>
<path d="M12.8 21.0001C13.6817 21.0001 14.4 20.2931 14.4 19.4251C14.4 18.5571 13.6817 17.8501 12.8 17.8501C11.9182 17.8501 11.2 18.5571 11.2 19.4251C11.2 20.2931 11.9182 21.0001 12.8 21.0001Z" stroke="#ADAABA" stroke-linecap="round" stroke-linejoin="round"/>
<path d="M21.3332 21.0001C22.2149 21.0001 22.9332 20.2931 22.9332 19.4251C22.9332 18.5571 22.2149 17.8501 21.3332 17.8501C20.4514 17.8501 19.7332 18.5571 19.7332 19.4251C19.7332 20.2931 20.4514 21.0001 21.3332 21.0001Z" stroke="#ADAABA" stroke-linecap="round" stroke-linejoin="round"/>
<path d="M16 19.95H18.1333" stroke="#ADAABA" stroke-linecap="round" stroke-linejoin="round"/>
</svg>
