<svg width="34" height="34" viewBox="0 0 34 34" fill="none" xmlns="http://www.w3.org/2000/svg">
<circle cx="17" cy="17" r="16" stroke="#483493" stroke-linecap="round" stroke-linejoin="round"/>
<path d="M17.7894 21.7867L15.1362 22.1659L15.5153 19.5127L22.3449 12.6829C22.9742 12.0535 23.9898 12.0535 24.6191 12.6829C25.2484 13.3122 25.2484 14.3278 24.6191 14.9572L17.7894 21.7867Z" stroke="#483493" stroke-linecap="round" stroke-linejoin="round"/>
<path d="M12.2178 9.53636C12.2178 9.24315 12.4609 9 12.7541 9H17.045C17.3382 9 17.5814 9.24315 17.5814 9.53636V10.6091C17.5814 10.9023 17.3382 11.1454 17.045 11.1454H12.7541C12.4609 11.1454 12.2178 10.9023 12.2178 10.6091V9.53636Z" stroke="#483493" stroke-linecap="round" stroke-linejoin="round"/>
<path d="M17.582 10.0728H19.7275C20.321 10.0728 20.8002 10.5519 20.8002 11.1455" stroke="#483493" stroke-linecap="round" stroke-linejoin="round"/>
<path d="M20.7999 21.8727V24.0181C20.7999 24.6117 20.3208 25.0909 19.7272 25.0909H10.0727C9.47915 25.0909 9 24.6117 9 24.0181V11.1455C9 10.5519 9.47915 10.0728 10.0727 10.0728H12.2182" stroke="#483493" stroke-linecap="round" stroke-linejoin="round"/>
<path d="M12.2178 14.3636H17.5814" stroke="#483493" stroke-linecap="round" stroke-linejoin="round"/>
<path d="M12.2178 17.5818H14.3632" stroke="#483493" stroke-linecap="round" stroke-linejoin="round"/>
</svg>
