<svg width="33" height="32" viewBox="0 0 33 32" fill="none" xmlns="http://www.w3.org/2000/svg">
<circle cx="16.0459" cy="16" r="15.5" stroke="#483493"/>
<path d="M24.0458 16.8V11.55C24.0458 10.969 23.5694 10.5 22.9792 10.5H14.4458C13.8556 10.5 13.3792 10.969 13.3792 11.55V15.75" stroke="#483493" stroke-linecap="round" stroke-linejoin="round"/>
<path d="M13.3792 15.75V11.55H11.2459C9.47523 11.55 8.0459 12.957 8.0459 14.7V18.9C8.0459 19.481 8.52234 19.95 9.11257 19.95H9.6459" stroke="#483493" stroke-linecap="round" stroke-linejoin="round"/>
<path d="M8.0459 15.75H10.1792C10.7695 15.75 11.2459 15.281 11.2459 14.7V11.55" stroke="#483493" stroke-linecap="round" stroke-linejoin="round"/>
<path d="M12.8458 21.0001C13.7276 21.0001 14.4458 20.2931 14.4458 19.4251C14.4458 18.5571 13.7276 17.8501 12.8458 17.8501C11.9641 17.8501 11.2458 18.5571 11.2458 19.4251C11.2458 20.2931 11.9641 21.0001 12.8458 21.0001Z" stroke="#483493" stroke-linecap="round" stroke-linejoin="round"/>
<path d="M21.3791 21.0001C22.2608 21.0001 22.9791 20.2931 22.9791 19.4251C22.9791 18.5571 22.2608 17.8501 21.3791 17.8501C20.4973 17.8501 19.7791 18.5571 19.7791 19.4251C19.7791 20.2931 20.4973 21.0001 21.3791 21.0001Z" stroke="#483493" stroke-linecap="round" stroke-linejoin="round"/>
<path d="M16.0459 19.95H18.1792" stroke="#483493" stroke-linecap="round" stroke-linejoin="round"/>
</svg>
