<svg width="49" height="48" viewBox="0 0 49 48" fill="none" xmlns="http://www.w3.org/2000/svg">
<circle cx="24.1836" cy="24" r="23.25" stroke="#483493" stroke-width="1.5"/>
<path d="M38.6362 26.0249V16.8375C38.6362 15.8207 37.8025 15 36.7696 15H21.8363C20.8034 15 19.9697 15.8207 19.9697 16.8375V24.1874" stroke="#483493" stroke-width="1.5" stroke-linecap="round" stroke-linejoin="round"/>
<path d="M19.97 24.1875V16.8376H16.2367C13.138 16.8376 10.6367 19.2998 10.6367 22.3501V29.7C10.6367 30.7168 11.4705 31.5375 12.5034 31.5375H13.4367" stroke="#483493" stroke-width="1.5" stroke-linecap="round" stroke-linejoin="round"/>
<path d="M10.6367 24.1875H14.37C15.4029 24.1875 16.2367 23.3668 16.2367 22.3501V16.8376" stroke="#483493" stroke-width="1.5" stroke-linecap="round" stroke-linejoin="round"/>
<path d="M19.0353 33.375C20.5784 33.375 21.8353 32.1378 21.8353 30.6188C21.8353 29.0998 20.5784 27.8625 19.0353 27.8625C17.4922 27.8625 16.2354 29.0998 16.2354 30.6188C16.2354 32.1378 17.4922 33.375 19.0353 33.375Z" stroke="#483493" stroke-width="1.5" stroke-linecap="round" stroke-linejoin="round"/>
<path d="M33.9669 33.375C35.51 33.375 36.7669 32.1378 36.7669 30.6188C36.7669 29.0998 35.51 27.8625 33.9669 27.8625C32.4238 27.8625 31.1669 29.0998 31.1669 30.6188C31.1669 32.1378 32.4238 33.375 33.9669 33.375Z" stroke="#483493" stroke-width="1.5" stroke-linecap="round" stroke-linejoin="round"/>
<path d="M24.6352 31.5373H28.3685" stroke="#483493" stroke-width="1.5" stroke-linecap="round" stroke-linejoin="round"/>
</svg>
