<svg width="34" height="34" viewBox="0 0 34 34" fill="none" xmlns="http://www.w3.org/2000/svg">
<circle cx="17.1836" cy="17" r="16" stroke="#483493" stroke-linecap="round" stroke-linejoin="round"/>
<path d="M16.6838 15.8928C18.0276 15.8928 19.1124 14.808 19.1124 13.4642C19.1124 12.1204 18.0276 11.0356 16.6838 11.0356C15.34 11.0356 14.2552 12.1204 14.2552 13.4642C14.2552 14.808 15.34 15.8928 16.6838 15.8928Z" stroke="#483493" stroke-linecap="round" stroke-linejoin="round"/>
<path d="M16.6833 8C19.7028 8 22.1476 10.4448 22.1476 13.4643C22.1476 16.0952 17.9947 21.9885 16.9261 23.4538C16.8695 23.5347 16.7804 23.5752 16.6833 23.5752C16.5861 23.5752 16.4971 23.5266 16.4404 23.4538C15.3799 21.9885 11.219 16.0952 11.219 13.4643C11.219 10.4448 13.6638 8 16.6833 8Z" stroke="#483493" stroke-linecap="round" stroke-linejoin="round"/>
<path d="M21.5245 21.786C23.7345 22.2232 25.1836 22.9518 25.1836 23.7856C25.1836 25.1294 21.3788 26.2141 16.6836 26.2141C11.9884 26.2141 8.18359 25.1294 8.18359 23.7856C8.18359 22.9598 9.62455 22.2313 11.8265 21.7941" stroke="#483493" stroke-linecap="round" stroke-linejoin="round"/>
</svg>
