<svg width="103" height="115" viewBox="0 0 103 115" fill="none" xmlns="http://www.w3.org/2000/svg">
<path d="M31.6774 106.114H28.1664C24.4775 106.114 21.4998 103.137 21.4998 99.4478V72.7814C21.4998 69.0926 24.4775 66.1148 28.1664 66.1148H68.166C71.8549 66.1148 74.8326 69.0926 74.8326 72.7814V96.2923" fill="#0BE683" fill-opacity="0.06"/>
<path d="M31.6774 106.114H28.1664C24.4775 106.114 21.4998 103.137 21.4998 99.4478V72.7814C21.4998 69.0926 24.4775 66.1148 28.1664 66.1148H68.166C71.8549 66.1148 74.8326 69.0926 74.8326 72.7814V96.2923" stroke="#00D96F" stroke-width="3" stroke-linecap="round" stroke-linejoin="round"/>
<path d="M74.8318 72.7814H88.165C95.5427 72.7814 101.498 78.7369 101.498 86.1146V99.4478C101.498 103.137 98.5205 106.114 94.8316 106.114H84.6539" fill="#0BE683" fill-opacity="0.06"/>
<path d="M74.8318 72.7814H88.165C95.5427 72.7814 101.498 78.7369 101.498 86.1146V99.4478C101.498 103.137 98.5205 106.114 94.8316 106.114H84.6539" stroke="#00D96F" stroke-width="3" stroke-linecap="round" stroke-linejoin="round"/>
<path d="M76.5216 112.782C81.1438 112.782 84.8771 109.049 84.8771 104.427C84.8771 99.8045 81.1438 96.0712 76.5216 96.0712C71.8994 96.0712 68.1661 99.8045 68.1661 104.427C68.1661 109.049 71.8994 112.782 76.5216 112.782Z" fill="#0BE683" fill-opacity="0.06" stroke="#00D96F" stroke-width="3" stroke-linecap="round" stroke-linejoin="round"/>
<path d="M39.8557 112.782C44.4779 112.782 48.2112 109.049 48.2112 104.427C48.2112 99.8045 44.4779 96.0712 39.8557 96.0712C35.2336 96.0712 31.5447 99.8045 31.5447 104.427C31.5003 109.049 35.2336 112.782 39.8557 112.782Z" fill="#0BE683" fill-opacity="0.06" stroke="#00D96F" stroke-width="3" stroke-linecap="round" stroke-linejoin="round"/>
<path d="M68.3427 106.114H47.9873H68.3427Z" fill="#0BE683" fill-opacity="0.06"/>
<path d="M68.3427 106.114H47.9873" stroke="#00D96F" stroke-width="3" stroke-linecap="round" stroke-linejoin="round"/>
<path d="M101.499 86.1146H88.1659H101.499Z" fill="#0BE683" fill-opacity="0.06"/>
<path d="M101.499 86.1146H88.1659" stroke="#00D96F" stroke-width="3" stroke-linecap="round" stroke-linejoin="round"/>
<path d="M5.98797 71.183C-1.6564 56.472 0.610242 38.5611 11.6768 26.1612C22.7434 13.8057 40.2543 9.49467 55.7653 15.4057C71.2763 21.3168 81.4984 36.1611 81.5429 52.7832" fill="#0BE683" fill-opacity="0.06"/>
<path d="M5.98797 71.183C-1.6564 56.472 0.610242 38.5611 11.6768 26.1612C22.7434 13.8057 40.2543 9.49467 55.7653 15.4057C71.2763 21.3168 81.4984 36.1611 81.5429 52.7832" stroke="#00D96F" stroke-width="3" stroke-linecap="round" stroke-linejoin="round"/>
<path d="M41.4989 12.7819C30.4768 23.0929 24.388 37.6706 24.8324 52.7816L41.4989 12.7819Z" fill="#0BE683" fill-opacity="0.06"/>
<path d="M41.4989 12.7819C30.4768 23.0929 24.388 37.6706 24.8324 52.7816" stroke="#00D96F" stroke-width="3" stroke-linecap="round" stroke-linejoin="round"/>
<path d="M41.4994 12.7819C52.5215 23.0929 58.6103 37.6706 58.1659 52.7816L41.4994 12.7819Z" fill="#0BE683" fill-opacity="0.06"/>
<path d="M41.4994 12.7819C52.5215 23.0929 58.6103 37.6706 58.1659 52.7816" stroke="#00D96F" stroke-width="3" stroke-linecap="round" stroke-linejoin="round"/>
<path d="M3.76587 39.4483H79.1874H3.76587Z" fill="#0BE683" fill-opacity="0.06"/>
<path d="M3.76587 39.4483H79.1874" stroke="#00D96F" stroke-width="3" stroke-linecap="round" stroke-linejoin="round"/>
<path d="M89.2505 11.263C103.019 31.3768 107.961 81.8876 89.2505 95.7499C70.5396 109.612 28.1744 86.8273 14.4048 66.7134C0.635122 46.5996 15.4639 29.1579 34.1758 15.2946C52.8877 1.43123 75.4818 -8.85084 89.2505 11.263Z" fill="#0BE683" fill-opacity="0.06"/>
</svg>
