<svg width="26" height="24" viewBox="0 0 26 24" fill="none" xmlns="http://www.w3.org/2000/svg">
<path d="M21.1392 1.70401C20.8266 1.25814 20.3243 1 19.7997 1L6.40465 1C5.88001 1 5.37771 1.25814 5.06516 1.70401L1.33685 6.92532C0.868025 7.58239 0.89037 8.48587 1.39268 9.10774L11.8185 22.3664C12.131 22.7653 12.611 23 13.1022 23C13.5933 23 14.0733 22.7653 14.3858 22.3664L24.8117 9.10774C25.314 8.48587 25.3251 7.58239 24.8675 6.92532L21.1392 1.70401Z" stroke="#9185BE" stroke-width="1.5" stroke-linecap="round" stroke-linejoin="round"/>
<path d="M5.63477 1.19922L13.1025 22.9998" stroke="#9185BE" stroke-width="1.5" stroke-linecap="round" stroke-linejoin="round"/>
<path d="M20.5693 1.19922L13.1016 22.9998" stroke="#9185BE" stroke-width="1.5" stroke-linecap="round" stroke-linejoin="round"/>
<path d="M1.00195 8.05078L25.1912 8.05078" stroke="#9185BE" stroke-width="1.5" stroke-linecap="round" stroke-linejoin="round"/>
<path d="M8.07812 8.05074L13.1013 1.01074L18.1244 8.05074" stroke="#9185BE" stroke-width="1.5" stroke-linecap="round" stroke-linejoin="round"/>
</svg>
