<svg width="42" height="42" viewBox="0 0 42 42" fill="none" xmlns="http://www.w3.org/2000/svg">
<path d="M18.4328 3.99761C19.0902 4.7273 20.0319 5.15427 21.0092 5.15427C21.9865 5.15427 22.9282 4.7273 23.5856 3.99761L25.2736 2.14662C26.2687 1.06098 27.8323 0.705034 29.1827 1.25675C30.5508 1.82627 31.4037 3.17893 31.3327 4.65611L31.2083 7.14756C31.155 8.12641 31.5281 9.08765 32.2211 9.78175C32.9141 10.4758 33.8735 10.8495 34.8508 10.7961L37.3384 10.6716C38.8132 10.6004 40.1636 11.4546 40.7322 12.825C41.3007 14.1954 40.9454 15.7615 39.8437 16.7404L37.9958 18.4134C37.2673 19.0719 36.8409 20.0151 36.8409 20.9939C36.8409 21.9728 37.2496 22.9162 37.9958 23.5747L39.8437 25.2475C40.9276 26.2442 41.283 27.8103 40.7322 29.1629C40.1636 30.5333 38.8132 31.3877 37.3384 31.3165L34.8508 31.1918C33.8735 31.1384 32.9141 31.5123 32.2033 32.2064C31.5103 32.9005 31.1372 33.8615 31.1905 34.8582L31.3149 37.3498C31.386 38.8092 30.5153 40.1616 29.1649 40.7311C27.8145 41.3007 26.2509 40.9447 25.2558 39.8591L23.5856 38.0083C22.9282 37.2786 21.9865 36.8514 21.0092 36.8514C20.0319 36.8514 19.0902 37.2608 18.4328 38.0083L16.7447 39.8591C15.7497 40.9447 14.2039 41.3007 12.8357 40.7311C11.4675 40.1616 10.6147 38.8092 10.6857 37.3498L10.8101 34.8582C10.8634 33.8793 10.4903 32.9183 9.79731 32.2242C9.10434 31.5301 8.14481 31.1562 7.14978 31.2096L4.6622 31.3343C3.18742 31.4055 1.83701 30.5511 1.26842 29.1985C0.699831 27.8459 1.05518 26.262 2.13906 25.2832L3.98699 23.6101C4.7155 22.9516 5.14193 22.0084 5.14193 21.0296C5.14193 20.0507 4.73327 19.1076 3.98699 18.449L2.13906 16.776C1.05518 15.7793 0.699831 14.2133 1.26842 12.8607C1.83701 11.5081 3.1874 10.6358 4.64442 10.707L7.13205 10.8317C8.10931 10.8851 9.08656 10.5113 9.77953 9.81716C10.4725 9.12307 10.8456 8.16203 10.7923 7.16538L10.668 4.67392C10.5969 3.19674 11.4497 1.8441 12.8179 1.29238C14.1683 0.722867 15.732 1.0788 16.727 2.16443L18.4328 3.99761Z" stroke="#DAD6E9" stroke-width="2" stroke-linecap="round" stroke-linejoin="round"/>
<path d="M21.0095 29.0359C25.4338 29.0359 29.0053 25.4587 29.0053 21.0271C29.0053 16.5956 25.4338 13.0183 21.0095 13.0183C16.5851 13.0183 13.0137 16.5956 13.0137 21.0271C13.0137 25.4409 16.5851 29.0359 21.0095 29.0359Z" stroke="#DAD6E9" stroke-width="2" stroke-linecap="round" stroke-linejoin="round"/>
</svg>
