
<svg width="43" height="43" viewBox="0 0 43 43" fill="none" xmlns="http://www.w3.org/2000/svg">
<path d="M13.3159 39.0913H11.8829C10.3774 39.0913 9.16211 37.876 9.16211 36.3705V25.4873C9.16211 23.9818 10.3774 22.7665 11.8829 22.7665H28.2078C29.7133 22.7665 30.9286 23.9818 30.9286 25.4873V35.0827" stroke="#DAD6E9" stroke-width="2" stroke-linecap="round" stroke-linejoin="round"/>
<path d="M30.9287 25.4873H36.3703C39.3814 25.4873 41.8119 27.9179 41.8119 30.9289V36.3705C41.8119 37.876 40.5967 39.0913 39.0911 39.0913H34.9374" stroke="#DAD6E9" stroke-width="2" stroke-linecap="round" stroke-linejoin="round"/>
<path d="M31.6181 41.8126C33.5045 41.8126 35.0282 40.289 35.0282 38.4025C35.0282 36.5161 33.5045 34.9924 31.6181 34.9924C29.7317 34.9924 28.208 36.5161 28.208 38.4025C28.208 40.289 29.7317 41.8126 31.6181 41.8126Z" stroke="#DAD6E9" stroke-width="2" stroke-linecap="round" stroke-linejoin="round"/>
<path d="M16.6538 41.8126C18.5402 41.8126 20.0639 40.289 20.0639 38.4025C20.0639 36.5161 18.5402 34.9924 16.6538 34.9924C14.7674 34.9924 13.2619 36.5161 13.2619 38.4025C13.2437 40.289 14.7674 41.8126 16.6538 41.8126Z" stroke="#DAD6E9" stroke-width="2" stroke-linecap="round" stroke-linejoin="round"/>
<path d="M28.2802 39.0913H19.9727" stroke="#DAD6E9" stroke-width="2" stroke-linecap="round" stroke-linejoin="round"/>
<path d="M41.8117 30.9289H36.3701" stroke="#DAD6E9" stroke-width="2" stroke-linecap="round" stroke-linejoin="round"/>
<path d="M2.83165 24.8347C-0.288207 18.8308 0.636868 11.5209 5.15341 6.46017C9.66995 1.4176 16.8166 -0.341855 23.147 2.0706C29.4774 4.48305 33.6494 10.5414 33.6675 17.3253" stroke="#DAD6E9" stroke-width="2" stroke-linecap="round" stroke-linejoin="round"/>
<path d="M17.324 1C12.8256 5.20818 10.3406 11.1577 10.522 17.3249" stroke="#DAD6E9" stroke-width="2" stroke-linecap="round" stroke-linejoin="round"/>
<path d="M17.3242 1C21.8226 5.20818 24.3076 11.1577 24.1262 17.3249" stroke="#DAD6E9" stroke-width="2" stroke-linecap="round" stroke-linejoin="round"/>
<path d="M1.9248 11.8832H32.7062" stroke="#DAD6E9" stroke-width="2" stroke-linecap="round" stroke-linejoin="round"/>
</svg>
