<svg width="24" height="24" viewBox="0 0 24 24" fill="none" xmlns="http://www.w3.org/2000/svg">
<path d="M20.9467 1H3.05334C2.71112 1 2.408 1.23466 2.33955 1.57688L1 7.59999C1 8.81243 1.98756 9.79999 3.2 9.79999C4.41244 9.79999 5.4 8.81243 5.4 7.59999C5.4 8.81243 6.38756 9.79999 7.6 9.79999C8.81244 9.79999 9.8 8.81243 9.8 7.59999C9.8 8.81243 10.7876 9.79999 12 9.79999C13.2124 9.79999 14.2 8.81243 14.2 7.59999C14.2 8.81243 15.1876 9.79999 16.4 9.79999C17.6124 9.79999 18.6 8.81243 18.6 7.59999C18.6 8.81243 19.5876 9.79999 20.8 9.79999C22.0124 9.79999 23 8.81243 23 7.59999L21.6604 1.57688C21.5822 1.23466 21.2889 1 20.9467 1Z" stroke="#DAD6E9" stroke-width="1.5" stroke-linecap="round" stroke-linejoin="round"/>
<path d="M21.5312 22.9998V12.7332" stroke="#DAD6E9" stroke-width="1.5" stroke-linecap="round" stroke-linejoin="round"/>
<path d="M2.4668 12.7332V22.9998" stroke="#DAD6E9" stroke-width="1.5" stroke-linecap="round" stroke-linejoin="round"/>
</svg>
