
<svg width="107" height="106" viewBox="0 0 107 106" fill="none" xmlns="http://www.w3.org/2000/svg">
<path d="M34.6871 10.0489C22.4026 27.9947 17.9931 73.0608 34.6871 85.4289C51.3812 97.797 89.1797 77.468 101.465 59.5223C113.75 41.5765 100.52 26.0149 83.8252 13.6459C67.1303 1.27695 46.9717 -7.89679 34.6871 10.0489Z" fill="#C6FFE5"/>
<path d="M29.7639 97.8656H26.5337C23.1399 97.8656 20.4004 95.1261 20.4004 91.7323V67.1992C20.4004 63.8054 23.1399 61.0659 26.5337 61.0659H63.3333C66.7271 61.0659 69.4666 63.8054 69.4666 67.1992V88.8292" stroke="#00D96F" stroke-width="3" stroke-linecap="round" stroke-linejoin="round"/>
<path d="M69.4658 67.1992H81.7324C88.5199 67.1992 93.9989 72.6783 93.9989 79.4658V91.7323C93.9989 95.1261 91.2594 97.8656 87.8657 97.8656H78.5022" stroke="#00D96F" stroke-width="3" stroke-linecap="round" stroke-linejoin="round"/>
<path d="M71.02 104C75.2725 104 78.7071 100.565 78.7071 96.313C78.7071 92.0606 75.2725 88.626 71.02 88.626C66.7676 88.626 63.333 92.0606 63.333 96.313C63.333 100.565 66.7676 104 71.02 104Z" stroke="#00D96F" stroke-width="3" stroke-linecap="round" stroke-linejoin="round"/>
<path d="M37.2881 104C41.5405 104 44.9752 100.565 44.9752 96.313C44.9752 92.0606 41.5405 88.626 37.2881 88.626C33.0357 88.626 29.642 92.0606 29.642 96.313C29.6011 100.565 33.0357 104 37.2881 104Z" stroke="#00D96F" stroke-width="3" stroke-linecap="round" stroke-linejoin="round"/>
<path d="M63.4945 97.8657H44.7676" stroke="#00D96F" stroke-width="3" stroke-linecap="round" stroke-linejoin="round"/>
<path d="M94 79.4663H81.7334" stroke="#00D96F" stroke-width="3" stroke-linecap="round" stroke-linejoin="round"/>
<path d="M6.12893 65.7288C-0.903892 52.1947 1.18142 35.7166 11.3627 24.3087C21.5439 12.9417 37.654 8.97554 51.9241 14.4137C66.1942 19.8519 75.5985 33.5087 75.6394 48.801" stroke="#00D96F" stroke-width="3" stroke-linecap="round" stroke-linejoin="round"/>
<path d="M38.7984 12C28.6581 21.4861 23.0564 34.8976 23.4653 48.7997" stroke="#00D96F" stroke-width="3" stroke-linecap="round" stroke-linejoin="round"/>
<path d="M38.7988 12C48.9392 21.4861 54.5409 34.8976 54.132 48.7997" stroke="#00D96F" stroke-width="3" stroke-linecap="round" stroke-linejoin="round"/>
<path d="M4.08398 36.5327H73.4718" stroke="#00D96F" stroke-width="3" stroke-linecap="round" stroke-linejoin="round"/>
</svg>
