<svg width="20" height="20" viewBox="0 0 20 20" fill="none" xmlns="http://www.w3.org/2000/svg">
<path d="M17.7992 9.40039H2.19922V17.8004C2.19922 18.4644 2.73522 19.0004 3.39922 19.0004H16.5992C17.2632 19.0004 17.7992 18.4644 17.7992 17.8004V9.40039Z" stroke="#00CE7D" stroke-width="1.5" stroke-linecap="round" stroke-linejoin="round"/>
<path d="M17.8 5.80029H2.2C1.536 5.80029 1 6.33629 1 7.00029V8.80029C1 9.12829 1.272 9.40029 1.6 9.40029H18.4C18.728 9.40029 19 9.12829 19 8.80029V7.00029C19 6.33629 18.464 5.80029 17.8 5.80029Z" stroke="#00CE7D" stroke-width="1.5" stroke-linecap="round" stroke-linejoin="round"/>
<path d="M9.4 5.8C6.752 5.8 4 3.648 4 1" stroke="#00CE7D" stroke-width="1.5" stroke-linecap="round" stroke-linejoin="round"/>
<path d="M4 1C6.648 1 9.4 3.152 9.4 5.8" stroke="#00CE7D" stroke-width="1.5" stroke-linecap="round" stroke-linejoin="round"/>
<path d="M10.6016 5.8C13.2496 5.8 16.0016 3.648 16.0016 1" stroke="#00CE7D" stroke-width="1.5" stroke-linecap="round" stroke-linejoin="round"/>
<path d="M16.0016 1C13.3536 1 10.6016 3.152 10.6016 5.8" stroke="#00CE7D" stroke-width="1.5" stroke-linecap="round" stroke-linejoin="round"/>
<path d="M8.19922 5.80029H11.7992V19.0003H8.19922V5.80029Z" stroke="#00CE7D" stroke-width="1.5" stroke-linecap="round" stroke-linejoin="round"/>
</svg>
