
<svg width="21" height="20" viewBox="0 0 21 20" fill="none" xmlns="http://www.w3.org/2000/svg">
<path d="M10.5 0C16.023 0 20.5 4.477 20.5 10C20.5 15.523 16.023 20 10.5 20C4.977 20 0.5 15.523 0.5 10C0.5 4.477 4.977 0 10.5 0ZM13.72 6.97L9.25 11.44L7.28 9.47C7.13783 9.33752 6.94978 9.2654 6.75548 9.26882C6.56118 9.27225 6.37579 9.35097 6.23838 9.48838C6.10097 9.62579 6.02225 9.81118 6.01883 10.0055C6.0154 10.1998 6.08752 10.3878 6.22 10.53L8.72 13.03C8.86063 13.1705 9.05125 13.2493 9.25 13.2493C9.44875 13.2493 9.63937 13.1705 9.78 13.03L14.78 8.03C14.8537 7.96134 14.9128 7.87854 14.9538 7.78654C14.9948 7.69454 15.0168 7.59522 15.0186 7.49452C15.0204 7.39382 15.0018 7.29379 14.9641 7.2004C14.9264 7.10701 14.8703 7.02218 14.799 6.95096C14.7278 6.87974 14.643 6.8236 14.5496 6.78588C14.4562 6.74816 14.3562 6.72963 14.2555 6.73141C14.1548 6.73318 14.0555 6.75523 13.9635 6.79622C13.8715 6.83721 13.7887 6.89631 13.72 6.97Z" fill="#198038"/>
</svg>
