
<svg width="73" height="20" viewBox="0 0 73 20" fill="none" xmlns="http://www.w3.org/2000/svg">
<path d="M0 3.71766L1.15113 0.0749359H12.5678L11.5075 3.71766H0Z" fill="#2E8E69"/>
<path d="M6.62687 5.69888H3.08639L1.06055 12.0755H4.65026L6.62687 5.69888Z" fill="#2E8E69"/>
<path d="M12.5684 3.71766H16.2982L17.4493 0.0749359H13.6741L12.5684 3.71766Z" fill="#2E8E69"/>
<path d="M11.9247 5.69888H15.6545L13.7877 12.0755H10.0352L11.9247 5.69888Z" fill="#2E8E69"/>
<path d="M17.5391 3.71766L18.6448 0.0749359H30.8907C30.8907 0.0749359 33.5148 0.120375 32.962 1.89251L32.5644 3.71766H28.7285C28.7285 3.71766 29.2321 2.84295 28.0204 2.84295H21.4999L21.178 3.71766H17.5391Z" fill="#2E8E69"/>
<path d="M31.8076 5.69888H16.9868L14.9609 12.0718H18.6453L19.876 8.17154L27.9452 8.33057C27.9452 8.33057 31.8568 8.46689 31.8114 5.70645" fill="#2E8E69"/>
<path d="M35.4766 3.68816H42.1069V0H38.2976L35.4766 3.68816Z" fill="#2E8E69"/>
<path d="M34.0041 5.55917L42.1075 5.67655V12.1479L38.9419 12.1403L38.9457 8.39913H35.515L32.9477 12.1403L29.127 12.1479L34.0041 5.55917Z" fill="#2E8E69"/>
<path d="M47.7422 0.212105H51.6992L52.252 2.29096L54.0961 0.212105H57.9623L54.5089 3.85862H48.8933L47.7422 0.212105Z" fill="#2E8E69"/>
<path d="M48.2942 5.83477H53.9098L55.8447 12.2114H51.7476L50.7328 8.41346H50.1345L46.9121 12.2114H42.7695L48.2942 5.83477Z" fill="#2E8E69"/>
<path d="M59.4346 0.212105L54.9209 5.00975L56.996 12.2119H61.0476L58.9271 4.86964L62.9788 0.212105H59.4346Z" fill="#2E8E69"/>
<path d="M64.3164 0.212105L59.8027 5.00975L61.874 12.2119H65.9257L63.809 4.86964L67.8607 0.212105H64.3164Z" fill="#2E8E69"/>
<path d="M69.2871 0.212105L64.7734 5.00975L66.8447 12.2119H70.8964L68.7797 4.86964L72.8314 0.212105H69.2871Z" fill="#2E8E69"/>
<path d="M4.11205 19.7658C3.7171 19.9217 3.29443 19.9951 2.87004 19.9816C1.19636 19.9816 0.333008 18.9289 0.333008 17.5506C0.333008 15.8959 1.51065 14.9757 2.98364 14.9757C3.39322 14.963 3.80089 15.0365 4.18021 15.1916L3.9568 16.0625C3.66141 15.9476 3.34587 15.8935 3.02908 15.9034C2.81755 15.889 2.60543 15.9211 2.40759 15.9973C2.20974 16.0735 2.03096 16.1921 1.88377 16.3447C1.73658 16.4973 1.62454 16.6802 1.55551 16.8807C1.48648 17.0812 1.46212 17.2943 1.48414 17.5052C1.46658 17.7132 1.49436 17.9225 1.56557 18.1187C1.63679 18.315 1.74973 18.4934 1.89662 18.6417C2.0435 18.79 2.22082 18.9047 2.41634 18.9778C2.61186 19.051 2.82091 19.0808 3.02908 19.0653C3.3399 19.0659 3.64854 19.0134 3.94165 18.91L4.11205 19.7658Z" fill="#2E8E69"/>
<path d="M9.8452 18.104C9.86387 18.3541 9.82899 18.6054 9.74287 18.841C9.65676 19.0767 9.52139 19.2912 9.34581 19.4704C9.17022 19.6496 8.95844 19.7892 8.72461 19.8801C8.49077 19.9709 8.24025 20.0109 7.98976 19.9973C7.74806 20.0094 7.50653 19.9705 7.28089 19.883C7.05524 19.7956 6.85056 19.6615 6.68015 19.4897C6.50975 19.3179 6.37746 19.1121 6.2919 18.8857C6.20633 18.6594 6.16941 18.4175 6.18354 18.1759C6.16682 17.9245 6.20462 17.6724 6.29434 17.437C6.38405 17.2015 6.52358 16.9882 6.70336 16.8116C6.88315 16.6351 7.09895 16.4995 7.33601 16.414C7.57306 16.3286 7.82577 16.2954 8.07685 16.3167C8.31301 16.308 8.5484 16.3485 8.76812 16.4355C8.98784 16.5225 9.18711 16.6542 9.35333 16.8222C9.51954 16.9902 9.64908 17.1908 9.73374 17.4115C9.81841 17.6321 9.85636 17.8679 9.8452 18.104ZM7.30059 18.1418C7.30059 18.7439 7.5543 19.1983 8.02005 19.1983C8.48581 19.1983 8.71679 18.7742 8.71679 18.1418C8.71679 17.6155 8.5161 17.0854 8.02005 17.0854C7.524 17.0854 7.31195 17.6231 7.31195 18.1418H7.30059Z" fill="#2E8E69"/>
<path d="M15.5706 18.7735C15.5706 19.2316 15.5706 19.6065 15.6009 19.9094H14.6505L14.6012 19.4134H14.5785C14.4614 19.5966 14.2985 19.746 14.1059 19.847C13.9133 19.9479 13.6977 19.9969 13.4804 19.989C12.7685 19.989 12.2422 19.5421 12.2422 18.4554V16.3841H13.3441V18.2774C13.3441 18.7886 13.5069 19.0953 13.8894 19.0953C14.008 19.0951 14.1237 19.0588 14.2211 18.9912C14.3186 18.9235 14.393 18.8277 14.4346 18.7167C14.4637 18.6419 14.4766 18.5619 14.4725 18.4819V16.3841H15.5706V18.7735Z" fill="#2E8E69"/>
<path d="M18.1759 17.5433C18.1759 17.0245 18.1759 16.6875 18.1494 16.3846H19.0847L19.1226 17.0396H19.1491C19.2132 16.8356 19.3391 16.6564 19.5093 16.5269C19.6795 16.3973 19.8857 16.3238 20.0995 16.3164C20.1764 16.3101 20.2536 16.3101 20.3305 16.3164V17.3539C20.2343 17.3274 20.1349 17.3147 20.0351 17.3161C19.8631 17.2992 19.6908 17.3462 19.5511 17.4481C19.4115 17.5501 19.3142 17.6999 19.2778 17.8689C19.2716 17.9508 19.2716 18.0331 19.2778 18.115V19.8985H18.1759V17.5433Z" fill="#2E8E69"/>
<path d="M23.7568 15.4071C23.757 15.4825 23.7416 15.5572 23.7117 15.6264C23.6817 15.6956 23.6379 15.7579 23.5828 15.8094C23.5277 15.8609 23.4627 15.9005 23.3916 15.9258C23.3206 15.951 23.2451 15.9614 23.1698 15.9562C23.0937 15.9625 23.017 15.953 22.9447 15.9281C22.8724 15.9033 22.806 15.8638 22.7497 15.812C22.6935 15.7602 22.6486 15.6973 22.6179 15.6273C22.5871 15.5573 22.5713 15.4817 22.5713 15.4052C22.5713 15.3288 22.5871 15.2531 22.6179 15.1831C22.6486 15.1131 22.6935 15.0502 22.7497 14.9985C22.806 14.9467 22.8724 14.9071 22.9447 14.8823C23.017 14.8575 23.0937 14.848 23.1698 14.8543C23.2454 14.849 23.3212 14.8595 23.3925 14.885C23.4638 14.9105 23.5291 14.9504 23.5842 15.0023C23.6393 15.0543 23.6831 15.117 23.7128 15.1867C23.7425 15.2563 23.7575 15.3314 23.7568 15.4071ZM22.6208 19.9018V16.3841H23.7151V19.9018H22.6208Z" fill="#2E8E69"/>
<path d="M27.1657 18.494C27.1998 18.9333 27.6428 19.1605 28.1578 19.1605C28.4866 19.165 28.8139 19.1164 29.1272 19.0166L29.2711 19.7739C28.8647 19.9274 28.4331 20.0032 27.9988 19.9973C26.806 19.9973 26.1055 19.2968 26.1055 18.1987C26.1055 17.3088 26.6583 16.3054 27.8814 16.3054C29.0174 16.3054 29.4453 17.1876 29.4453 18.0586C29.446 18.2032 29.4346 18.3476 29.4112 18.4902L27.1657 18.494ZM28.4532 17.7367C28.4615 17.6498 28.4519 17.5621 28.4249 17.479C28.3978 17.396 28.354 17.3194 28.2961 17.2541C28.2382 17.1887 28.1675 17.136 28.0883 17.0991C28.0091 17.0623 27.9232 17.0422 27.836 17.04C27.6538 17.0505 27.4824 17.1299 27.3565 17.2621C27.2307 17.3943 27.1598 17.5693 27.1581 17.7518L28.4532 17.7367Z" fill="#2E8E69"/>
<path d="M31.8457 17.5433C31.8457 17.0245 31.8457 16.6875 31.8154 16.3846H32.7583L32.7924 17.0396H32.8227C32.8856 16.8356 33.0106 16.6562 33.1803 16.5266C33.35 16.3969 33.5559 16.3235 33.7693 16.3164C33.8462 16.3101 33.9234 16.3101 34.0003 16.3164V17.3539C33.9042 17.3272 33.8047 17.3144 33.705 17.3161C33.5327 17.2983 33.36 17.345 33.2202 17.4471C33.0803 17.5492 32.9832 17.6995 32.9476 17.8689C32.9319 17.95 32.9243 18.0324 32.9249 18.115V19.8985H31.8457V17.5433Z" fill="#2E8E69"/>
<path d="M39.552 18.774C39.9279 18.9646 40.3423 19.067 40.7638 19.0731C41.2674 19.0731 41.5211 18.8649 41.5211 18.5506C41.5211 18.2363 41.2901 18.0772 40.707 17.869C39.9004 17.585 39.3778 17.1419 39.3778 16.4376C39.3778 15.6084 40.067 14.976 41.2106 14.976C41.6349 14.9689 42.0559 15.0528 42.445 15.2221L42.2027 16.1044C41.8857 15.9535 41.5389 15.8759 41.1879 15.8772C40.7145 15.8772 40.4835 16.0931 40.4835 16.343C40.4835 16.6535 40.7562 16.7898 41.381 17.0246C42.2367 17.3426 42.6419 17.7819 42.6419 18.471C42.6419 19.2814 42.0171 19.9857 40.6842 19.9857C40.2103 19.9895 39.7417 19.8859 39.3135 19.6828L39.552 18.774Z" fill="#2E8E69"/>
<path d="M45.9772 18.494C46.0113 18.9446 46.4581 19.1605 46.9693 19.1605C47.2981 19.1648 47.6254 19.1162 47.9387 19.0166L48.0826 19.7739C47.6762 19.9274 47.2446 20.0032 46.8103 19.9973C45.6175 19.9973 44.917 19.2968 44.917 18.1987C44.917 17.3088 45.4698 16.3054 46.6929 16.3054C47.8289 16.3054 48.2606 17.1876 48.2606 18.0586C48.2594 18.2031 48.248 18.3473 48.2265 18.4902L45.9772 18.494ZM47.2609 17.7367C47.2698 17.6497 47.2606 17.5617 47.2338 17.4785C47.207 17.3952 47.1632 17.3184 47.1052 17.2529C47.0472 17.1874 46.9762 17.1347 46.8968 17.098C46.8173 17.0614 46.7312 17.0416 46.6437 17.04C46.4618 17.0506 46.2909 17.1301 46.1656 17.2624C46.0404 17.3946 45.9703 17.5697 45.9697 17.7518L47.2609 17.7367Z" fill="#2E8E69"/>
<path d="M50.6535 17.5432C50.6535 17.0245 50.6535 16.6874 50.627 16.3845H51.566L51.6039 17.032H51.6304C51.6945 16.828 51.8204 16.6488 51.9906 16.5193C52.1608 16.3897 52.3671 16.3162 52.5808 16.3088C52.6577 16.3025 52.735 16.3025 52.8118 16.3088V17.3463C52.7157 17.3198 52.6162 17.3071 52.5165 17.3085C52.3442 17.2907 52.1715 17.3374 52.0317 17.4395C51.8918 17.5416 51.7947 17.6918 51.7592 17.8613C51.7434 17.9424 51.7358 18.0248 51.7364 18.1074V19.8909H50.6421L50.6535 17.5432Z" fill="#2E8E69"/>
<path d="M56.0422 16.3841L56.5155 18.0161C56.5986 18.2973 56.6656 18.5831 56.7162 18.8719H56.7389C56.7957 18.5841 56.8525 18.3191 56.932 18.0161L57.3864 16.3841H58.5224L57.2122 19.9019H56.1217L54.8418 16.3841H56.0422Z" fill="#2E8E69"/>
<path d="M61.9041 15.4071C61.9038 15.4827 61.8879 15.5574 61.8576 15.6266C61.8272 15.6958 61.783 15.7581 61.7277 15.8096C61.6723 15.861 61.607 15.9006 61.5357 15.9258C61.4645 15.951 61.3888 15.9614 61.3134 15.9562C61.2372 15.9625 61.1605 15.953 61.0882 15.9281C61.0159 15.9033 60.9495 15.8638 60.8933 15.812C60.837 15.7602 60.7921 15.6973 60.7614 15.6273C60.7307 15.5573 60.7148 15.4817 60.7148 15.4052C60.7148 15.3288 60.7307 15.2531 60.7614 15.1831C60.7921 15.1131 60.837 15.0502 60.8933 14.9985C60.9495 14.9467 61.0159 14.9071 61.0882 14.8823C61.1605 14.8575 61.2372 14.848 61.3134 14.8543C61.3892 14.8485 61.4655 14.8585 61.5372 14.8838C61.609 14.909 61.6747 14.9489 61.7303 15.0009C61.7858 15.0528 61.8299 15.1158 61.8599 15.1857C61.8898 15.2557 61.9049 15.3311 61.9041 15.4071ZM60.7681 19.9018V16.3841H61.8625V19.9018H60.7681Z" fill="#2E8E69"/>
<path d="M67.1067 19.8156C66.7946 19.933 66.463 19.9896 66.1297 19.9823C64.9938 19.9823 64.2705 19.2817 64.2705 18.176C64.2705 17.1499 64.9748 16.3092 66.2812 16.3092C66.5646 16.307 66.8463 16.3531 67.1143 16.4456L66.9439 17.2559C66.7489 17.1785 66.54 17.1424 66.3304 17.1499C66.0693 17.1529 65.8201 17.2595 65.6376 17.4463C65.4551 17.633 65.3543 17.8846 65.3573 18.1457C65.3603 18.4069 65.4669 18.6561 65.6537 18.8386C65.8404 19.0211 66.092 19.1219 66.3531 19.1189C66.5674 19.1244 66.7803 19.0844 66.9779 19.0015L67.1067 19.8156Z" fill="#2E8E69"/>
<path d="M70.2 18.4941C70.2341 18.9447 70.6809 19.1606 71.1921 19.1606C71.5209 19.1649 71.8482 19.1163 72.1615 19.0167L72.3054 19.774C71.899 19.9275 71.4674 20.0033 71.0331 19.9974C69.8403 19.9974 69.1398 19.2969 69.1398 18.1988C69.1214 17.9554 69.1538 17.7108 69.235 17.4806C69.3162 17.2504 69.4443 17.0396 69.6113 16.8615C69.7783 16.6835 69.9805 16.5421 70.2051 16.4464C70.4296 16.3507 70.6716 16.3027 70.9157 16.3055C72.0517 16.3055 72.4834 17.1878 72.4834 18.0587C72.4821 18.2032 72.4708 18.3474 72.4493 18.4904L70.2 18.4941ZM71.4837 17.7368C71.4926 17.6498 71.4834 17.5619 71.4566 17.4786C71.4298 17.3953 71.386 17.3185 71.328 17.253C71.2699 17.1875 71.199 17.1348 71.1196 17.0981C71.0401 17.0615 70.9539 17.0417 70.8665 17.0401C70.6846 17.0507 70.5137 17.1302 70.3884 17.2625C70.2632 17.3948 70.1931 17.5698 70.1924 17.752L71.4837 17.7368Z" fill="#2E8E69"/>
</svg>
