<svg width="55" height="49" viewBox="0 0 55 49" fill="none" xmlns="http://www.w3.org/2000/svg">
<path d="M43.0651 8.86702V6.63116C43.0651 5.42202 42.586 4.23571 41.7419 3.36878C40.875 2.50185 39.7114 2.02281 38.5023 2H6.56279C5.35365 2 4.19014 2.50185 3.32321 3.36878C2.45628 4.23571 2 5.3992 2 6.63116V28.2132C2 29.4223 2.4791 30.6086 3.32321 31.4756C4.19014 32.3425 5.35365 32.8217 6.56279 32.8445" stroke="white" stroke-width="3" stroke-linecap="round" stroke-linejoin="round"/>
<path d="M26.1599 46.5105L36.2893 32.1149C36.8824 31.248 37.8635 30.7232 38.9129 30.6548C39.9623 30.6092 40.9889 31.0198 41.6734 31.8183L52.9434 44.6854" stroke="white" stroke-width="3" stroke-linecap="round" stroke-linejoin="round"/>
<path d="M25.0876 25.9766C25.5667 25.9766 25.9545 26.3644 25.9545 26.8435C25.9545 27.3226 25.5667 27.7104 25.0876 27.7104C24.6086 27.7104 24.2207 27.3226 24.2207 26.8435C24.2207 26.3644 24.6314 25.9766 25.0876 25.9766Z" stroke="white" stroke-width="3" stroke-linecap="round" stroke-linejoin="round"/>
<path d="M13.9773 17.9923C13.9773 16.7376 15.0039 15.7109 16.2587 15.7109H51.0499C52.3047 15.7109 53.3313 16.7376 53.3313 17.9923V44.2284C53.3313 45.4831 52.3047 46.5098 51.0499 46.5098H16.2587C15.0039 46.5098 13.9773 45.4831 13.9773 44.2284V17.9923Z" stroke="white" stroke-width="3" stroke-linecap="round" stroke-linejoin="round"/>
</svg>
