<svg width="24" height="25" viewBox="0 0 24 25" fill="none" xmlns="http://www.w3.org/2000/svg">
<path d="M12.0005 14.4746C13.3252 14.4746 14.6202 14.0795 15.7216 13.3392C16.823 12.5989 17.6815 11.5467 18.1885 10.3156C18.6954 9.08449 18.828 7.72984 18.5696 6.42293C18.3112 5.11602 17.6733 3.91555 16.7366 2.97332C15.7999 2.03109 14.6064 1.38942 13.3072 1.12946C12.0079 0.869498 10.6612 1.00292 9.43738 1.51285C8.21352 2.02278 7.16747 2.88632 6.43151 3.99427C5.69555 5.10221 5.30273 6.4048 5.30273 7.73732C5.30273 9.52416 6.00839 11.2378 7.26447 12.5013C8.52055 13.7648 10.2242 14.4746 12.0005 14.4746V14.4746Z" stroke="#DAD6E9" stroke-width="1.5" stroke-linecap="round" stroke-linejoin="round"/>
<path d="M23 23.9999C21.9445 21.9852 20.3621 20.2986 18.4236 19.1221C16.4851 17.9455 14.264 17.3237 12 17.3237C9.73598 17.3237 7.51492 17.9455 5.57642 19.1221C3.63792 20.2986 2.05555 21.9852 1 23.9999" stroke="#DAD6E9" stroke-width="1.5" stroke-linecap="round" stroke-linejoin="round"/>
</svg>
