<svg width="44" height="43" viewBox="0 0 44 43" fill="none" xmlns="http://www.w3.org/2000/svg">
<path d="M39.7691 33.3144V36.0479C39.7691 39.073 37.3272 41.5149 34.3021 41.5149H6.96702C3.94193 41.5149 1.5 39.073 1.5 36.0479V16.9133C1.5 13.8882 3.94193 11.4463 6.96702 11.4463H34.3021C37.3272 11.4463 39.7691 13.8882 39.7691 16.9133V19.6468" stroke="#C9C3E0" stroke-width="2" stroke-linecap="round" stroke-linejoin="round"/>
<path d="M34.3006 11.4478L30.0545 2.95572C29.7265 2.29968 29.1616 1.80765 28.4691 1.58897C27.7766 1.35206 27.0295 1.40674 26.3735 1.73476L6.94727 11.4478" stroke="#C9C3E0" stroke-width="2" stroke-linecap="round" stroke-linejoin="round"/>
<path d="M39.7672 33.317C41.2797 33.317 42.5007 32.096 42.5007 30.5835V22.3829C42.5007 20.8704 41.2797 19.6494 39.7672 19.6494H32.9334C29.1611 19.6494 26.0996 22.7109 26.0996 26.4832C26.0996 30.2554 29.1611 33.317 32.9334 33.317H39.7672Z" stroke="#C9C3E0" stroke-width="2" stroke-linecap="round" stroke-linejoin="round"/>
<path d="M32.9347 25.7881C33.3174 25.7881 33.6272 26.0979 33.6272 26.4806C33.6272 26.8632 33.3174 27.1731 32.9347 27.1731C32.552 27.1731 32.2422 26.8632 32.2422 26.4806C32.2422 26.0979 32.552 25.7881 32.9347 25.7881Z" stroke="#C9C3E0" stroke-width="2" stroke-linecap="round" stroke-linejoin="round"/>
</svg>
