
<svg width="21" height="20" viewBox="0 0 21 20" fill="none" xmlns="http://www.w3.org/2000/svg">
<path d="M9.40921 0.781608C9.9068 0.506088 10.4903 0.429244 11.0422 0.566538C11.5942 0.703832 12.0737 1.04508 12.3842 1.52161L12.4672 1.65961L20.2262 15.6686C20.4094 15.9997 20.5061 16.3716 20.5075 16.75C20.5088 17.1283 20.4147 17.5009 20.2339 17.8333C20.0531 18.1656 19.7913 18.447 19.4729 18.6514C19.1545 18.8558 18.7897 18.9766 18.4122 19.0026L18.2582 19.0086H2.74221C2.36416 19.0088 1.99217 18.9137 1.66058 18.7321C1.329 18.5506 1.0485 18.2884 0.845003 17.9698C0.641505 17.6512 0.521565 17.2864 0.496258 16.9092C0.470952 16.532 0.541094 16.1545 0.700209 15.8116L0.772209 15.6686L8.53021 1.65961C8.735 1.29025 9.03961 0.985978 9.40921 0.781608ZM10.5002 14.0016C10.3664 13.9974 10.2332 14.0201 10.1083 14.0683C9.98347 14.1166 9.8696 14.1895 9.77347 14.2826C9.67734 14.3758 9.6009 14.4873 9.5487 14.6105C9.4965 14.7338 9.46961 14.8663 9.46961 15.0001C9.46961 15.134 9.4965 15.2664 9.5487 15.3897C9.6009 15.5129 9.67734 15.6245 9.77347 15.7176C9.8696 15.8107 9.98347 15.8836 10.1083 15.9319C10.2332 15.9801 10.3664 16.0028 10.5002 15.9986C10.7596 15.9904 11.0055 15.8816 11.1861 15.6952C11.3666 15.5089 11.4676 15.2596 11.4676 15.0001C11.4676 14.7406 11.3666 14.4913 11.1861 14.305C11.0055 14.1186 10.7596 14.0098 10.5002 14.0016ZM10.4982 5.99761C10.2531 5.99767 10.0166 6.08773 9.83353 6.2507C9.65048 6.41366 9.53364 6.63818 9.50521 6.88161L9.50021 6.99761V11.9996L9.50721 12.1166C9.53516 12.3605 9.65185 12.5856 9.83506 12.749C10.0183 12.9125 10.2552 13.0028 10.5007 13.0028C10.7462 13.0028 10.9831 12.9125 11.1664 12.749C11.3496 12.5856 11.4663 12.3605 11.4942 12.1166L11.5002 11.9996V6.99761L11.4932 6.88061C11.4645 6.63719 11.3475 6.41277 11.1642 6.24999C10.981 6.08721 10.7433 5.9974 10.4982 5.99761Z" fill="#F1C21B"/>
</svg>
