<svg width="16" height="17" viewBox="0 0 16 17" fill="none" xmlns="http://www.w3.org/2000/svg">
<path d="M10.3744 14.9867C11.0392 15.4091 11.8281 15.5923 12.611 15.5059C13.3939 15.4195 14.1239 15.0688 14.6806 14.5117L15.1619 14.0304C15.3775 13.8138 15.4986 13.5205 15.4986 13.2148C15.4986 12.9091 15.3775 12.6159 15.1619 12.3992L13.1556 10.3742C12.939 10.1586 12.6457 10.0375 12.34 10.0375C12.0343 10.0375 11.7411 10.1586 11.5244 10.3742C11.4181 10.4816 11.2916 10.5667 11.1521 10.6247C11.0126 10.6826 10.8629 10.7122 10.7119 10.7117C10.5599 10.712 10.4094 10.6823 10.2689 10.6244C10.1284 10.5665 10.0007 10.4815 9.89313 10.3742L6.62438 7.10545C6.40874 6.88877 6.28769 6.59551 6.28769 6.28982C6.28769 5.98413 6.40874 5.69087 6.62438 5.4742V5.4742C6.73205 5.36817 6.81739 5.24165 6.87536 5.1021C6.93332 4.96255 6.96274 4.8128 6.96188 4.6617C6.96219 4.50974 6.93254 4.35922 6.87462 4.21873C6.81671 4.07824 6.73168 3.95055 6.62438 3.84295L4.59313 1.80545C4.37645 1.58981 4.0832 1.46875 3.77751 1.46875C3.47181 1.46875 3.17856 1.58981 2.96188 1.80545L2.48063 2.2867C1.91688 2.84607 1.56215 3.58195 1.4757 4.3714C1.38924 5.16086 1.57631 5.95607 2.00563 6.6242V6.6242C4.2373 9.91913 7.07778 12.7575 10.3744 14.9867V14.9867Z" stroke="#483493" stroke-linecap="round" stroke-linejoin="round"/>
</svg>
