<svg width="75" height="83" viewBox="0 0 75 83" fill="none" xmlns="http://www.w3.org/2000/svg">
<path d="M65.6583 8.09108C75.5494 22.5404 79.0998 58.8261 65.6583 68.7845C52.2168 78.7429 21.7827 62.3747 11.8909 47.9254C1.99909 33.4761 12.6517 20.9464 26.0939 10.9873C39.5361 1.02816 55.7672 -6.35824 65.6583 8.09108Z" fill="#B9BECB" fill-opacity="0.2"/>
<path d="M37.2936 29.6278C37.2634 30.2024 36.9005 30.7166 36.3863 30.9283C35.8116 31.2005 35.1462 31.1702 34.5413 30.898L28.1899 27.7829L21.8687 30.898C21.2941 31.1702 20.6287 31.1703 20.054 30.9283C19.5399 30.7166 19.177 30.2024 19.1467 29.6278V12.9629H37.2936V29.6278Z" stroke="#B9BECB" stroke-width="2" stroke-linecap="round" stroke-linejoin="round"/>
<path d="M19.1469 62.8668H3.90347C3.11711 62.8668 2.39126 62.5644 1.84685 61.9897C1.30244 61.4453 1 60.6892 1 59.9331V15.8965C1 14.2936 2.3005 12.9629 3.90347 12.9629H52.5371C54.1401 12.9629 55.4406 14.2936 55.4406 15.8965V35.6465" stroke="#B9BECB" stroke-width="2" stroke-linecap="round" stroke-linejoin="round"/>
<path d="M32.7524 62.8676V54.2479C32.7524 52.403 33.811 50.7394 35.5047 50.0136L46.8465 45.0836C47.9958 44.5997 49.2963 44.5997 50.4154 45.0836L61.7572 50.0136C63.4509 50.7394 64.5095 52.403 64.5095 54.2479V62.8676" stroke="#B9BECB" stroke-width="2" stroke-linecap="round" stroke-linejoin="round"/>
<path d="M48.6425 52.6387C48.0073 52.6387 47.4932 53.1528 47.4932 53.788C47.4932 54.4231 48.0073 54.9373 48.6425 54.9373C49.2776 54.9373 49.7918 54.4231 49.7918 53.788C49.7918 53.1528 49.2776 52.6387 48.6425 52.6387Z" stroke="#B9BECB" stroke-width="2" stroke-linecap="round" stroke-linejoin="round"/>
<path d="M28.2266 62.8691H69.057" stroke="#B9BECB" stroke-width="2" stroke-linecap="round" stroke-linejoin="round"/>
<path d="M62.0656 69.6719C60.9768 76.235 55.2908 81.0439 48.6369 81.0439C41.9831 81.0439 36.3273 76.235 35.2083 69.6719" stroke="#B9BECB" stroke-width="2" stroke-linecap="round" stroke-linejoin="round"/>
</svg>
