<svg width="20" height="20" viewBox="0 0 20 20" fill="none" xmlns="http://www.w3.org/2000/svg">
<path d="M3.00098 10C3.00098 10 5.54598 5 10.001 5C14.455 5 17.001 10 17.001 10C17.001 10 14.455 15 10.001 15C5.54598 15 3.00098 10 3.00098 10Z" stroke="#483493" stroke-width="1.5" stroke-linecap="round" stroke-linejoin="round"/>
<path d="M10.001 11C10.2662 11 10.5205 10.8946 10.7081 10.7071C10.8956 10.5196 11.001 10.2652 11.001 10C11.001 9.73478 10.8956 9.48043 10.7081 9.29289C10.5205 9.10536 10.2662 9 10.001 9C9.73576 9 9.48141 9.10536 9.29387 9.29289C9.10633 9.48043 9.00098 9.73478 9.00098 10C9.00098 10.2652 9.10633 10.5196 9.29387 10.7071C9.48141 10.8946 9.73576 11 10.001 11Z" stroke="#483493" stroke-width="1.5" stroke-linecap="round" stroke-linejoin="round"/>
<path d="M19 6V3C19 2.46957 18.7893 1.96086 18.4142 1.58579C18.0391 1.21071 17.5304 1 17 1H3C2.46957 1 1.96086 1.21071 1.58579 1.58579C1.21071 1.96086 1 2.46957 1 3V6M19 14V17C19 17.5304 18.7893 18.0391 18.4142 18.4142C18.0391 18.7893 17.5304 19 17 19H3C2.46957 19 1.96086 18.7893 1.58579 18.4142C1.21071 18.0391 1 17.5304 1 17V14" stroke="#483493" stroke-width="1.5" stroke-linecap="round" stroke-linejoin="round"/>
</svg>
